
<svg xmlns="http://www.w3.org/2000/svg" version="1.1" xmlns:xlink="http://www.w3.org/1999/xlink" preserveAspectRatio="none" x="0px" y="0px" width="1024px" height="1024px" viewBox="0 0 1024 1024">
<defs>
<g id="Layer0_0_MEMBER_0_MEMBER_0_FILL">
<path fill="#000000" fill-opacity="0.09803921568627451" stroke="none" d="
M 97.5 32.55
Q 97.5 31.9 96.7 31.45
L 43.95 0.5
Q 43.2 0 42.1 0 41 0 40.2 0.45
L 0.75 23
Q 0 23.45 0 24.1 -0.05 24.7 0.75 25.2
L 53.5 56.15
Q 54.3 56.6 55.4 56.6 56.45 56.6 57.25 56.15
L 96.7 33.65
Q 97.5 33.2 97.5 32.55 Z"/>
</g>

<g id="Layer0_0_MEMBER_0_MEMBER_1_MEMBER_0_FILL">
<path fill="#778489" stroke="none" d="
M 427.2 66.5
L 427.2 63.8 389.65 85.25 389.65 87.95 427.2 66.5 Z"/>
</g>

<g id="Layer0_0_MEMBER_0_MEMBER_2_MEMBER_0_FILL">
<path fill="#ACBEC5" stroke="none" d="
M 427.2 63.8
L 427.2 66.5 472 92.85 472 90.1 427.2 63.8 Z"/>
</g>

<g id="Layer0_0_MEMBER_0_MEMBER_3_MEMBER_0_FILL">
<path fill="#356276" stroke="none" d="
M 472 92.85
L 472 90.1 434.45 111.6 434.45 114.3 472 92.85 Z"/>
</g>

<g id="Layer0_0_MEMBER_0_MEMBER_4_MEMBER_0_FILL">
<path fill="#897BCA" stroke="none" d="
M 458.3 101.05
Q 457.15 101.05 456.35 101.5 455.55 102 455.5 102.65 455.5 103.3 456.3 103.75 457.15 104.25 458.25 104.25 459.4 104.25 460.2 103.75 461 103.3 461 102.65 461 102 460.2 101.55 459.4 101.05 458.3 101.05 Z"/>
</g>

<g id="Layer0_0_MEMBER_0_MEMBER_5_MEMBER_0_FILL">
<path fill="#4C8DAA" stroke="none" d="
M 389.65 85.25
L 389.65 87.95 434.45 114.3 434.45 111.6 389.65 85.25 Z"/>
</g>

<g id="Layer0_0_MEMBER_0_MEMBER_6_MEMBER_0_FILL">
<path fill="#6399D6" stroke="none" d="
M 472 90.1
L 427.2 63.8 389.65 85.25 434.45 111.6 472 90.1 Z"/>
</g>

<g id="Layer0_0_MEMBER_0_MEMBER_7_MEMBER_0_FILL">
<path fill="#99C4F5" stroke="none" d="
M 461.35 88.45
L 428.1 68.9 400.25 84.85 433.5 104.35 461.35 88.45 Z"/>
</g>

<g id="Layer0_0_MEMBER_0_MEMBER_8_MEMBER_0_FILL">
<path fill="#6399D6" stroke="none" d="
M 429.3 73.55
L 421.4 78.1 430.85 83.65 438.75 79.1 429.3 73.55 Z"/>
</g>

<g id="Layer0_0_MEMBER_0_MEMBER_9_FILL">
<path fill="#93B1FC" stroke="none" d="
M 384.45 85.4
L 384.4 85.1 384.4 88 384.45 88.1 384.45 88.15 384.55 88.3 384.55 88.35 384.8 88.6 384.8 88.65 385 88.8 437.9 119.85 437.9 117.15 385.15 86.2 384.8 85.95 384.6 85.7 384.6 85.65 384.45 85.4 Z"/>
</g>

<g id="Layer0_0_MEMBER_0_MEMBER_10_FILL">
<path fill="#DFF4FE" stroke="none" d="
M 428.4 61.5
Q 427.6 61.05 426.55 61.05 425.45 61.05 424.65 61.5
L 385.2 84
Q 384.4 84.45 384.4 85.1 384.4 85.75 385.15 86.2
L 437.9 117.15
Q 438.7 117.6 439.8 117.65 440.9 117.65 441.7 117.2
L 481.1 94.65
Q 481.9 94.2 481.9 93.6 481.95 92.95 481.15 92.5
L 428.4 61.5
M 427.2 63.8
L 472 90.1 434.45 111.6 389.65 85.25 427.2 63.8
M 460.2 103.75
Q 459.4 104.25 458.25 104.25 457.15 104.25 456.3 103.75 455.5 103.3 455.5 102.65 455.55 102 456.35 101.5 457.15 101.05 458.3 101.05 459.4 101.05 460.2 101.55 461 102 461 102.65 461 103.3 460.2 103.75 Z"/>
</g>

<g id="Layer0_0_MEMBER_0_MEMBER_11_FILL">
<path fill="#93B1FC" stroke="none" d="
M 481.1 97.35
Q 481.9 96.9 481.9 96.25
L 481.9 93.55
Q 481.8875 94.20703125 481.1 94.65
L 441.3 117.4 441.2 117.4 440.85 117.5 440.75 117.55 440.35 117.6 440.25 117.6 439.85 117.65 439.75 117.65 439.3 117.6 439.25 117.6 438.9 117.55 438.65 117.45 438.45 117.4 437.9 117.15 437.9 119.85 438.45 120.1 438.5 120.15 438.65 120.15 438.9 120.25 439 120.25 439.25 120.3 439.35 120.3 439.65 120.35 439.9 120.35 440.15 120.3 440.45 120.3 440.7 120.25 440.75 120.25 440.85 120.2 440.95 120.2 441.2 120.1 441.3 120.1 481.1 97.35 Z"/>
</g>

<g id="Layer0_0_MEMBER_0_MEMBER_12_MEMBER_0_FILL">
<path fill="#FFFFFF" stroke="none" d="
M 420.25 79.35
L 407.55 86.6 408.95 87.4 421.7 80.2 420.25 79.35 Z"/>
</g>

<g id="Layer0_0_MEMBER_0_MEMBER_13_MEMBER_0_FILL">
<path fill="#E8EEF6" stroke="none" d="
M 424.15 81.55
L 411.45 88.85 412.85 89.65 425.6 82.45 424.15 81.55 Z"/>
</g>

<g id="Layer0_0_MEMBER_0_MEMBER_14_MEMBER_0_FILL">
<path fill="#FFFFFF" stroke="none" d="
M 427.65 83.9
L 414.95 91.15 416.35 92 429.1 84.8 427.65 83.9 Z"/>
</g>

<g id="Layer0_0_MEMBER_0_MEMBER_15_MEMBER_0_FILL">
<path fill="#C1D6EC" stroke="none" d="
M 458.3 101.35
Q 457.15 101.35 456.35 101.8 455.55 102.25 455.5 102.9 455.5 103.55 456.3 104.05 457.15 104.5 458.25 104.5 459.4 104.5 460.2 104.05 461 103.6 461 102.95 461 102.3 460.2 101.8 459.4 101.35 458.3 101.35 Z"/>
</g>

<g id="Layer0_0_MEMBER_1_MEMBER_0_MEMBER_0_MEMBER_0_FILL">
<path fill="#FD81B7" stroke="none" d="
M 397.6 85.1
Q 397.6 85 397.45 84.9 397.1 84.65 396.75 84.9 396.6 85 396.6 85.1
L 396.55 90.1
Q 396.55 90.25 396.7 90.3
L 396.8 90.3 396.8 90.35 397.35 90.35 397.45 90.3 397.45 90.25 397.5 90.25 397.55 90.2 397.55 90.15 397.6 90.1 397.6 85.1 Z"/>
</g>

<g id="Layer0_0_MEMBER_1_MEMBER_0_MEMBER_1_MEMBER_0_FILL">
<path fill="#D12775" stroke="none" d="
M 399.3 80.6
L 399.25 80.65 399.25 80.7 399.2 80.8 399.1 80.9 399.1 80.95 398.85 81.2 398.25 81.5 397.95 81.6 397.9 81.6 397.55 81.65 396.65 81.65 396.3 81.6 396.25 81.55 395.9 81.5 395.85 81.45 395.55 81.3
Q 394.91015625 80.95546875 394.9 80.4
L 394.85 86.2
Q 394.85 86.7 395.5 87.1 395.8 87.25 395.85 87.25
L 395.85 87.3 395.9 87.3 396.1 87.35 396.2 87.4 396.35 87.4 396.55 87.45 396.7 87.45 396.75 87.5 397.2 87.5 397.45 87.45 397.75 87.45 397.8 87.4 398.05 87.35 398.15 87.35 398.75 87.05 398.85 86.95 398.95 86.9 398.95 86.85 399.05 86.75 399.1 86.75 399.1 86.7 399.2 86.6 399.2 86.55 399.25 86.5 399.25 86.35 399.3 86.3 399.3 80.6 Z"/>
</g>

<g id="Layer0_0_MEMBER_1_MEMBER_0_MEMBER_2_MEMBER_0_MEMBER_0_FILL">
<path fill="#FD81B7" stroke="none" d="
M 398.65 79.5
Q 398 79.15 397.1 79.15 396.2 79.15 395.5 79.5 394.85 79.9 394.85 80.4 394.9 80.95 395.55 81.3 396.2 81.7 397.1 81.7 398 81.7 398.65 81.3 399.3 80.95 399.3 80.4 399.3 79.9 398.65 79.5 Z"/>
</g>

<g id="Layer0_0_MEMBER_1_MEMBER_0_MEMBER_3_MEMBER_0_MEMBER_0_FILL">
<path fill="#D12775" stroke="none" d="
M 397.55 75.2
L 397.5 75.25 397.5 75.3 397.4 75.4 397 75.5 396.85 75.45 396.8 75.45 396.65 75.4
Q 396.5046875 75.3515625 396.5 75.2
L 396.5 80.3
Q 396.5 80.45 396.65 80.5
L 396.7 80.55 396.85 80.55 396.9 80.6 397.15 80.6 397.2 80.55 397.25 80.55 397.35 80.5 397.4 80.5 397.45 80.45 397.45 80.4 397.5 80.4 397.55 75.2 Z"/>
</g>

<g id="Layer0_0_MEMBER_1_MEMBER_0_MEMBER_3_MEMBER_1_MEMBER_0_MEMBER_0_FILL">
<path fill="#FD81B7" stroke="none" d="
M 397.4 75
Q 397.05 74.7 396.65 75 396.5 75.1 396.5 75.2 396.5 75.35 396.65 75.4 397.05 75.7 397.4 75.4 397.55 75.35 397.55 75.2 397.55 75.1 397.4 75 Z"/>
</g>

<g id="Layer0_0_MEMBER_1_MEMBER_1_MEMBER_0_MEMBER_0_FILL">
<path fill="#FD81B7" stroke="none" d="
M 407.5 69.8
Q 407.35 69.95 407.35 70.05
L 407.3 75
Q 407.3 75.1 407.45 75.25
L 407.55 75.25 407.6 75.3 408.05 75.3 408.05 75.25 408.2 75.25 408.2 75.2 408.25 75.2 408.3 75.15 408.3 75.05 408.35 75.05 408.35 70.05
Q 408.35 69.95 408.2 69.8 407.85 69.65 407.5 69.8 Z"/>
</g>

<g id="Layer0_0_MEMBER_1_MEMBER_1_MEMBER_1_MEMBER_0_FILL">
<path fill="#D12775" stroke="none" d="
M 406.3 66.25
Q 405.66015625 65.90546875 405.65 65.3
L 405.6 71.15
Q 405.6 71.65 406.25 72.05
L 406.6 72.2 406.65 72.25 406.85 72.3 406.95 72.35 407.1 72.35 407.3 72.4 407.5 72.4 407.75 72.45 407.95 72.45 408.2 72.4 408.3 72.4 408.5 72.35 408.55 72.35 408.8 72.3 408.9 72.25 409 72.25 409.5 72 409.6 71.9 409.7 71.85 409.7 71.8 409.8 71.7 409.85 71.7 409.85 71.65 409.95 71.55 409.95 71.45 410 71.45 410 71.3 410.05 71.2 410.05 65.55 410 65.6 410 65.65 409.9 65.75 409.85 65.85 409.85 65.9 409.6 66.15 409.1 66.4 409 66.4 408.7 66.5 408.65 66.5 408.3 66.6 407.4 66.6 407.05 66.5 407 66.5 406.65 66.4 406.6 66.4 406.3 66.25 Z"/>
</g>

<g id="Layer0_0_MEMBER_1_MEMBER_1_MEMBER_2_MEMBER_0_MEMBER_0_FILL">
<path fill="#FD81B7" stroke="none" d="
M 409.4 64.4
Q 408.75 64 407.85 64.05 406.9 64.05 406.25 64.45 405.6 64.8 405.6 65.35 405.65 65.9 406.3 66.25 406.95 66.65 407.85 66.65 408.75 66.65 409.4 66.25 410.05 65.9 410.05 65.35 410.05 64.8 409.4 64.4 Z"/>
</g>

<g id="Layer0_0_MEMBER_1_MEMBER_1_MEMBER_3_MEMBER_0_MEMBER_0_FILL">
<path fill="#D12775" stroke="none" d="
M 407.4 60.35
Q 407.2546875 60.3015625 407.25 60.15
L 407.25 65.25
Q 407.25 65.4 407.4 65.45
L 407.45 65.5 407.65 65.5 407.7 65.55 407.8 65.55 407.85 65.5 408 65.5 408.1 65.45 408.15 65.4 408.2 65.4 408.2 65.35 408.25 65.35 408.3 60.15 408.25 60.2 408.25 60.25 408.2 60.3 408.15 60.3 408.15 60.35 407.75 60.45 407.6 60.4 407.55 60.4 407.4 60.35 Z"/>
</g>

<g id="Layer0_0_MEMBER_1_MEMBER_1_MEMBER_3_MEMBER_1_MEMBER_0_MEMBER_0_FILL">
<path fill="#FD81B7" stroke="none" d="
M 408.15 59.9
Q 407.8 59.7 407.4 59.9 407.05 60.15 407.4 60.35 407.8 60.55 408.15 60.35 408.5 60.15 408.15 59.9 Z"/>
</g>

<g id="Layer0_0_MEMBER_1_MEMBER_2_MEMBER_0_MEMBER_0_FILL">
<path fill="#FD81B7" stroke="none" d="
M 412.8 59.15
Q 412.796875 58.998046875 412.65 58.9 412.25 58.7 411.95 58.9 411.8 59 411.8 59.1
L 411.75 64.1
Q 411.75 64.25 411.9 64.3
L 412 64.35 412.1 64.35 412.15 64.4 412.4 64.4 412.45 64.35 412.55 64.35 412.6 64.3 412.65 64.3 412.75 64.2 412.8 59.15 Z"/>
</g>

<g id="Layer0_0_MEMBER_1_MEMBER_2_MEMBER_1_MEMBER_0_FILL">
<path fill="#D12775" stroke="none" d="
M 411.05 55.5
L 410.7 55.3
Q 410.06015625 54.90625 410.05 54.4
L 410.05 60.2
Q 410.05 60.8 410.7 61.15
L 411.05 61.3 411.1 61.3 411.3 61.4 411.45 61.4 411.55 61.45 411.75 61.45 411.8 61.5 412.75 61.5 412.95 61.45 413 61.45 413.25 61.4 413.45 61.3 413.55 61.3 413.85 61.15 413.85 61.1 413.9 61.1 414 61.05 414.3 60.75 414.35 60.65 414.4 60.6 414.4 60.55 414.45 60.5 414.45 60.3 414.5 60.25 414.5 54.55 414.45 54.6 414.45 54.75 414.3 54.9 414.3 54.95 414.1 55.15 414 55.2 413.95 55.25 413.45 55.5 413.15 55.6 413.1 55.6 412.75 55.65 412.7 55.65 412.3 55.7 412.25 55.7 411.9 55.65 411.85 55.65 411.5 55.6 411.4 55.6 411.1 55.5 411.05 55.5 Z"/>
</g>

<g id="Layer0_0_MEMBER_1_MEMBER_2_MEMBER_2_MEMBER_0_MEMBER_0_FILL">
<path fill="#FD81B7" stroke="none" d="
M 413.85 53.5
Q 413.2 53.15 412.3 53.15 411.35 53.15 410.7 53.5 410.05 53.9 410.05 54.4 410.05 54.95 410.7 55.3 411.4 55.7 412.3 55.7 413.2 55.7 413.85 55.3 414.5 54.95 414.5 54.4 414.5 53.9 413.85 53.5 Z"/>
</g>

<g id="Layer0_0_MEMBER_1_MEMBER_2_MEMBER_3_MEMBER_0_MEMBER_0_FILL">
<path fill="#D12775" stroke="none" d="
M 411.85 49.45
Q 411.70234375 49.30234375 411.7 49.2
L 411.7 54.3
Q 411.7 54.45 411.85 54.5
L 411.95 54.6 412.4 54.6 412.45 54.55 412.55 54.5 412.6 54.5 412.65 54.45 412.65 54.4 412.7 54.4 412.7 49.35 412.65 49.4 412.55 49.4 412.4 49.5 412 49.5 411.85 49.45 Z"/>
</g>

<g id="Layer0_0_MEMBER_1_MEMBER_2_MEMBER_3_MEMBER_1_MEMBER_0_MEMBER_0_FILL">
<path fill="#FD81B7" stroke="none" d="
M 412.55 49
Q 412.2 48.85 411.85 49 411.5 49.2 411.85 49.45 412.25 49.65 412.55 49.4 412.7 49.35 412.7 49.2 412.7 49.1 412.55 49 Z"/>
</g>

<g id="Layer0_0_MEMBER_1_MEMBER_3_MEMBER_0_MEMBER_0_FILL">
<path fill="#FD81B7" stroke="none" d="
M 425.25 67.7
L 425.3 62.6
Q 425.3 62.5 425.15 62.4 424.75 62.1 424.45 62.4 424.3 62.5 424.3 62.6
L 424.25 67.6
Q 424.25 67.75 424.4 67.8
L 424.5 67.8 424.5 67.85 425.05 67.85 425.1 67.8 425.15 67.8 425.15 67.75 425.2 67.75 425.25 67.7 Z"/>
</g>

<g id="Layer0_0_MEMBER_1_MEMBER_3_MEMBER_1_MEMBER_0_FILL">
<path fill="#D12775" stroke="none" d="
M 426.5 58.7
L 426.45 58.75 425.95 59 425.65 59.1 425.6 59.1 425.25 59.15 424.35 59.15 424 59.1 423.9 59.05 423.6 58.95 423.55 58.95 423.2 58.8
Q 422.56015625 58.40625 422.55 57.9
L 422.55 63.7
Q 422.55 64.25 423.2 64.6
L 423.55 64.75 423.6 64.8 423.8 64.85 423.9 64.9 424.05 64.9 424.25 64.95 424.4 64.95 424.45 65 424.9 65 425.15 64.95 425.45 64.95 425.5 64.9 425.75 64.85 425.85 64.85 426.35 64.6 426.4 64.55 426.5 64.5 426.55 64.45 426.65 64.4 426.65 64.35 426.75 64.25 426.8 64.25 426.8 64.2 426.85 64.15 426.85 64.1 426.9 64.1 426.9 64.05 426.95 64 426.95 63.8 427 63.75 427 58.05 426.95 58.1 426.95 58.2 426.9 58.3 426.8 58.4 426.8 58.45 426.6 58.65 426.5 58.7 Z"/>
</g>

<g id="Layer0_0_MEMBER_1_MEMBER_3_MEMBER_2_MEMBER_0_MEMBER_0_FILL">
<path fill="#FD81B7" stroke="none" d="
M 426.35 57
Q 425.7 56.65 424.8 56.65 423.85 56.65 423.2 57 422.55 57.4 422.55 57.9 422.55 58.45 423.2 58.8 423.9 59.2 424.8 59.2 425.7 59.2 426.35 58.8 427 58.45 427 57.9 427 57.4 426.35 57 Z"/>
</g>

<g id="Layer0_0_MEMBER_1_MEMBER_3_MEMBER_3_MEMBER_0_MEMBER_0_FILL">
<path fill="#D12775" stroke="none" d="
M 425.2 52.8
L 425.1 52.9 425.05 52.9
Q 425.05 52.95 424.9 52.95
L 424.7 53 424.35 52.9
Q 424.2046875 52.8515625 424.2 52.7
L 424.2 57.8
Q 424.2 57.95 424.35 58
L 424.4 58.05 424.5 58.05 424.55 58.1 424.85 58.1 424.9 58.05 424.95 58.05 425.05 58 425.1 58 425.15 57.95 425.15 57.9 425.2 57.9 425.2 52.8 Z"/>
</g>

<g id="Layer0_0_MEMBER_1_MEMBER_3_MEMBER_3_MEMBER_1_MEMBER_0_MEMBER_0_FILL">
<path fill="#FD81B7" stroke="none" d="
M 425.05 52.5
Q 424.7 52.25 424.35 52.5 424.2 52.6 424.2 52.7 424.2 52.85 424.35 52.9 424.7 53.1 425.05 52.9 425.2 52.85 425.2 52.7 425.2 52.6 425.05 52.5 Z"/>
</g>

<g id="Layer0_0_MEMBER_1_MEMBER_4_MEMBER_0_MEMBER_0_FILL">
<path fill="#FD81B7" stroke="none" d="
M 429.7 72.6
Q 429.75 72.5 429.6 72.35 429.25 72.15 428.85 72.35 428.7 72.45 428.7 72.55
L 428.7 77.55
Q 428.7 77.7 428.85 77.75
L 428.95 77.8 429 77.85 429.45 77.85 429.45 77.8 429.55 77.75 429.6 77.75 429.7 77.65 429.75 72.55 429.7 72.6 Z"/>
</g>

<g id="Layer0_0_MEMBER_1_MEMBER_4_MEMBER_1_MEMBER_0_FILL">
<path fill="#D12775" stroke="none" d="
M 431.45 67.95
L 431.4 68 431.4 68.15 431.35 68.2 431.35 68.25 431.3 68.3 431.25 68.4 431 68.65 430.95 68.65 430.9 68.75 430.5 68.95 430.4 68.95 430.1 69.05 430.05 69.05 429.7 69.15 428.8 69.15 428.45 69.05 428.35 69.05 428.05 68.95 428 68.95 427.65 68.8
Q 427.01015625 68.40625 427 67.85
L 427 73.7
Q 427 74.25 427.65 74.6
L 427.95 74.75 428 74.75 428.05 74.8 428.25 74.85 428.35 74.85 428.4 74.9 428.45 74.9 428.7 74.95 429.7 74.95 429.85 74.9 429.95 74.9 430.2 74.85 430.3 74.8 430.4 74.8 430.45 74.75 430.8 74.6 430.85 74.55 430.95 74.5 431.05 74.4 431.1 74.4 431.1 74.35 431.3 74.15 431.3 74.1 431.35 74 431.35 73.95 431.4 73.9 431.45 67.95 Z"/>
</g>

<g id="Layer0_0_MEMBER_1_MEMBER_4_MEMBER_2_MEMBER_0_MEMBER_0_FILL">
<path fill="#FD81B7" stroke="none" d="
M 430.8 66.95
Q 430.15 66.6 429.2 66.6 428.3 66.6 427.65 66.95 427 67.35 427 67.9 427 68.45 427.65 68.8 428.35 69.2 429.25 69.2 430.15 69.2 430.8 68.8 431.45 68.45 431.45 67.9 431.45 67.35 430.8 66.95 Z"/>
</g>

<g id="Layer0_0_MEMBER_1_MEMBER_4_MEMBER_3_MEMBER_0_MEMBER_0_FILL">
<path fill="#D12775" stroke="none" d="
M 428.8 62.9
Q 428.65234375 62.85078125 428.65 62.7
L 428.6 67.75
Q 428.6 67.95 428.75 68
L 428.85 68 428.9 68.05 429.4 68.05 429.5 68 429.6 67.9 429.6 67.85 429.65 67.85 429.65 62.8 429.6 62.8 429.6 62.85 429.55 62.85 429.5 62.9 429.15 63 428.8 62.9 Z"/>
</g>

<g id="Layer0_0_MEMBER_1_MEMBER_4_MEMBER_3_MEMBER_1_MEMBER_0_MEMBER_0_FILL">
<path fill="#FD81B7" stroke="none" d="
M 429.5 62.45
Q 429.15 62.3 428.8 62.45 428.45 62.7 428.8 62.9 429.15 63.1 429.5 62.9 429.85 62.7 429.5 62.45 Z"/>
</g>

<g id="Layer0_0_MEMBER_1_MEMBER_5_MEMBER_0_FILL">
<path fill="#6E9A1F" stroke="none" d="
M 1 6.3
Q 1.2 6.25 1.2 6.05
L 1.2 0
Q 1.1953125 0.2015625 1.05 0.25 0.6 0.55 0.2 0.25 0.00625 0.2015625 0 0
L 0 6.05
Q 0 6.25 0.15 6.3 0.6 6.6 1 6.3 Z"/>
</g>

<g id="Layer0_0_MEMBER_1_MEMBER_5_MEMBER_2_MEMBER_0_FILL">
<path fill="#61761E" stroke="none" d="
M 1.25 0.35
Q 1.25 0.2 1.05 0.1 0.6 -0.1 0.15 0.1 0 0.2 0 0.35 0 0.55 0.2 0.6 0.6 0.9 1.05 0.6 1.25 0.55 1.25 0.35 Z"/>
</g>

<g id="Layer0_0_MEMBER_1_MEMBER_5_MEMBER_3_MEMBER_0_FILL">
<path fill="#9BBB30" stroke="none" d="
M 393.4 86.55
L 393.35 86.6 393.3 86.7 393 87 392.4 87.3 391.7 87.45 391.6 87.45 391.25 87.5 391.15 87.5 390.8 87.45 390.75 87.45 390.35 87.4 390.3 87.35 390 87.3 389.55 87.1
Q 388.91015625 86.75546875 388.9 86.15
L 388.85 96.2
Q 388.85 96.75 389.55 97.15
L 389.85 97.35 389.95 97.35 390.15 97.4 390.25 97.45 390.35 97.45 390.4 97.5 390.6 97.5 390.7 97.55 391.65 97.55 391.85 97.5 391.95 97.5 392.15 97.4 392.3 97.4 392.4 97.35 392.45 97.3
Q 392.65 97.3 392.8 97.15
L 392.9 97.1 392.95 97.05 393.05 97 393.25 96.8 393.25 96.75 393.35 96.7 393.35 96.65 393.4 96.55 393.4 96.5 393.45 96.45 393.5 86.3 393.45 86.35 393.45 86.4 393.4 86.5 393.4 86.55 Z"/>
</g>

<g id="Layer0_0_MEMBER_1_MEMBER_5_MEMBER_4_MEMBER_0_MEMBER_0_FILL">
<path fill="#6E9A1F" stroke="none" d="
M 392.8 85.2
Q 392.15 84.85 391.2 84.85 390.25 84.85 389.55 85.2 388.9 85.6 388.9 86.15 388.9 86.7 389.55 87.1 390.25 87.5 391.2 87.5 392.15 87.5 392.8 87.1 393.5 86.7 393.5 86.15 393.5 85.6 392.8 85.2 Z"/>
</g>

<g id="Layer0_0_MEMBER_1_MEMBER_5_MEMBER_5_FILL">
<path fill="#6E9A1F" stroke="none" d="
M 1.25 6.05
L 1.25 0
Q 1.2453125 0.2015625 1.1 0.25 0.65 0.5 0.2 0.25 0.0546875 0.2015625 0.05 0
L 0 6.05
Q 0 6.2 0.2 6.3 0.65 6.6 1.05 6.3 1.25 6.25 1.25 6.05 Z"/>
</g>

<g id="Layer0_0_MEMBER_1_MEMBER_5_MEMBER_13_MEMBER_0_FILL">
<path fill="#9BBB30" stroke="none" d="
M 1.05 6.3
L 1.1 0.25 0.95 0.35 0.95 6.4 1.05 6.3 Z"/>
</g>

<g id="Layer0_0_MEMBER_1_MEMBER_5_MEMBER_14_MEMBER_0_FILL">
<path fill="#9BBB30" stroke="none" d="
M 0.95 6.4
L 0.95 0.35 0.85 0.35 0.8 6.4 0.95 6.4 Z"/>
</g>

<g id="Layer0_0_MEMBER_1_MEMBER_5_MEMBER_23_MEMBER_0_FILL">
<path fill="#9BBB30" stroke="none" d="
M 0.3 6.35
L 0.3 0.3 0.2 0.25
Q 0.0546875 0.2015625 0.05 0
L 0 6.05
Q 0 6.2 0.2 6.3
L 0.3 6.35 Z"/>
</g>

<g id="Layer0_0_MEMBER_1_MEMBER_5_MEMBER_25_MEMBER_0_MEMBER_0_FILL">
<path fill="#6E9A1F" stroke="none" d="
M 391.65 79.95
Q 391.2 79.75 390.75 79.95 390.35 80.25 390.75 80.45 391.2 80.7 391.65 80.45 392.05 80.25 391.65 79.95 Z"/>
</g>

<g id="Layer0_0_MEMBER_1_MEMBER_6_MEMBER_0_FILL">
<path fill="#FDB02B" stroke="none" d="
M 418.65 73.6
L 430 92.4 434.7 84.1 443.05 87.2 447.8 81.5 453.7 81.5 462.2 59.35 465.4 71.15 477.55 63.8 477 62.95 466 69.6 462.35 56.15 453 80.5 447.3 80.5 442.75 86 434.2 82.85 430 90.4 418.05 70.75 413.55 100.45 407.05 97.65 402.9 107.95 396.6 100.15 390.7 116.6 391.65 116.95 396.95 102.15 403.2 109.95 407.6 99 414.35 101.85 418.65 73.6 Z"/>
</g>

<g id="Layer0_0_MEMBER_1_MEMBER_7_MEMBER_0_MEMBER_0_FILL">
<path fill="#FD81B7" stroke="none" d="
M 461 50.05
Q 460.99765625 49.94765625 460.85 49.8 460.5 49.65 460.15 49.8 460 49.9 460 50
L 459.95 55
Q 459.95 55.15 460.1 55.2
L 460.2 55.25 460.25 55.25 460.3 55.3 460.65 55.3 460.7 55.25 460.75 55.25 460.85 55.2 460.9 55.15 460.95 55.15 460.95 55.05 461 55.05 461 50.05 Z"/>
</g>

<g id="Layer0_0_MEMBER_1_MEMBER_7_MEMBER_1_MEMBER_0_FILL">
<path fill="#D12775" stroke="none" d="
M 458.95 46.25
Q 458.31015625 45.90546875 458.3 45.3
L 458.25 51.15
Q 458.25 51.65 458.9 52.05
L 459.25 52.2 459.3 52.25 459.5 52.3 459.6 52.3 459.7 52.35 459.75 52.35 459.95 52.4 460.95 52.4 461.15 52.35 461.2 52.35 461.45 52.3 461.55 52.25 461.65 52.25 462.15 52 462.25 51.9 462.35 51.85 462.4 51.8 462.45 51.7 462.5 51.7 462.5 51.65 462.6 51.55 462.6 51.45 462.65 51.4 462.65 51.35 462.7 51.3 462.7 45.5 462.65 45.6 462.65 45.65 462.55 45.75 462.5 45.85 462.5 45.9 462.4 46 462.35 46 462.25 46.1 462.15 46.15 462.05 46.25 461.75 46.4 461.65 46.4 461.35 46.5 461.3 46.5 460.95 46.55 460.9 46.6 460.05 46.6 459.7 46.5 459.65 46.5 459.3 46.4 459.25 46.4 458.95 46.25 Z"/>
</g>

<g id="Layer0_0_MEMBER_1_MEMBER_7_MEMBER_2_MEMBER_0_MEMBER_0_FILL">
<path fill="#FD81B7" stroke="none" d="
M 462.05 44.4
Q 461.4 44.05 460.5 44.05 459.6 44.05 458.9 44.4 458.25 44.8 458.25 45.35 458.3 45.9 458.95 46.25 459.6 46.65 460.5 46.65 461.4 46.65 462.05 46.25 462.7 45.9 462.7 45.35 462.7 44.8 462.05 44.4 Z"/>
</g>

<g id="Layer0_0_MEMBER_1_MEMBER_7_MEMBER_3_MEMBER_0_MEMBER_0_FILL">
<path fill="#D12775" stroke="none" d="
M 460.95 40.2
L 460.9 40.2 460.9 40.25 460.85 40.3 460.8 40.3 460.8 40.35 460.65 40.4 460.6 40.4 460.4 40.45 460.25 40.4 460.2 40.4 460.05 40.35
Q 459.9046875 40.3015625 459.9 40.15
L 459.9 45.2
Q 459.9 45.4 460.05 45.45
L 460.1 45.45 460.2 45.5 460.65 45.5 460.75 45.45 460.8 45.4 460.85 45.4 460.85 45.35 460.9 45.35 460.95 40.2 Z"/>
</g>

<g id="Layer0_0_MEMBER_1_MEMBER_7_MEMBER_3_MEMBER_1_MEMBER_0_MEMBER_0_FILL">
<path fill="#FD81B7" stroke="none" d="
M 460.8 39.9
Q 460.45 39.7 460.05 39.9 459.75 40.15 460.05 40.35 460.45 40.55 460.8 40.35 461.1 40.15 460.8 39.9 Z"/>
</g>

<g id="Layer0_0_MEMBER_1_MEMBER_8_MEMBER_0_MEMBER_0_FILL">
<path fill="#FD81B7" stroke="none" d="
M 466.85 56.9
Q 466.95 56.75 466.75 56.65 466.4 56.45 466 56.65 465.85 56.75 465.85 56.85
L 465.85 61.85
Q 465.85 62 466 62.05
L 466.1 62.1 466.2 62.1 466.25 62.15 466.5 62.15 466.55 62.1 466.6 62.1 466.7 62.05 466.75 62.05 466.8 62 466.8 61.95 466.85 61.95 466.9 56.85 466.85 56.9 Z"/>
</g>

<g id="Layer0_0_MEMBER_1_MEMBER_8_MEMBER_1_MEMBER_0_FILL">
<path fill="#D12775" stroke="none" d="
M 468.5 52.5
L 468.5 52.55 468.25 52.8 468.25 52.85 468.15 52.9 468.05 53 467.55 53.25 467.25 53.35 467.2 53.35 466.85 53.4 466.8 53.4 466.4 53.45 466.35 53.45 466 53.4 465.95 53.4 465.6 53.35 465.5 53.35 465.2 53.25 465.15 53.2
Q 464.95 53.2 464.8 53.05 464.16015625 52.65625 464.15 52.15
L 464.15 57.95
Q 464.15 58.55 464.8 58.9
L 465.1 59.05 465.2 59.05 465.4 59.15 465.55 59.15 465.6 59.2 465.85 59.2 465.9 59.25 466.85 59.25 467 59.2 467.1 59.2 467.35 59.15 467.55 59.05 467.6 59.05 467.95 58.9 467.95 58.85 468 58.85 468.1 58.8 468.15 58.75 468.2 58.65 468.25 58.65 468.35 58.55 468.35 58.5 468.4 58.5 468.45 58.4 468.45 58.35 468.5 58.3 468.5 58.25 468.55 58.15 468.6 52.25 468.55 52.3 468.55 52.4 468.5 52.5 Z"/>
</g>

<g id="Layer0_0_MEMBER_1_MEMBER_8_MEMBER_2_MEMBER_0_MEMBER_0_FILL">
<path fill="#FD81B7" stroke="none" d="
M 467.95 51.25
Q 467.3 50.9 466.35 50.9 465.45 50.9 464.8 51.25 464.15 51.65 464.15 52.15 464.15 52.7 464.8 53.05 465.5 53.45 466.4 53.45 467.3 53.45 467.95 53.05 468.6 52.7 468.6 52.15 468.6 51.65 467.95 51.25 Z"/>
</g>

<g id="Layer0_0_MEMBER_1_MEMBER_8_MEMBER_3_MEMBER_0_MEMBER_0_FILL">
<path fill="#D12775" stroke="none" d="
M 465.95 47.2
Q 465.80234375 47.05234375 465.8 46.95
L 465.75 52.05
Q 465.75 52.2 465.9 52.25
L 466 52.3 466.05 52.35 466.5 52.35 466.55 52.3 466.65 52.25 466.7 52.25 466.7 52.2 466.75 52.2 466.75 52.15 466.8 52.1 466.8 47.05 466.7 47.15 466.65 47.15 466.5 47.25 466.1 47.25 465.95 47.2 Z"/>
</g>

<g id="Layer0_0_MEMBER_1_MEMBER_8_MEMBER_3_MEMBER_1_MEMBER_0_MEMBER_0_FILL">
<path fill="#FD81B7" stroke="none" d="
M 466.65 46.75
Q 466.3 46.6 465.95 46.75 465.6 46.95 465.95 47.2 466.35 47.4 466.65 47.15 466.8 47.1 466.8 46.95 466.8 46.85 466.65 46.75 Z"/>
</g>

<g id="Layer0_0_MEMBER_1_MEMBER_9_MEMBER_0_MEMBER_0_FILL">
<path fill="#FD81B7" stroke="none" d="
M 472.35 59.35
Q 472.20234375 59.49765625 472.2 59.6
L 472.15 64.55
Q 472.15 64.7 472.3 64.75
L 472.4 64.8 472.45 64.85 472.9 64.85 472.9 64.8 472.95 64.8 473.05 64.75 473.1 64.75 473.15 64.7 473.15 64.6 473.2 64.55 473.2 59.6
Q 473.2 59.5 473.05 59.35 472.65 59.15 472.35 59.35 Z"/>
</g>

<g id="Layer0_0_MEMBER_1_MEMBER_9_MEMBER_1_MEMBER_0_FILL">
<path fill="#D12775" stroke="none" d="
M 474.9 55
L 474.85 55.1 474.85 55.2 474.75 55.3 474.7 55.4 474.7 55.45 474.5 55.65 474.4 55.7 474.35 55.75 473.95 55.95 473.85 55.95 473.55 56.05 473.5 56.05 473.15 56.15 472.25 56.15 471.9 56.05 471.85 56.05 471.5 55.95 471.45 55.95 471.15 55.8
Q 470.4609375 55.40625 470.45 54.85
L 470.45 60.7
Q 470.45 61.2 471.1 61.6
L 471.45 61.75 471.5 61.8 471.7 61.85 471.8 61.85 471.85 61.9 471.95 61.9 472.15 61.95 472.35 61.95 472.6 62 472.8 62 473.05 61.95 473.15 61.95 473.35 61.9 473.4 61.9 473.65 61.85 473.75 61.8 473.85 61.8 474.25 61.6 474.3 61.55 474.4 61.5 474.45 61.45 474.55 61.4 474.55 61.35 474.65 61.25 474.7 61.25 474.7 61.2 474.75 61.15 474.75 61.1 474.8 61.1 474.8 61 474.85 61 474.85 60.85 474.9 60.75 474.9 55 Z"/>
</g>

<g id="Layer0_0_MEMBER_1_MEMBER_9_MEMBER_2_MEMBER_0_MEMBER_0_FILL">
<path fill="#FD81B7" stroke="none" d="
M 474.25 53.95
Q 473.6 53.6 472.7 53.6 471.8 53.6 471.1 53.95 470.45 54.35 470.45 54.9 470.5 55.45 471.15 55.8 471.8 56.2 472.7 56.2 473.6 56.2 474.25 55.8 474.9 55.45 474.9 54.9 474.9 54.35 474.25 53.95 Z"/>
</g>

<g id="Layer0_0_MEMBER_1_MEMBER_9_MEMBER_3_MEMBER_0_MEMBER_0_FILL">
<path fill="#D12775" stroke="none" d="
M 473.15 49.7
L 473.1 49.75 473.1 49.8 473.05 49.85 473 49.85 473 49.9 472.6 50 472.45 49.95 472.4 49.95 472.25 49.9
Q 472.1046875 49.8515625 472.1 49.7
L 472.1 54.8
Q 472.1 54.95 472.25 55
L 472.3 55.05 472.5 55.05 472.55 55.1 472.65 55.1 472.7 55.05 472.85 55.05 472.95 55 473 54.95 473.05 54.95 473.05 54.9 473.1 54.9 473.15 49.7 Z"/>
</g>

<g id="Layer0_0_MEMBER_1_MEMBER_9_MEMBER_3_MEMBER_1_MEMBER_0_MEMBER_0_FILL">
<path fill="#FD81B7" stroke="none" d="
M 473 49.45
Q 472.6 49.3 472.25 49.45 471.9 49.7 472.25 49.9 472.65 50.1 473 49.9 473.35 49.7 473 49.45 Z"/>
</g>

<g id="Layer0_0_MEMBER_1_MEMBER_10_MEMBER_0_FILL">
<path fill="#6E9A1F" stroke="none" d="
M 1.2 6.05
L 1.2 0
Q 1.1953125 0.2015625 1.05 0.25 0.6 0.55 0.2 0.25 0.00625 0.2015625 0 0
L 0 6.05
Q 0 6.25 0.15 6.3 0.6 6.6 1 6.3 1.2 6.25 1.2 6.05 Z"/>
</g>

<g id="Layer0_0_MEMBER_1_MEMBER_10_MEMBER_1_MEMBER_0_FILL">
<path fill="#61761E" stroke="none" d="
M 1.05 0.1
Q 0.6 -0.1 0.15 0.1 0 0.2 0 0.35 0 0.55 0.2 0.6 0.6 0.9 1.05 0.6 1.25 0.55 1.25 0.35 1.25 0.2 1.05 0.1 Z"/>
</g>

<g id="Layer0_0_MEMBER_1_MEMBER_10_MEMBER_2_MEMBER_0_FILL">
<path fill="#9BBB30" stroke="none" d="
M 393.4 86.55
L 393.35 86.6 393.3 86.7 393 87 392.4 87.3 391.7 87.45 391.6 87.45 391.25 87.5 391.15 87.5 390.8 87.45 390.75 87.45 390.35 87.4 390.3 87.35 390 87.3 389.55 87.1
Q 388.91015625 86.75546875 388.9 86.15
L 388.85 96.2
Q 388.85 96.75 389.55 97.15
L 389.85 97.35 389.95 97.35 390.15 97.4 390.25 97.45 390.35 97.45 390.4 97.5 390.6 97.5 390.7 97.55 391.65 97.55 391.85 97.5 391.95 97.5 392.15 97.4 392.3 97.4 392.4 97.35 392.45 97.3
Q 392.65 97.3 392.8 97.15
L 392.9 97.1 392.95 97.05 393.05 97 393.25 96.8 393.25 96.75 393.35 96.7 393.35 96.65 393.4 96.55 393.4 96.5 393.45 96.45 393.5 86.3 393.45 86.35 393.45 86.4 393.4 86.5 393.4 86.55 Z"/>
</g>

<g id="Layer0_0_MEMBER_1_MEMBER_10_MEMBER_3_MEMBER_0_MEMBER_0_FILL">
<path fill="#6E9A1F" stroke="none" d="
M 392.8 85.2
Q 392.15 84.85 391.2 84.85 390.25 84.85 389.55 85.2 388.9 85.6 388.9 86.15 388.9 86.7 389.55 87.1 390.25 87.5 391.2 87.5 392.15 87.5 392.8 87.1 393.5 86.7 393.5 86.15 393.5 85.6 392.8 85.2 Z"/>
</g>

<g id="Layer0_0_MEMBER_1_MEMBER_10_MEMBER_4_FILL">
<path fill="#6E9A1F" stroke="none" d="
M 1.25 6.05
L 1.25 0
Q 1.2453125 0.2015625 1.1 0.25 0.65 0.5 0.2 0.25 0.0546875 0.2015625 0.05 0
L 0 6.05
Q 0 6.2 0.2 6.3 0.65 6.6 1.05 6.3 1.25 6.25 1.25 6.05 Z"/>
</g>

<g id="Layer0_0_MEMBER_1_MEMBER_10_MEMBER_5_MEMBER_0_FILL">
<path fill="#9BBB30" stroke="none" d="
M 1.1 0.25
L 0.95 0.35 0.95 6.4 1.05 6.3 1.1 0.25 Z"/>
</g>

<g id="Layer0_0_MEMBER_1_MEMBER_10_MEMBER_6_MEMBER_0_FILL">
<path fill="#9BBB30" stroke="none" d="
M 0.95 0.35
L 0.85 0.35 0.8 6.4 0.95 6.4 0.95 0.35 Z"/>
</g>

<g id="Layer0_0_MEMBER_1_MEMBER_10_MEMBER_7_MEMBER_0_FILL">
<path fill="#9BBB30" stroke="none" d="
M 0.3 0.3
L 0.2 0.25
Q 0.0546875 0.2015625 0.05 0
L 0 6.05
Q 0 6.2 0.2 6.3
L 0.3 6.35 0.3 0.3 Z"/>
</g>

<g id="Layer0_0_MEMBER_1_MEMBER_10_MEMBER_8_MEMBER_0_MEMBER_0_FILL">
<path fill="#6E9A1F" stroke="none" d="
M 391.65 79.95
Q 391.2 79.75 390.75 79.95 390.35 80.25 390.75 80.45 391.2 80.7 391.65 80.45 392.05 80.25 391.65 79.95 Z"/>
</g>

<g id="Layer0_0_MEMBER_1_MEMBER_11_MEMBER_0_FILL">
<path fill="#6E9A1F" stroke="none" d="
M 1.2 6.05
L 1.2 0
Q 1.1953125 0.2015625 1.05 0.25 0.6 0.55 0.2 0.25 0.00625 0.2015625 0 0
L 0 6.05
Q 0 6.25 0.15 6.3 0.6 6.6 1 6.3 1.2 6.25 1.2 6.05 Z"/>
</g>

<g id="Layer0_0_MEMBER_1_MEMBER_11_MEMBER_1_MEMBER_0_FILL">
<path fill="#61761E" stroke="none" d="
M 1.05 0.1
Q 0.6 -0.1 0.15 0.1 0 0.2 0 0.35 0 0.55 0.2 0.6 0.6 0.9 1.05 0.6 1.25 0.55 1.25 0.35 1.25 0.2 1.05 0.1 Z"/>
</g>

<g id="Layer0_0_MEMBER_1_MEMBER_11_MEMBER_2_MEMBER_0_FILL">
<path fill="#9BBB30" stroke="none" d="
M 393.4 86.55
L 393.35 86.6 393.3 86.7 393 87 392.4 87.3 391.7 87.45 391.6 87.45 391.25 87.5 391.15 87.5 390.8 87.45 390.75 87.45 390.35 87.4 390.3 87.35 390 87.3 389.55 87.1
Q 388.91015625 86.75546875 388.9 86.15
L 388.85 96.2
Q 388.85 96.75 389.55 97.15
L 389.85 97.35 389.95 97.35 390.15 97.4 390.25 97.45 390.35 97.45 390.4 97.5 390.6 97.5 390.7 97.55 391.65 97.55 391.85 97.5 391.95 97.5 392.15 97.4 392.3 97.4 392.4 97.35 392.45 97.3
Q 392.65 97.3 392.8 97.15
L 392.9 97.1 392.95 97.05 393.05 97 393.25 96.8 393.25 96.75 393.35 96.7 393.35 96.65 393.4 96.55 393.4 96.5 393.45 96.45 393.5 86.3 393.45 86.35 393.45 86.4 393.4 86.5 393.4 86.55 Z"/>
</g>

<g id="Layer0_0_MEMBER_1_MEMBER_11_MEMBER_3_MEMBER_0_MEMBER_0_FILL">
<path fill="#6E9A1F" stroke="none" d="
M 392.8 85.2
Q 392.15 84.85 391.2 84.85 390.25 84.85 389.55 85.2 388.9 85.6 388.9 86.15 388.9 86.7 389.55 87.1 390.25 87.5 391.2 87.5 392.15 87.5 392.8 87.1 393.5 86.7 393.5 86.15 393.5 85.6 392.8 85.2 Z"/>
</g>

<g id="Layer0_0_MEMBER_1_MEMBER_11_MEMBER_4_FILL">
<path fill="#6E9A1F" stroke="none" d="
M 1.25 6.05
L 1.25 0
Q 1.2453125 0.2015625 1.1 0.25 0.65 0.5 0.2 0.25 0.0546875 0.2015625 0.05 0
L 0 6.05
Q 0 6.2 0.2 6.3 0.65 6.6 1.05 6.3 1.25 6.25 1.25 6.05 Z"/>
</g>

<g id="Layer0_0_MEMBER_1_MEMBER_11_MEMBER_5_MEMBER_0_FILL">
<path fill="#9BBB30" stroke="none" d="
M 1.1 0.25
L 0.95 0.35 0.95 6.4 1.05 6.3 1.1 0.25 Z"/>
</g>

<g id="Layer0_0_MEMBER_1_MEMBER_11_MEMBER_6_MEMBER_0_FILL">
<path fill="#9BBB30" stroke="none" d="
M 0.95 0.35
L 0.85 0.35 0.8 6.4 0.95 6.4 0.95 0.35 Z"/>
</g>

<g id="Layer0_0_MEMBER_1_MEMBER_11_MEMBER_7_MEMBER_0_FILL">
<path fill="#9BBB30" stroke="none" d="
M 0.3 0.3
L 0.2 0.25
Q 0.0546875 0.2015625 0.05 0
L 0 6.05
Q 0 6.2 0.2 6.3
L 0.3 6.35 0.3 0.3 Z"/>
</g>

<g id="Layer0_0_MEMBER_1_MEMBER_11_MEMBER_8_MEMBER_0_MEMBER_0_FILL">
<path fill="#6E9A1F" stroke="none" d="
M 391.65 79.95
Q 391.2 79.75 390.75 79.95 390.35 80.25 390.75 80.45 391.2 80.7 391.65 80.45 392.05 80.25 391.65 79.95 Z"/>
</g>

<g id="Layer0_0_MEMBER_1_MEMBER_12_MEMBER_0_FILL">
<path fill="#6E9A1F" stroke="none" d="
M 1.2 6.05
L 1.2 0
Q 1.1953125 0.2015625 1.05 0.25 0.6 0.55 0.2 0.25 0.00625 0.2015625 0 0
L 0 6.05
Q 0 6.25 0.15 6.3 0.6 6.6 1 6.3 1.2 6.25 1.2 6.05 Z"/>
</g>

<g id="Layer0_0_MEMBER_1_MEMBER_12_MEMBER_1_MEMBER_0_FILL">
<path fill="#61761E" stroke="none" d="
M 1.05 0.1
Q 0.6 -0.1 0.15 0.1 0 0.2 0 0.35 0 0.55 0.2 0.6 0.6 0.9 1.05 0.6 1.25 0.55 1.25 0.35 1.25 0.2 1.05 0.1 Z"/>
</g>

<g id="Layer0_0_MEMBER_1_MEMBER_12_MEMBER_2_MEMBER_0_FILL">
<path fill="#9BBB30" stroke="none" d="
M 393.4 86.55
L 393.35 86.6 393.3 86.7 393 87 392.4 87.3 391.7 87.45 391.6 87.45 391.25 87.5 391.15 87.5 390.8 87.45 390.75 87.45 390.35 87.4 390.3 87.35 390 87.3 389.55 87.1
Q 388.91015625 86.75546875 388.9 86.15
L 388.85 96.2
Q 388.85 96.75 389.55 97.15
L 389.85 97.35 389.95 97.35 390.15 97.4 390.25 97.45 390.35 97.45 390.4 97.5 390.6 97.5 390.7 97.55 391.65 97.55 391.85 97.5 391.95 97.5 392.15 97.4 392.3 97.4 392.4 97.35 392.45 97.3
Q 392.65 97.3 392.8 97.15
L 392.9 97.1 392.95 97.05 393.05 97 393.25 96.8 393.25 96.75 393.35 96.7 393.35 96.65 393.4 96.55 393.4 96.5 393.45 96.45 393.5 86.3 393.45 86.35 393.45 86.4 393.4 86.5 393.4 86.55 Z"/>
</g>

<g id="Layer0_0_MEMBER_1_MEMBER_12_MEMBER_3_MEMBER_0_MEMBER_0_FILL">
<path fill="#6E9A1F" stroke="none" d="
M 392.8 85.2
Q 392.15 84.85 391.2 84.85 390.25 84.85 389.55 85.2 388.9 85.6 388.9 86.15 388.9 86.7 389.55 87.1 390.25 87.5 391.2 87.5 392.15 87.5 392.8 87.1 393.5 86.7 393.5 86.15 393.5 85.6 392.8 85.2 Z"/>
</g>

<g id="Layer0_0_MEMBER_1_MEMBER_12_MEMBER_4_FILL">
<path fill="#6E9A1F" stroke="none" d="
M 1.25 6.05
L 1.25 0
Q 1.2453125 0.2015625 1.1 0.25 0.65 0.5 0.2 0.25 0.0546875 0.2015625 0.05 0
L 0 6.05
Q 0 6.2 0.2 6.3 0.65 6.6 1.05 6.3 1.25 6.25 1.25 6.05 Z"/>
</g>

<g id="Layer0_0_MEMBER_1_MEMBER_12_MEMBER_5_MEMBER_0_FILL">
<path fill="#9BBB30" stroke="none" d="
M 1.1 0.25
L 0.95 0.35 0.95 6.4 1.05 6.3 1.1 0.25 Z"/>
</g>

<g id="Layer0_0_MEMBER_1_MEMBER_12_MEMBER_6_MEMBER_0_FILL">
<path fill="#9BBB30" stroke="none" d="
M 0.95 0.35
L 0.85 0.35 0.8 6.4 0.95 6.4 0.95 0.35 Z"/>
</g>

<g id="Layer0_0_MEMBER_1_MEMBER_12_MEMBER_7_MEMBER_0_FILL">
<path fill="#9BBB30" stroke="none" d="
M 0.3 0.3
L 0.2 0.25
Q 0.0546875 0.2015625 0.05 0
L 0 6.05
Q 0 6.2 0.2 6.3
L 0.3 6.35 0.3 0.3 Z"/>
</g>

<g id="Layer0_0_MEMBER_1_MEMBER_12_MEMBER_8_MEMBER_0_MEMBER_0_FILL">
<path fill="#6E9A1F" stroke="none" d="
M 391.65 79.95
Q 391.2 79.75 390.75 79.95 390.35 80.25 390.75 80.45 391.2 80.7 391.65 80.45 392.05 80.25 391.65 79.95 Z"/>
</g>

<g id="Layer0_0_MEMBER_1_MEMBER_13_MEMBER_0_FILL">
<path fill="#6E9A1F" stroke="none" d="
M 1.2 6.05
L 1.2 0
Q 1.1953125 0.2015625 1.05 0.25 0.6 0.55 0.2 0.25 0.00625 0.2015625 0 0
L 0 6.05
Q 0 6.25 0.15 6.3 0.6 6.6 1 6.3 1.2 6.25 1.2 6.05 Z"/>
</g>

<g id="Layer0_0_MEMBER_1_MEMBER_13_MEMBER_1_MEMBER_0_FILL">
<path fill="#61761E" stroke="none" d="
M 1.05 0.1
Q 0.6 -0.1 0.15 0.1 0 0.2 0 0.35 0 0.55 0.2 0.6 0.6 0.9 1.05 0.6 1.25 0.55 1.25 0.35 1.25 0.2 1.05 0.1 Z"/>
</g>

<g id="Layer0_0_MEMBER_1_MEMBER_13_MEMBER_2_MEMBER_0_FILL">
<path fill="#9BBB30" stroke="none" d="
M 393.4 86.55
L 393.35 86.6 393.3 86.7 393 87 392.4 87.3 391.7 87.45 391.6 87.45 391.25 87.5 391.15 87.5 390.8 87.45 390.75 87.45 390.35 87.4 390.3 87.35 390 87.3 389.55 87.1
Q 388.91015625 86.75546875 388.9 86.15
L 388.85 96.2
Q 388.85 96.75 389.55 97.15
L 389.85 97.35 389.95 97.35 390.15 97.4 390.25 97.45 390.35 97.45 390.4 97.5 390.6 97.5 390.7 97.55 391.65 97.55 391.85 97.5 391.95 97.5 392.15 97.4 392.3 97.4 392.4 97.35 392.45 97.3
Q 392.65 97.3 392.8 97.15
L 392.9 97.1 392.95 97.05 393.05 97 393.25 96.8 393.25 96.75 393.35 96.7 393.35 96.65 393.4 96.55 393.4 96.5 393.45 96.45 393.5 86.3 393.45 86.35 393.45 86.4 393.4 86.5 393.4 86.55 Z"/>
</g>

<g id="Layer0_0_MEMBER_1_MEMBER_13_MEMBER_3_MEMBER_0_MEMBER_0_FILL">
<path fill="#6E9A1F" stroke="none" d="
M 392.8 85.2
Q 392.15 84.85 391.2 84.85 390.25 84.85 389.55 85.2 388.9 85.6 388.9 86.15 388.9 86.7 389.55 87.1 390.25 87.5 391.2 87.5 392.15 87.5 392.8 87.1 393.5 86.7 393.5 86.15 393.5 85.6 392.8 85.2 Z"/>
</g>

<g id="Layer0_0_MEMBER_1_MEMBER_13_MEMBER_4_FILL">
<path fill="#6E9A1F" stroke="none" d="
M 1.25 6.05
L 1.25 0
Q 1.2453125 0.2015625 1.1 0.25 0.65 0.5 0.2 0.25 0.0546875 0.2015625 0.05 0
L 0 6.05
Q 0 6.2 0.2 6.3 0.65 6.6 1.05 6.3 1.25 6.25 1.25 6.05 Z"/>
</g>

<g id="Layer0_0_MEMBER_1_MEMBER_13_MEMBER_5_MEMBER_0_FILL">
<path fill="#9BBB30" stroke="none" d="
M 1.1 0.25
L 0.95 0.35 0.95 6.4 1.05 6.3 1.1 0.25 Z"/>
</g>

<g id="Layer0_0_MEMBER_1_MEMBER_13_MEMBER_6_MEMBER_0_FILL">
<path fill="#9BBB30" stroke="none" d="
M 0.95 0.35
L 0.85 0.35 0.8 6.4 0.95 6.4 0.95 0.35 Z"/>
</g>

<g id="Layer0_0_MEMBER_1_MEMBER_13_MEMBER_7_MEMBER_0_FILL">
<path fill="#9BBB30" stroke="none" d="
M 0.3 0.3
L 0.2 0.25
Q 0.0546875 0.2015625 0.05 0
L 0 6.05
Q 0 6.2 0.2 6.3
L 0.3 6.35 0.3 0.3 Z"/>
</g>

<g id="Layer0_0_MEMBER_1_MEMBER_13_MEMBER_8_MEMBER_0_MEMBER_0_FILL">
<path fill="#6E9A1F" stroke="none" d="
M 391.65 79.95
Q 391.2 79.75 390.75 79.95 390.35 80.25 390.75 80.45 391.2 80.7 391.65 80.45 392.05 80.25 391.65 79.95 Z"/>
</g>

<g id="Layer0_0_MEMBER_1_MEMBER_14_MEMBER_0_FILL">
<path fill="#6E9A1F" stroke="none" d="
M 1.2 6.05
L 1.2 0
Q 1.1953125 0.2015625 1.05 0.25 0.6 0.55 0.2 0.25 0.00625 0.2015625 0 0
L 0 6.05
Q 0 6.25 0.15 6.3 0.6 6.6 1 6.3 1.2 6.25 1.2 6.05 Z"/>
</g>

<g id="Layer0_0_MEMBER_1_MEMBER_14_MEMBER_1_MEMBER_0_FILL">
<path fill="#61761E" stroke="none" d="
M 1.05 0.1
Q 0.6 -0.1 0.15 0.1 0 0.2 0 0.35 0 0.55 0.2 0.6 0.6 0.9 1.05 0.6 1.25 0.55 1.25 0.35 1.25 0.2 1.05 0.1 Z"/>
</g>

<g id="Layer0_0_MEMBER_1_MEMBER_14_MEMBER_2_MEMBER_0_FILL">
<path fill="#9BBB30" stroke="none" d="
M 393.4 86.55
L 393.35 86.6 393.3 86.7 393 87 392.4 87.3 391.7 87.45 391.6 87.45 391.25 87.5 391.15 87.5 390.8 87.45 390.75 87.45 390.35 87.4 390.3 87.35 390 87.3 389.55 87.1
Q 388.91015625 86.75546875 388.9 86.15
L 388.85 96.2
Q 388.85 96.75 389.55 97.15
L 389.85 97.35 389.95 97.35 390.15 97.4 390.25 97.45 390.35 97.45 390.4 97.5 390.6 97.5 390.7 97.55 391.65 97.55 391.85 97.5 391.95 97.5 392.15 97.4 392.3 97.4 392.4 97.35 392.45 97.3
Q 392.65 97.3 392.8 97.15
L 392.9 97.1 392.95 97.05 393.05 97 393.25 96.8 393.25 96.75 393.35 96.7 393.35 96.65 393.4 96.55 393.4 96.5 393.45 96.45 393.5 86.3 393.45 86.35 393.45 86.4 393.4 86.5 393.4 86.55 Z"/>
</g>

<g id="Layer0_0_MEMBER_1_MEMBER_14_MEMBER_3_MEMBER_0_MEMBER_0_FILL">
<path fill="#6E9A1F" stroke="none" d="
M 392.8 85.2
Q 392.15 84.85 391.2 84.85 390.25 84.85 389.55 85.2 388.9 85.6 388.9 86.15 388.9 86.7 389.55 87.1 390.25 87.5 391.2 87.5 392.15 87.5 392.8 87.1 393.5 86.7 393.5 86.15 393.5 85.6 392.8 85.2 Z"/>
</g>

<g id="Layer0_0_MEMBER_1_MEMBER_14_MEMBER_4_FILL">
<path fill="#6E9A1F" stroke="none" d="
M 1.25 6.05
L 1.25 0
Q 1.2453125 0.2015625 1.1 0.25 0.65 0.5 0.2 0.25 0.0546875 0.2015625 0.05 0
L 0 6.05
Q 0 6.2 0.2 6.3 0.65 6.6 1.05 6.3 1.25 6.25 1.25 6.05 Z"/>
</g>

<g id="Layer0_0_MEMBER_1_MEMBER_14_MEMBER_5_MEMBER_0_FILL">
<path fill="#9BBB30" stroke="none" d="
M 1.1 0.25
L 0.95 0.35 0.95 6.4 1.05 6.3 1.1 0.25 Z"/>
</g>

<g id="Layer0_0_MEMBER_1_MEMBER_14_MEMBER_6_MEMBER_0_FILL">
<path fill="#9BBB30" stroke="none" d="
M 0.95 0.35
L 0.85 0.35 0.8 6.4 0.95 6.4 0.95 0.35 Z"/>
</g>

<g id="Layer0_0_MEMBER_1_MEMBER_14_MEMBER_7_MEMBER_0_FILL">
<path fill="#9BBB30" stroke="none" d="
M 0.3 0.3
L 0.2 0.25
Q 0.0546875 0.2015625 0.05 0
L 0 6.05
Q 0 6.2 0.2 6.3
L 0.3 6.35 0.3 0.3 Z"/>
</g>

<g id="Layer0_0_MEMBER_1_MEMBER_14_MEMBER_8_MEMBER_0_MEMBER_0_FILL">
<path fill="#6E9A1F" stroke="none" d="
M 391.65 79.95
Q 391.2 79.75 390.75 79.95 390.35 80.25 390.75 80.45 391.2 80.7 391.65 80.45 392.05 80.25 391.65 79.95 Z"/>
</g>

<g id="Layer0_0_MEMBER_1_MEMBER_15_MEMBER_0_FILL">
<path fill="#6E9A1F" stroke="none" d="
M 1.2 6.05
L 1.2 0
Q 1.1953125 0.2015625 1.05 0.25 0.6 0.55 0.2 0.25 0.00625 0.2015625 0 0
L 0 6.05
Q 0 6.25 0.15 6.3 0.6 6.6 1 6.3 1.2 6.25 1.2 6.05 Z"/>
</g>

<g id="Layer0_0_MEMBER_1_MEMBER_15_MEMBER_1_MEMBER_0_FILL">
<path fill="#61761E" stroke="none" d="
M 1.05 0.1
Q 0.6 -0.1 0.15 0.1 0 0.2 0 0.35 0 0.55 0.2 0.6 0.6 0.9 1.05 0.6 1.25 0.55 1.25 0.35 1.25 0.2 1.05 0.1 Z"/>
</g>

<g id="Layer0_0_MEMBER_1_MEMBER_15_MEMBER_2_MEMBER_0_FILL">
<path fill="#9BBB30" stroke="none" d="
M 393.4 86.55
L 393.35 86.6 393.3 86.7 393 87 392.4 87.3 391.7 87.45 391.6 87.45 391.25 87.5 391.15 87.5 390.8 87.45 390.75 87.45 390.35 87.4 390.3 87.35 390 87.3 389.55 87.1
Q 388.91015625 86.75546875 388.9 86.15
L 388.85 96.2
Q 388.85 96.75 389.55 97.15
L 389.85 97.35 389.95 97.35 390.15 97.4 390.25 97.45 390.35 97.45 390.4 97.5 390.6 97.5 390.7 97.55 391.65 97.55 391.85 97.5 391.95 97.5 392.15 97.4 392.3 97.4 392.4 97.35 392.45 97.3
Q 392.65 97.3 392.8 97.15
L 392.9 97.1 392.95 97.05 393.05 97 393.25 96.8 393.25 96.75 393.35 96.7 393.35 96.65 393.4 96.55 393.4 96.5 393.45 96.45 393.5 86.3 393.45 86.35 393.45 86.4 393.4 86.5 393.4 86.55 Z"/>
</g>

<g id="Layer0_0_MEMBER_1_MEMBER_15_MEMBER_3_MEMBER_0_MEMBER_0_FILL">
<path fill="#6E9A1F" stroke="none" d="
M 392.8 85.2
Q 392.15 84.85 391.2 84.85 390.25 84.85 389.55 85.2 388.9 85.6 388.9 86.15 388.9 86.7 389.55 87.1 390.25 87.5 391.2 87.5 392.15 87.5 392.8 87.1 393.5 86.7 393.5 86.15 393.5 85.6 392.8 85.2 Z"/>
</g>

<g id="Layer0_0_MEMBER_1_MEMBER_15_MEMBER_4_FILL">
<path fill="#6E9A1F" stroke="none" d="
M 1.25 6.05
L 1.25 0
Q 1.2453125 0.2015625 1.1 0.25 0.65 0.5 0.2 0.25 0.0546875 0.2015625 0.05 0
L 0 6.05
Q 0 6.2 0.2 6.3 0.65 6.6 1.05 6.3 1.25 6.25 1.25 6.05 Z"/>
</g>

<g id="Layer0_0_MEMBER_1_MEMBER_15_MEMBER_5_MEMBER_0_FILL">
<path fill="#9BBB30" stroke="none" d="
M 1.1 0.25
L 0.95 0.35 0.95 6.4 1.05 6.3 1.1 0.25 Z"/>
</g>

<g id="Layer0_0_MEMBER_1_MEMBER_15_MEMBER_6_MEMBER_0_FILL">
<path fill="#9BBB30" stroke="none" d="
M 0.95 0.35
L 0.85 0.35 0.8 6.4 0.95 6.4 0.95 0.35 Z"/>
</g>

<g id="Layer0_0_MEMBER_1_MEMBER_15_MEMBER_7_MEMBER_0_FILL">
<path fill="#9BBB30" stroke="none" d="
M 0.3 0.3
L 0.2 0.25
Q 0.0546875 0.2015625 0.05 0
L 0 6.05
Q 0 6.2 0.2 6.3
L 0.3 6.35 0.3 0.3 Z"/>
</g>

<g id="Layer0_0_MEMBER_1_MEMBER_15_MEMBER_8_MEMBER_0_MEMBER_0_FILL">
<path fill="#6E9A1F" stroke="none" d="
M 391.65 79.95
Q 391.2 79.75 390.75 79.95 390.35 80.25 390.75 80.45 391.2 80.7 391.65 80.45 392.05 80.25 391.65 79.95 Z"/>
</g>

<g id="Layer0_0_MEMBER_2_MEMBER_0_MEMBER_0_MEMBER_0_FILL">
<path fill="#EEB188" stroke="none" d="
M 448.25 56.85
Q 448.35 57.25 449.7 56.25 449.5 54.65 449.3 54.35 448.6 52.75 447.25 52.5 446.35 52.3 447.55 53.8 448.1 54.45 448.05 55.1 447.9 55.9 448.25 56.85 Z"/>
</g>

<g id="Layer0_0_MEMBER_2_MEMBER_0_MEMBER_0_MEMBER_1_FILL">
<path fill="#E5A37A" stroke="none" d="
M 448.2 56.8
Q 448.25 56.9 448.65 56.75 448.75 55.35 448.45 54.3 448.2 53.45 447.7 53.05
L 446.95 52.5
Q 446.7 52.75 447.55 53.8 447.7 53.95 447.6 54.4 447.5 54.9 447.7 55.15 448 55.6 448.2 56.8 Z"/>
</g>

<g id="Layer0_0_MEMBER_2_MEMBER_0_MEMBER_0_MEMBER_2_FILL">
<path fill="#EEB188" stroke="none" d="
M 448.7 56.7
Q 448.8 54.6 448.6 54.85 448.35 55.15 447.8 54.55 447.25 53.9 447.15 53.85 447.05 53.8 447.05 54.1 447.1 54.4 447.3 54.75 447.55 55.25 448.7 56.7 Z"/>
</g>

<g id="Layer0_0_MEMBER_2_MEMBER_0_MEMBER_1_FILL">
<path fill="#63BAE4" stroke="none" d="
M 451.9 60.05
L 449.85 55.85
Q 449.4 56.9 448.1 56.5
L 448.5 58.35
Q 448.95 60.3 449.3 61.1 449.7 61.95 452.5 63.25 454.9 64.35 457.15 64.95 458.8 65.4 459.5 64.55 459.85 64.1 459.9 63.6 460 62.7 455.95 61.3
L 451.9 60.05 Z"/>
</g>

<g id="Layer0_0_MEMBER_2_MEMBER_0_MEMBER_2_FILL">
<path fill="#7BD3FD" stroke="none" d="
M 449.1 56.5
Q 449.6 59.2 450.15 60.35 450.55 61.2 453.35 62.5 455.75 63.6 458 64.2 459.05 64.5 459.7 64.25 459.9 63.9 459.9 63.6 460 62.7 455.95 61.3
L 451.9 60.05 449.85 55.85
Q 449.65 56.4 449.1 56.5 Z"/>
</g>

<g id="Layer0_0_MEMBER_2_MEMBER_1_FILL">
<path fill="#000000" fill-opacity="0.09803921568627451" stroke="none" d="
M 20.6 6
Q 20.6 3.5 17.6 1.75 14.55 0.05 10.3 0.05 6 0.05 3 1.75 -0.05 3.5 0 6 0 8.45 3.05 10.2 6.1 11.95 10.35 11.95 14.6 11.95 17.6 10.2 20.65 8.5 20.6 6 Z"/>
</g>

<g id="Layer0_0_MEMBER_2_MEMBER_2_FILL">
<path fill="#111114" stroke="none" d="
M 457.7 97.75
Q 456.7 96.95 455.7 97 455.45 97.05 455.25 97.15 454.8 97.35 454.95 97.7 455.1 98.05 455.75 98.7 456.4 99.35 456.45 99.5 456.6 99.85 457.05 100.4 457.6 101.05 457.8 101 457.95 100.95 458.45 100.8 458.8 100.5 458.75 99.6 458.7 98.55 457.7 97.75 Z"/>
</g>

<g id="Layer0_0_MEMBER_2_MEMBER_3_FILL">
<path fill="#111114" stroke="none" d="
M 453.1 104
Q 454.3 103.7 453.8 102.3
L 453.9 101.9 450.9 101.9 449.25 102.3
Q 447 102.9 446.95 103.3 446.8 103.75 447.35 104.15 448.1 104.65 449.75 104.25 451.2 103.9 451.95 104 452.65 104.15 453.1 104 Z"/>
</g>

<g id="Layer0_0_MEMBER_2_MEMBER_4_FILL">
<path fill="#31282E" stroke="none" d="
M 458.65 78
L 454.35 79 454.35 82.45
Q 454.4 86.2 454.7 87.5 455.15 89.6 455.65 98.9 456.7 100.05 458 99.6 458.65 99.35 459.1 98.9 459.5 96.9 459.15 92.25 458.7 87.8 458.7 87.3
L 458.65 78 Z"/>
</g>

<g id="Layer0_0_MEMBER_2_MEMBER_5_FILL">
<path fill="#31282E" stroke="none" d="
M 455.45 79.2
Q 454.5 78.5 453.45 78.15 451.3 77.5 450.8 79.45 450 82.85 450.35 90.05 450.4 92 450.35 101.35 450.55 102.35 452.35 102.35 453.25 102.3 454.1 102.1 454.35 100.55 454.6 89.95
L 455.45 79.2 Z"/>
</g>

<g id="Layer0_0_MEMBER_2_MEMBER_6_FILL">
<path fill="#231D21" stroke="none" d="
M 452.5 84
Q 451.8 87.5 451.95 91.25
L 452.2 102.35
Q 453.15 102.35 454.1 102.1 454.35 100.55 454.6 89.95
L 455.35 80.75 453.25 81.25 452.5 84 Z"/>
</g>

<g id="Layer0_0_MEMBER_2_MEMBER_7_FILL">
<path fill="#231D21" stroke="none" d="
M 456.85 88.85
Q 457.15 90.6 457.15 94.8 457.15 99.05 457.25 99.7 458.3 99.7 459.1 98.9 459.5 96.9 459.15 92.25 458.7 87.8 458.7 87.3
L 458.65 78.05 456.85 79.45 456.65 82.9
Q 456.5 86.75 456.85 88.85 Z"/>
</g>

<g id="Layer0_0_MEMBER_2_MEMBER_8_FILL">
<path fill="#7BD3FD" stroke="none" d="
M 459.2 62.8
Q 457.95 62.75 456.4 63.5 454.3 64.65 452.8 65.45 450.9 66.5 450.6 68.2 450.55 68.6 450.7 70.6 450.8 71.65 450.55 74.45 450.25 77.7 449.75 79.75 449.3 81.7 451.4 82.2 452.5 82.5 453.65 82.35 457.2 81.45 458.45 79.85 459.1 79.05 459 78.4 458.85 77.9 458.6 75.75 458.35 73.75 458.3 72.75 458.25 71.8 459.95 66.7 460.6 64.85 459.95 63.65
L 459.2 62.8 Z"/>
</g>

<g id="Layer0_0_MEMBER_2_MEMBER_9_FILL">
<path fill="#63BAE4" stroke="none" d="
M 450.55 68.5
Q 450.55 68.8 450.7 70.6 450.8 71.65 450.55 74.45 450.25 77.7 449.75 79.75 449.15 82.15 452.6 82.4 452.75 81.9 452.75 79.6 452.75 77.3 453.3 75.6 454.85 70.9 453.7 67.5 453.45 66.65 452.9 66.35 452.25 66.1 451.95 66 450.7 67 450.55 68.5 Z"/>
</g>

<g id="Layer0_0_MEMBER_2_MEMBER_10_FILL">
<path fill="#EEB188" stroke="none" d="
M 457.1 61.3
Q 456.2 61.2 455.35 61.2 453.65 61.15 453.95 61.7 454.85 63.3 454.15 64.75 454.25 65.4 456.05 64.95 457.8 64.5 457.45 63.85 457.1 63.25 457.05 62.2
L 457.1 61.3 Z"/>
</g>

<g id="Layer0_0_MEMBER_2_MEMBER_11_FILL">
<path fill="#DB956D" stroke="none" d="
M 456.65 64.8
Q 457.65 64.35 457.4 63.9 456.9 63.05 457.05 61.65
L 454.35 63
Q 454.65 63 455.4 63.4 456.4 64 456.65 64.8 Z"/>
</g>

<g id="Layer0_0_MEMBER_2_MEMBER_12_FILL">
<path fill="#EEB188" stroke="none" d="
M 457.65 58.85
Q 457.2 57.45 456 56.85 454.65 56.15 453.2 57.15
L 452.9 58
Q 452.65 59 452.75 59.8 452.85 61.1 452.75 61.95 452.75 62.55 453.05 62.85 453.8 63.6 455.45 62.95 456.55 62.55 457.3 61.35 458.05 60.05 457.65 58.85 Z"/>
</g>

<g id="Layer0_0_MEMBER_2_MEMBER_13_FILL">
<path fill="#E5A37A" stroke="none" d="
M 456.45 58.45
Q 455.7 57.3 455.7 57.25 455.7 57.15 454.75 56.6 454.05 56.6 453.2 57.15
L 452.9 58.05
Q 453.05 58.2 453.55 58.65 453.95 59 454 59.15 454.4 60.3 453.9 61.5 453.75 61.75 454.1 62.35 454.45 62.95 454.35 63.15
L 454.35 63.2
Q 454.8 63.2 455.45 62.95 456.95 62.4 457.6 60.7 457.25 59.75 456.45 58.45 Z"/>
</g>

<g id="Layer0_0_MEMBER_2_MEMBER_14_FILL">
<path fill="#131C24" stroke="none" d="
M 458.6 58.7
Q 458.35 57.3 457 56.6 455.75 55.9 454.7 56.05 454.1 56.1 453 56.7 452.6 56.9 452.8 57.4 452.95 57.95 453.8 58.35 454.25 58.6 454.4 59.3 454.5 59.8 454.4 60.1 454.4 60.3 454.25 61.45 454.35 61.55 454.7 61.25 455.15 60.95 455.25 60.95 456.3 61.15 455.05 62.4 454.6 62.9 455.45 63.1 456.35 63.3 456.95 62.85 457.5 62.4 458.1 61.2 458.75 59.85 458.6 58.7 Z"/>
</g>

<g id="Layer0_0_MEMBER_2_MEMBER_15_FILL">
<path fill="#1D2833" stroke="none" d="
M 456.6 59.9
Q 456.55 61.35 456.45 61.6 456.2 62.55 455.05 62.95 455.9 63.55 456.95 62.85 457.5 62.4 458.1 61.2 459.75 57.95 457.25 56.6 455.95 55.85 455.05 55.9 454.4 55.9 453.45 56.45 452.75 56.7 452.8 57.05 455.05 57.45 455.5 58.2 455.65 58.5 456.3 59 456.65 59.25 456.6 59.9 Z"/>
</g>

<g id="Layer0_0_MEMBER_2_MEMBER_16_FILL">
<path fill="#DFF0F8" stroke="none" d="
M 456.9 63.9
Q 456.15 64.55 454.35 64.25
L 453.15 65.25 455.15 65.55
Q 457.3 65.65 458 64.5 458.15 64.3 457.95 63.85 457.75 63.35 457.3 63.2 457.3 63.6 456.9 63.9 Z"/>
</g>

<g id="Layer0_0_MEMBER_2_MEMBER_17_FILL">
<path fill="#F0B28A" stroke="none" d="
M 440.85 66.65
Q 441.4 66.05 441.25 65.4 441.05 65.1 440.85 64.8 440.45 64.1 440.5 63.9 440.55 63.65 440.3 63.55 440.05 63.45 440.05 63.75 440 64.2 440.2 64.65 439.45 63.5 439.3 63.05 439.1 62.4 438.7 63.15 438.25 63.95 438.45 64.55 438.75 65.45 439 65.7 439.5 66.35 440.85 66.65 Z"/>
</g>

<g id="Layer0_0_MEMBER_2_MEMBER_18_FILL">
<path fill="#63BAE4" stroke="none" d="
M 445.05 67.65
L 441.15 65.15
Q 441.25 66.25 439.95 66.55
L 441.2 67.95
Q 442.65 69.4 443.35 69.9 444.15 70.4 447.2 70.1 449.8 69.8 452.1 69.2 453.7 68.75 453.9 67.65
L 453.75 66.65
Q 453.4 65.85 449.2 66.65
L 445.05 67.65 Z"/>
</g>

<g id="Layer0_0_MEMBER_2_MEMBER_19_FILL">
<path fill="#7BD3FD" stroke="none" d="
M 440.85 66.05
Q 442.7 68.2 443.7 68.8 444.5 69.35 447.55 69.05 450.15 68.75 452.45 68.15 453.5 67.85 453.9 67.3
L 453.75 66.65
Q 453.4 65.85 449.2 66.65
L 445.05 67.65 441.15 65.15
Q 441.2 65.7 440.85 66.05 Z"/>
</g>

<g id="Layer0_0_MEMBER_3_MEMBER_0_FILL">
<path fill="#DFF4FE" fill-opacity="0" stroke="none" d="
M 445.45 111.85
Q 443.15 109.6 439.95 109.6 436.75 109.6 434.5 111.85 432.25 114.1 432.25 117.3 432.25 120.5 434.5 122.75 436.75 125 439.95 125 443.15 125 445.45 122.75 447.7 120.5 447.7 117.3 447.7 114.1 445.45 111.85 Z"/>
</g>

<g id="Layer0_0_MEMBER_3_MEMBER_1_FILL">
<path fill="#DFF4FE" fill-opacity="0.03137254901960784" stroke="none" d="
M 444.6 112.8
Q 442.65 110.85 439.95 110.85 437.3 110.85 435.35 112.8 433.45 114.7 433.45 117.4 433.45 120.05 435.35 122 437.3 123.9 439.95 123.9 442.65 123.9 444.6 122 446.5 120.05 446.5 117.4 446.5 114.7 444.6 112.8 Z"/>
</g>

<g id="Layer0_0_MEMBER_3_MEMBER_2_FILL">
<path fill="#DFF4FE" fill-opacity="0.06666666666666667" stroke="none" d="
M 445.25 117.45
Q 445.25 115.25 443.7 113.7 442.15 112.15 439.95 112.15 437.8 112.15 436.2 113.7 434.65 115.3 434.65 117.45 434.65 119.65 436.2 121.2 437.75 122.75 439.95 122.75 442.15 122.75 443.7 121.2 445.25 119.65 445.25 117.45 Z"/>
</g>

<g id="Layer0_0_MEMBER_3_MEMBER_3_FILL">
<path fill="#DFF4FE" fill-opacity="0.09803921568627451" stroke="none" d="
M 444.05 117.55
Q 444.05 115.85 442.85 114.65 441.7 113.45 439.95 113.45 438.25 113.45 437.1 114.65 435.9 115.85 435.9 117.55 435.9 119.25 437.1 120.45 438.25 121.65 439.95 121.65 441.65 121.65 442.85 120.45 444.05 119.25 444.05 117.55 Z"/>
</g>

<g id="Layer0_0_MEMBER_3_MEMBER_4_FILL">
<path fill="#DFF4FE" fill-opacity="0.12941176470588237" stroke="none" d="
M 442.85 117.6
Q 442.85 116.4 442 115.6 441.15 114.75 439.95 114.75 438.8 114.75 437.95 115.6 437.1 116.4 437.1 117.6 437.1 118.8 437.95 119.65 438.8 120.5 439.95 120.5 441.15 120.5 442 119.65 442.85 118.8 442.85 117.6 Z"/>
</g>

<g id="Layer0_0_MEMBER_3_MEMBER_5_FILL">
<path fill="#DFF4FE" fill-opacity="0.16470588235294117" stroke="none" d="
M 441.65 117.7
Q 441.65 117 441.15 116.5 440.65 116 439.95 116 439.25 116 438.8 116.5 438.3 117 438.3 117.7 438.3 118.4 438.8 118.9 439.25 119.4 439.95 119.4 440.65 119.4 441.15 118.9 441.65 118.4 441.65 117.7 Z"/>
</g>

<g id="Layer0_0_MEMBER_3_MEMBER_6_FILL">
<path fill="#DFF4FE" fill-opacity="0.2" stroke="none" d="
M 440.45 117.8
Q 440.45 117.3 439.95 117.3 439.5 117.3 439.5 117.8 439.5 118.3 439.95 118.3 440.45 118.3 440.45 117.8 Z"/>
</g>

<g id="Layer0_0_MEMBER_4_MEMBER_0_FILL">
<path fill="#FED831" stroke="none" d="
M 404.45 126.05
L 404.5 126.1 405.55 126.45 405.65 126.5 406.55 126.7 406.7 126.75 406.95 126.8 407.5 126.85 407.9 126.95 408.4 127 408.65 127 408.9 127.05 411.85 127 413 126.8 413.05 126.8 413.95 126.65 414.35 126.5 414.85 126.4 414.95 126.35 415.15 126.3 415.95 126 416.2 125.85 417.15 125.4 417.55 125.15 418.5 124.4 418.9 124 419 123.95 419.3 123.5 419.35 123.45 419.75 122.7 419.85 122.55 419.85 122.45 420 121.95 420 121.9 420.05 121.6 420.1 118.5 419.95 119.35 419.85 119.7 419.75 119.9
Q 419.7 120.15 419.6 120.25
L 419.35 120.65 419.3 120.7 419 121.15 418.9 121.2 418.5 121.65 417.15 122.6 416.2 123.05 415.95 123.2 414.35 123.75 411.9 124.2 409.85 124.3 407.5 124.1 405.9 123.75 404 123.1 403.75 122.95 403 122.6
Q 400.1029296875 120.93046875 400.05 118.55
L 400.05 121.25
Q 399.95 123.65 403 125.4
L 404.45 126.05 Z"/>
</g>

<g id="Layer0_0_MEMBER_4_MEMBER_1_FILL">
<path fill="#FED764" stroke="none" d="
M 404.45 125.1
L 404.5 125.1 405.55 125.45 405.65 125.5 406.55 125.7 406.7 125.75 407.7 125.95 407.9 125.95 408.4 126 408.65 126.05 408.9 126.05 409.4 126.1 410.85 126.1 411.8 126 411.85 126 413 125.85 413.05 125.85 414.85 125.4 414.95 125.35 415.15 125.3 416.2 124.9 417.15 124.4 417.3 124.35 418.5 123.45 419 122.95 419.15 122.7 419.3 122.55 419.55 122.1 419.6 122.05 419.85 121.55 419.85 121.5 420 121 420 120.95 420.05 120.6 420.1 118.55 419.95 119.35 419.85 119.7 419.75 119.9
Q 419.7 120.15 419.6 120.25
L 419.35 120.65 419.3 120.7 419 121.15 418.9 121.2 418.5 121.65 417.15 122.6 416.2 123.05 415.95 123.2 414.35 123.75 411.9 124.2 409.85 124.3 407.5 124.1 405.9 123.75 404 123.1 403.75 122.95 403 122.6
Q 400.119921875 120.940234375 400.05 118.55
L 400.05 120.3
Q 400.05 122.7 403 124.4
L 403.7 124.8 404.45 125.1 Z"/>
</g>

<g id="Layer0_0_MEMBER_4_MEMBER_2_FILL">
<path fill="#FD9D28" stroke="none" d="
M 404.45 125.1
L 404.5 125.1 405.55 125.45 405.65 125.5 406.55 125.7 406.7 125.75 407.7 125.95 407.9 125.95 408.4 126 408.65 126.05 408.9 126.05 409.4 126.1 410.85 126.1 411.8 126 411.85 126 413 125.85 413.05 125.85 414.85 125.4 414.95 125.35 415.15 125.3 416.2 124.9 417.15 124.4 417.3 124.35 418.5 123.45 419 122.95 419.15 122.7 419.3 122.55 419.55 122.1 419.6 122.05 419.85 121.55 419.85 121.5 420 121 420 120.95 420.05 120.6 420.1 118.55 419.95 119.35 419.85 119.7 419.75 119.9
Q 419.7 120.15 419.6 120.25
L 419.35 120.65 419.3 120.7 419 121.15 418.9 121.2 418.5 121.65 417.15 122.6 416.2 123.05 415.95 123.2 414.35 123.75 411.9 124.2 409.85 124.3 407.5 124.1 405.9 123.75 404 123.1 403.75 122.95 403 122.6
Q 400.119921875 120.940234375 400.05 118.55
L 400.05 120.3
Q 400.05 122.7 403 124.4
L 403.7 124.8 404.45 125.1 Z"/>
</g>

<g id="Layer0_0_MEMBER_4_MEMBER_3_MEMBER_0_FILL">
<path fill="#F0B33C" stroke="none" d="
M 402.95 114.4
Q 400 116.1 400.05 118.5 400.05 120.9 403 122.6 405.95 124.3 410.1 124.3 414.25 124.3 417.15 122.6 420.1 120.85 420.05 118.5 420.05 116.1 417.1 114.4 414.2 112.7 410.05 112.7 405.9 112.7 402.95 114.4 Z"/>
</g>

<g id="Layer0_0_MEMBER_4_MEMBER_4_MEMBER_0_FILL">
<path fill="#FED764" stroke="none" d="
M 402.95 114.4
Q 400 116.1 400.05 118.5 400.05 120.9 403 122.6 405.95 124.3 410.1 124.3 414.25 124.3 417.15 122.6 420.1 120.85 420.05 118.5 420.05 116.1 417.1 114.4 414.2 112.7 410.05 112.7 405.9 112.7 402.95 114.4 Z"/>
</g>

<g id="Layer0_0_MEMBER_4_MEMBER_5_MEMBER_0_FILL">
<path fill="#FED831" stroke="none" d="
M 402.95 114.85
Q 400 116.6 400.05 118.75 400.05 120.9 403 122.6 405.95 124.3 410.1 124.3 414.25 124.3 417.15 122.6 420.1 120.85 420.05 118.75 420.05 116.55 417.1 114.85 414.2 113.15 410.05 113.15 405.9 113.15 402.95 114.85 Z"/>
</g>

<g id="Layer0_0_MEMBER_4_MEMBER_6_FILL">
<path fill="#FEEC99" stroke="none" d="
M 400.05 118.45
Q 400.2 116.5 402.95 114.85 405.9 113.15 410.05 113.15 414.2 113.15 417.1 114.85 419.9 116.45 420.05 118.5 420.3 116.2 417.1 114.4 414.2 112.7 410.05 112.7 405.9 112.7 402.95 114.4 399.9 116.1 400.05 118.45 Z"/>
</g>

<g id="Layer0_0_MEMBER_4_MEMBER_7_MEMBER_0_FILL">
<path fill="#DC822E" stroke="none" d="
M 404.45 115.25
Q 402.15 116.6 402.15 118.5 402.15 120.4 404.45 121.75 406.8 123.05 410.05 123.05 413.35 123.05 415.65 121.75 418 120.4 418 118.5 418 116.6 415.65 115.25 413.35 113.9 410.05 113.9 406.75 113.9 404.45 115.25 Z"/>
</g>

<g id="Layer0_0_MEMBER_4_MEMBER_8_MEMBER_0_FILL">
<path fill="#FDB02B" stroke="none" d="
M 404.65 115.55
Q 402.45 116.9 402.45 118.8 402.45 120.65 404.7 122 406.9 123.3 410.1 123.3 413.25 123.3 415.45 122 417.65 120.65 417.65 118.75 417.65 116.85 415.4 115.55 413.2 114.2 410.05 114.2 406.85 114.2 404.65 115.55 Z"/>
</g>

<g id="Layer0_0_MEMBER_4_MEMBER_9_MEMBER_0_FILL">
<path fill="#FED764" stroke="none" d="
M 415.1 116
L 414.4 115.6 413.25 116.25
Q 411.3 115.45 409.75 116.3 408.5 117.05 409.7 118.55 410.5 119.55 409.6 120.05 408.55 120.65 407.15 119.9 406.2 119.35 406.05 118.7
L 405 118.95
Q 405.15 119.6 406.25 120.25
L 405.1 120.9 405.8 121.3 406.95 120.65
Q 409.15 121.5 410.7 120.55 412.05 119.8 410.95 118.35 410.5 117.75 410.5 117.4 410.45 117.05 410.85 116.8 411.85 116.25 413 116.95 413.8 117.4 414.05 118
L 415.05 117.7
Q 414.9 117.2 414 116.65
L 415.1 116 Z"/>
</g>

<g id="Layer0_0_MEMBER_5_MEMBER_0_FILL">
<path fill="#FED831" stroke="none" d="
M 404.6 116.3
L 404.6 119
Q 404.6 121.45 407.55 123.15
L 409 123.8 409.05 123.85 410.15 124.2 410.2 124.25 411.1 124.45 411.25 124.5 412.05 124.65 412.25 124.65 412.5 124.7 413 124.75 413.25 124.75 413.45 124.8 413.95 124.8 414.2 124.85 414.4 124.85 417.55 124.6 417.65 124.55 418.9 124.3 420.5 123.75 421.7 123.15 422.1 122.9 423.05 122.15 423.45 121.75 423.55 121.7 423.75 121.45 423.85 121.25 423.9 121.2 424.15 120.85 424.15 120.8 424.3 120.45 424.4 120.3 424.4 120.2 424.55 119.7 424.55 119.65 424.65 119.15 424.65 116.25 424.6 116.55 424.6 116.9 424.5 117.15 424.45 117.45 424.2 118 423.95 118.4 423.9 118.5 423.05 119.4 421.75 120.35 420.5 120.95 419.4 121.35 417.6 121.8 416.1 122 415.4 122 415 122.05 411.5 121.75 408.55 120.85 408.3 120.7 407.55 120.35
Q 404.65390625 118.63203125 404.6 116.3 Z"/>
</g>

<g id="Layer0_0_MEMBER_5_MEMBER_1_FILL">
<path fill="#FED764" stroke="none" d="
M 404.6 116.3
L 404.6 118.05
Q 404.6 120.4 407.55 122.15
L 409 122.85 409.05 122.85 410.15 123.25 410.2 123.25 411.1 123.45 411.25 123.5 412.25 123.7 412.5 123.7 413 123.75 413.25 123.8 413.45 123.8 413.95 123.85 416.1 123.8 416.35 123.75 416.45 123.75 417.55 123.6 417.65 123.6 417.95 123.5 419.4 123.15 420.8 122.65 421.7 122.15 421.85 122.1 422.75 121.45 423.55 120.7 423.85 120.3 423.9 120.2 424.15 119.85 424.15 119.8 424.4 119.3 424.4 119.25 424.55 118.75 424.55 118.7 424.6 118.35 424.65 118.15 424.65 116.3 424.6 116.55 424.6 116.9 424.5 117.15 424.45 117.45 424.2 118 423.95 118.4 423.9 118.5 423.05 119.4 421.75 120.35 420.5 120.95 417.6 121.8 416.1 122 415.4 122 415 122.05 412.05 121.85 408.55 120.85 408.3 120.7 407.55 120.35
Q 404.671484375 118.6423828125 404.6 116.3 Z"/>
</g>

<g id="Layer0_0_MEMBER_5_MEMBER_2_FILL">
<path fill="#FD9D28" stroke="none" d="
M 404.6 116.3
L 404.6 118.05
Q 404.6 120.4 407.55 122.15
L 409 122.85 409.05 122.85 410.15 123.25 410.2 123.25 411.1 123.45 411.25 123.5 412.25 123.7 412.5 123.7 413 123.75 413.25 123.8 413.45 123.8 413.95 123.85 416.1 123.8 416.35 123.75 416.45 123.75 417.55 123.6 417.65 123.6 417.95 123.5 419.4 123.15 420.8 122.65 421.7 122.15 421.85 122.1 422.75 121.45 423.55 120.7 423.85 120.3 423.9 120.2 424.15 119.85 424.15 119.8 424.4 119.3 424.4 119.25 424.55 118.75 424.55 118.7 424.6 118.35 424.65 118.15 424.65 116.3 424.6 116.55 424.6 116.9 424.5 117.15 424.45 117.45 424.2 118 423.95 118.4 423.9 118.5 423.05 119.4 421.75 120.35 420.5 120.95 417.6 121.8 416.1 122 415.4 122 415 122.05 412.05 121.85 408.55 120.85 408.3 120.7 407.55 120.35
Q 404.671484375 118.6423828125 404.6 116.3 Z"/>
</g>

<g id="Layer0_0_MEMBER_5_MEMBER_3_MEMBER_0_FILL">
<path fill="#F0B33C" stroke="none" d="
M 421.7 112.15
Q 418.75 110.45 414.6 110.45 410.45 110.45 407.5 112.15 404.6 113.85 404.6 116.25 404.6 118.6 407.55 120.35 410.5 122.05 414.65 122.05 418.85 122.05 421.75 120.35 424.65 118.65 424.65 116.25 424.65 113.85 421.7 112.15 Z"/>
</g>

<g id="Layer0_0_MEMBER_5_MEMBER_4_MEMBER_0_FILL">
<path fill="#FED764" stroke="none" d="
M 421.7 112.15
Q 418.75 110.45 414.6 110.45 410.45 110.45 407.5 112.15 404.6 113.85 404.6 116.25 404.6 118.6 407.55 120.35 410.5 122.05 414.65 122.05 418.85 122.05 421.75 120.35 424.65 118.65 424.65 116.25 424.65 113.85 421.7 112.15 Z"/>
</g>

<g id="Layer0_0_MEMBER_5_MEMBER_5_MEMBER_0_FILL">
<path fill="#FED831" stroke="none" d="
M 421.7 112.6
Q 418.75 110.9 414.6 110.9 410.45 110.9 407.5 112.6 404.6 114.3 404.6 116.5 404.6 118.6 407.55 120.35 410.5 122.05 414.65 122.05 418.85 122.05 421.75 120.35 424.65 118.65 424.65 116.5 424.65 114.35 421.7 112.6 Z"/>
</g>

<g id="Layer0_0_MEMBER_5_MEMBER_6_FILL">
<path fill="#FEEC99" stroke="none" d="
M 414.6 110.45
Q 410.45 110.45 407.5 112.15 404.45 113.95 404.6 116.2 404.85 114.25 407.5 112.6 410.45 110.9 414.6 110.9 418.75 110.9 421.7 112.6 424.45 114.25 424.6 116.25 424.85 114 421.7 112.15 418.75 110.45 414.6 110.45 Z"/>
</g>

<g id="Layer0_0_MEMBER_5_MEMBER_7_MEMBER_0_FILL">
<path fill="#DC822E" stroke="none" d="
M 420.2 113
Q 417.9 111.65 414.6 111.65 411.35 111.65 409 113 406.7 114.35 406.7 116.25 406.7 118.15 409.05 119.5 411.4 120.8 414.65 120.85 417.95 120.85 420.25 119.5 422.55 118.15 422.55 116.25 422.5 114.35 420.2 113 Z"/>
</g>

<g id="Layer0_0_MEMBER_5_MEMBER_8_MEMBER_0_FILL">
<path fill="#FDB02B" stroke="none" d="
M 420 113.3
Q 417.75 111.95 414.6 111.95 411.45 111.95 409.2 113.3 407 114.65 407 116.55 407 118.4 409.25 119.75 411.5 121.05 414.65 121.05 417.8 121.05 420 119.75 422.25 118.4 422.25 116.55 422.2 114.65 420 113.3 Z"/>
</g>

<g id="Layer0_0_MEMBER_5_MEMBER_9_MEMBER_0_FILL">
<path fill="#FED764" stroke="none" d="
M 414.3 114.1
Q 413.15 114.8 414.25 116.3 415.05 117.3 414.15 117.8 413.2 118.45 411.75 117.65 410.75 117.1 410.6 116.45
L 409.55 116.7
Q 409.85 117.5 410.8 118
L 409.65 118.65 410.35 119.05 411.55 118.4
Q 413.65 119.25 415.25 118.3 416.55 117.6 415.55 116.1 415.1 115.5 415.05 115.15 415 114.8 415.4 114.55 416.4 114.05 417.6 114.7 418.5 115.2 418.6 115.75
L 419.65 115.45
Q 419.35 114.85 418.55 114.4
L 419.65 113.75 418.95 113.35 417.85 114
Q 415.85 113.2 414.3 114.1 Z"/>
</g>
</defs>

<g transform="matrix( 9, 0, 0, 9, 71.9,379.95) ">
<use xlink:href="#Layer0_0_MEMBER_0_MEMBER_0_FILL"/>
</g>

<g transform="matrix( 9, 0, 0, 9, -3385,-238.8) ">
<use xlink:href="#Layer0_0_MEMBER_0_MEMBER_1_MEMBER_0_FILL"/>
</g>

<g transform="matrix( 9, 0, 0, 9, -3385,-238.8) ">
<use xlink:href="#Layer0_0_MEMBER_0_MEMBER_2_MEMBER_0_FILL"/>
</g>

<g transform="matrix( 9, 0, 0, 9, -3385,-238.8) ">
<use xlink:href="#Layer0_0_MEMBER_0_MEMBER_3_MEMBER_0_FILL"/>
</g>

<g transform="matrix( 9, 0, 0, 9, -3385,-238.8) ">
<use xlink:href="#Layer0_0_MEMBER_0_MEMBER_4_MEMBER_0_FILL"/>
</g>

<g transform="matrix( 9, 0, 0, 9, -3385,-238.8) ">
<use xlink:href="#Layer0_0_MEMBER_0_MEMBER_5_MEMBER_0_FILL"/>
</g>

<g transform="matrix( 9, 0, 0, 9, -3385,-238.8) ">
<use xlink:href="#Layer0_0_MEMBER_0_MEMBER_6_MEMBER_0_FILL"/>
</g>

<g transform="matrix( 9, 0, 0, 9, -3385,-238.8) ">
<use xlink:href="#Layer0_0_MEMBER_0_MEMBER_7_MEMBER_0_FILL"/>
</g>

<g transform="matrix( 9, 0, 0, 9, -3385,-238.8) ">
<use xlink:href="#Layer0_0_MEMBER_0_MEMBER_8_MEMBER_0_FILL"/>
</g>

<g transform="matrix( 9, 0, 0, 9, -3385,-238.8) ">
<use xlink:href="#Layer0_0_MEMBER_0_MEMBER_9_FILL"/>
</g>

<g transform="matrix( 9, 0, 0, 9, -3385,-238.8) ">
<use xlink:href="#Layer0_0_MEMBER_0_MEMBER_10_FILL"/>
</g>

<g transform="matrix( 9, 0, 0, 9, -3385,-238.8) ">
<use xlink:href="#Layer0_0_MEMBER_0_MEMBER_11_FILL"/>
</g>

<g transform="matrix( 9, 0, 0, 9, -3385,-238.8) ">
<use xlink:href="#Layer0_0_MEMBER_0_MEMBER_12_MEMBER_0_FILL"/>
</g>

<g transform="matrix( 9, 0, 0, 9, -3385,-238.8) ">
<use xlink:href="#Layer0_0_MEMBER_0_MEMBER_13_MEMBER_0_FILL"/>
</g>

<g transform="matrix( 9, 0, 0, 9, -3385,-238.8) ">
<use xlink:href="#Layer0_0_MEMBER_0_MEMBER_14_MEMBER_0_FILL"/>
</g>

<g transform="matrix( 9, 0, 0, 9, -3385,-238.8) ">
<use xlink:href="#Layer0_0_MEMBER_0_MEMBER_15_MEMBER_0_FILL"/>
</g>

<g transform="matrix( 9, 0, 0, 9, -3385,-238.8) ">
<use xlink:href="#Layer0_0_MEMBER_1_MEMBER_0_MEMBER_0_MEMBER_0_FILL"/>
</g>

<g transform="matrix( 9, 0, 0, 9, -3385,-238.8) ">
<use xlink:href="#Layer0_0_MEMBER_1_MEMBER_0_MEMBER_1_MEMBER_0_FILL"/>
</g>

<g transform="matrix( 9, 0, 0, 9, -3385,-238.8) ">
<use xlink:href="#Layer0_0_MEMBER_1_MEMBER_0_MEMBER_2_MEMBER_0_MEMBER_0_FILL"/>
</g>

<g transform="matrix( 9, 0, 0, 9, -3385,-238.8) ">
<use xlink:href="#Layer0_0_MEMBER_1_MEMBER_0_MEMBER_3_MEMBER_0_MEMBER_0_FILL"/>
</g>

<g transform="matrix( 9, 0, 0, 9, -3385,-238.8) ">
<use xlink:href="#Layer0_0_MEMBER_1_MEMBER_0_MEMBER_3_MEMBER_1_MEMBER_0_MEMBER_0_FILL"/>
</g>

<g transform="matrix( 9, 0, 0, 9, -3385,-238.8) ">
<use xlink:href="#Layer0_0_MEMBER_1_MEMBER_1_MEMBER_0_MEMBER_0_FILL"/>
</g>

<g transform="matrix( 9, 0, 0, 9, -3385,-238.8) ">
<use xlink:href="#Layer0_0_MEMBER_1_MEMBER_1_MEMBER_1_MEMBER_0_FILL"/>
</g>

<g transform="matrix( 9, 0, 0, 9, -3385,-238.8) ">
<use xlink:href="#Layer0_0_MEMBER_1_MEMBER_1_MEMBER_2_MEMBER_0_MEMBER_0_FILL"/>
</g>

<g transform="matrix( 9, 0, 0, 9, -3385,-238.8) ">
<use xlink:href="#Layer0_0_MEMBER_1_MEMBER_1_MEMBER_3_MEMBER_0_MEMBER_0_FILL"/>
</g>

<g transform="matrix( 9, 0, 0, 9, -3385,-238.8) ">
<use xlink:href="#Layer0_0_MEMBER_1_MEMBER_1_MEMBER_3_MEMBER_1_MEMBER_0_MEMBER_0_FILL"/>
</g>

<g transform="matrix( 9, 0, 0, 9, -3385,-238.8) ">
<use xlink:href="#Layer0_0_MEMBER_1_MEMBER_2_MEMBER_0_MEMBER_0_FILL"/>
</g>

<g transform="matrix( 9, 0, 0, 9, -3385,-238.8) ">
<use xlink:href="#Layer0_0_MEMBER_1_MEMBER_2_MEMBER_1_MEMBER_0_FILL"/>
</g>

<g transform="matrix( 9, 0, 0, 9, -3385,-238.8) ">
<use xlink:href="#Layer0_0_MEMBER_1_MEMBER_2_MEMBER_2_MEMBER_0_MEMBER_0_FILL"/>
</g>

<g transform="matrix( 9, 0, 0, 9, -3385,-238.8) ">
<use xlink:href="#Layer0_0_MEMBER_1_MEMBER_2_MEMBER_3_MEMBER_0_MEMBER_0_FILL"/>
</g>

<g transform="matrix( 9, 0, 0, 9, -3385,-238.8) ">
<use xlink:href="#Layer0_0_MEMBER_1_MEMBER_2_MEMBER_3_MEMBER_1_MEMBER_0_MEMBER_0_FILL"/>
</g>

<g transform="matrix( 9, 0, 0, 9, -3385,-238.8) ">
<use xlink:href="#Layer0_0_MEMBER_1_MEMBER_3_MEMBER_0_MEMBER_0_FILL"/>
</g>

<g transform="matrix( 9, 0, 0, 9, -3385,-238.8) ">
<use xlink:href="#Layer0_0_MEMBER_1_MEMBER_3_MEMBER_1_MEMBER_0_FILL"/>
</g>

<g transform="matrix( 9, 0, 0, 9, -3385,-238.8) ">
<use xlink:href="#Layer0_0_MEMBER_1_MEMBER_3_MEMBER_2_MEMBER_0_MEMBER_0_FILL"/>
</g>

<g transform="matrix( 9, 0, 0, 9, -3385,-238.8) ">
<use xlink:href="#Layer0_0_MEMBER_1_MEMBER_3_MEMBER_3_MEMBER_0_MEMBER_0_FILL"/>
</g>

<g transform="matrix( 9, 0, 0, 9, -3385,-238.8) ">
<use xlink:href="#Layer0_0_MEMBER_1_MEMBER_3_MEMBER_3_MEMBER_1_MEMBER_0_MEMBER_0_FILL"/>
</g>

<g transform="matrix( 9, 0, 0, 9, -3385,-238.8) ">
<use xlink:href="#Layer0_0_MEMBER_1_MEMBER_4_MEMBER_0_MEMBER_0_FILL"/>
</g>

<g transform="matrix( 9, 0, 0, 9, -3385,-238.8) ">
<use xlink:href="#Layer0_0_MEMBER_1_MEMBER_4_MEMBER_1_MEMBER_0_FILL"/>
</g>

<g transform="matrix( 9, 0, 0, 9, -3385,-238.8) ">
<use xlink:href="#Layer0_0_MEMBER_1_MEMBER_4_MEMBER_2_MEMBER_0_MEMBER_0_FILL"/>
</g>

<g transform="matrix( 9, 0, 0, 9, -3385,-238.8) ">
<use xlink:href="#Layer0_0_MEMBER_1_MEMBER_4_MEMBER_3_MEMBER_0_MEMBER_0_FILL"/>
</g>

<g transform="matrix( 9, 0, 0, 9, -3385,-238.8) ">
<use xlink:href="#Layer0_0_MEMBER_1_MEMBER_4_MEMBER_3_MEMBER_1_MEMBER_0_MEMBER_0_FILL"/>
</g>

<g transform="matrix( 9, 0, 0, 9, 131.3,626.1) ">
<use xlink:href="#Layer0_0_MEMBER_1_MEMBER_5_MEMBER_0_FILL"/>
</g>

<g transform="matrix( 9, 0, 0, 9, 131.3,622.95) ">
<use xlink:href="#Layer0_0_MEMBER_1_MEMBER_5_MEMBER_2_MEMBER_0_FILL"/>
</g>

<g transform="matrix( 9, 0, 0, 9, -3385,-238.8) ">
<use xlink:href="#Layer0_0_MEMBER_1_MEMBER_5_MEMBER_3_MEMBER_0_FILL"/>
</g>

<g transform="matrix( 9, 0, 0, 9, -3385,-238.8) ">
<use xlink:href="#Layer0_0_MEMBER_1_MEMBER_5_MEMBER_4_MEMBER_0_MEMBER_0_FILL"/>
</g>

<g transform="matrix( 9, 0, 0, 9, 129.95,483) ">
<use xlink:href="#Layer0_0_MEMBER_1_MEMBER_5_MEMBER_5_FILL"/>
</g>

<g transform="matrix( 9, 0, 0, 9, 129.95,483) ">
<use xlink:href="#Layer0_0_MEMBER_1_MEMBER_5_MEMBER_13_MEMBER_0_FILL"/>
</g>

<g transform="matrix( 9, 0, 0, 9, 129.95,483) ">
<use xlink:href="#Layer0_0_MEMBER_1_MEMBER_5_MEMBER_14_MEMBER_0_FILL"/>
</g>

<g transform="matrix( 9, 0, 0, 9, 129.95,483) ">
<use xlink:href="#Layer0_0_MEMBER_1_MEMBER_5_MEMBER_23_MEMBER_0_FILL"/>
</g>

<g transform="matrix( 9, 0, 0, 9, -3385,-238.8) ">
<use xlink:href="#Layer0_0_MEMBER_1_MEMBER_5_MEMBER_25_MEMBER_0_MEMBER_0_FILL"/>
</g>

<g transform="matrix( 9, 0, 0, 9, -3385,-238.8) ">
<use xlink:href="#Layer0_0_MEMBER_1_MEMBER_6_MEMBER_0_FILL"/>
</g>

<g transform="matrix( 9, 0, 0, 9, -3385,-238.8) ">
<use xlink:href="#Layer0_0_MEMBER_1_MEMBER_7_MEMBER_0_MEMBER_0_FILL"/>
</g>

<g transform="matrix( 9, 0, 0, 9, -3385,-238.8) ">
<use xlink:href="#Layer0_0_MEMBER_1_MEMBER_7_MEMBER_1_MEMBER_0_FILL"/>
</g>

<g transform="matrix( 9, 0, 0, 9, -3385,-238.8) ">
<use xlink:href="#Layer0_0_MEMBER_1_MEMBER_7_MEMBER_2_MEMBER_0_MEMBER_0_FILL"/>
</g>

<g transform="matrix( 9, 0, 0, 9, -3385,-238.8) ">
<use xlink:href="#Layer0_0_MEMBER_1_MEMBER_7_MEMBER_3_MEMBER_0_MEMBER_0_FILL"/>
</g>

<g transform="matrix( 9, 0, 0, 9, -3385,-238.8) ">
<use xlink:href="#Layer0_0_MEMBER_1_MEMBER_7_MEMBER_3_MEMBER_1_MEMBER_0_MEMBER_0_FILL"/>
</g>

<g transform="matrix( 9, 0, 0, 9, -3385,-238.8) ">
<use xlink:href="#Layer0_0_MEMBER_1_MEMBER_8_MEMBER_0_MEMBER_0_FILL"/>
</g>

<g transform="matrix( 9, 0, 0, 9, -3385,-238.8) ">
<use xlink:href="#Layer0_0_MEMBER_1_MEMBER_8_MEMBER_1_MEMBER_0_FILL"/>
</g>

<g transform="matrix( 9, 0, 0, 9, -3385,-238.8) ">
<use xlink:href="#Layer0_0_MEMBER_1_MEMBER_8_MEMBER_2_MEMBER_0_MEMBER_0_FILL"/>
</g>

<g transform="matrix( 9, 0, 0, 9, -3385,-238.8) ">
<use xlink:href="#Layer0_0_MEMBER_1_MEMBER_8_MEMBER_3_MEMBER_0_MEMBER_0_FILL"/>
</g>

<g transform="matrix( 9, 0, 0, 9, -3385,-238.8) ">
<use xlink:href="#Layer0_0_MEMBER_1_MEMBER_8_MEMBER_3_MEMBER_1_MEMBER_0_MEMBER_0_FILL"/>
</g>

<g transform="matrix( 9, 0, 0, 9, -3385,-238.8) ">
<use xlink:href="#Layer0_0_MEMBER_1_MEMBER_9_MEMBER_0_MEMBER_0_FILL"/>
</g>

<g transform="matrix( 9, 0, 0, 9, -3385,-238.8) ">
<use xlink:href="#Layer0_0_MEMBER_1_MEMBER_9_MEMBER_1_MEMBER_0_FILL"/>
</g>

<g transform="matrix( 9, 0, 0, 9, -3385,-238.8) ">
<use xlink:href="#Layer0_0_MEMBER_1_MEMBER_9_MEMBER_2_MEMBER_0_MEMBER_0_FILL"/>
</g>

<g transform="matrix( 9, 0, 0, 9, -3385,-238.8) ">
<use xlink:href="#Layer0_0_MEMBER_1_MEMBER_9_MEMBER_3_MEMBER_0_MEMBER_0_FILL"/>
</g>

<g transform="matrix( 9, 0, 0, 9, -3385,-238.8) ">
<use xlink:href="#Layer0_0_MEMBER_1_MEMBER_9_MEMBER_3_MEMBER_1_MEMBER_0_MEMBER_0_FILL"/>
</g>

<g transform="matrix( 9, 0, 0, 9, 236.1,506.05) ">
<use xlink:href="#Layer0_0_MEMBER_1_MEMBER_10_MEMBER_0_FILL"/>
</g>

<g transform="matrix( 9, 0, 0, 9, 236.1,502.9) ">
<use xlink:href="#Layer0_0_MEMBER_1_MEMBER_10_MEMBER_1_MEMBER_0_FILL"/>
</g>

<g transform="matrix( 9, 0, 0, 9, -3280.2,-358.85) ">
<use xlink:href="#Layer0_0_MEMBER_1_MEMBER_10_MEMBER_2_MEMBER_0_FILL"/>
</g>

<g transform="matrix( 9, 0, 0, 9, -3280.2,-358.85) ">
<use xlink:href="#Layer0_0_MEMBER_1_MEMBER_10_MEMBER_3_MEMBER_0_MEMBER_0_FILL"/>
</g>

<g transform="matrix( 9, 0, 0, 9, 234.75,362.95) ">
<use xlink:href="#Layer0_0_MEMBER_1_MEMBER_10_MEMBER_4_FILL"/>
</g>

<g transform="matrix( 9, 0, 0, 9, 234.75,362.95) ">
<use xlink:href="#Layer0_0_MEMBER_1_MEMBER_10_MEMBER_5_MEMBER_0_FILL"/>
</g>

<g transform="matrix( 9, 0, 0, 9, 234.75,362.95) ">
<use xlink:href="#Layer0_0_MEMBER_1_MEMBER_10_MEMBER_6_MEMBER_0_FILL"/>
</g>

<g transform="matrix( 9, 0, 0, 9, 234.75,362.95) ">
<use xlink:href="#Layer0_0_MEMBER_1_MEMBER_10_MEMBER_7_MEMBER_0_FILL"/>
</g>

<g transform="matrix( 9, 0, 0, 9, -3280.2,-358.85) ">
<use xlink:href="#Layer0_0_MEMBER_1_MEMBER_10_MEMBER_8_MEMBER_0_MEMBER_0_FILL"/>
</g>

<g transform="matrix( 9, 0, 0, 9, 378.8,332.25) ">
<use xlink:href="#Layer0_0_MEMBER_1_MEMBER_11_MEMBER_0_FILL"/>
</g>

<g transform="matrix( 9, 0, 0, 9, 378.8,329.1) ">
<use xlink:href="#Layer0_0_MEMBER_1_MEMBER_11_MEMBER_1_MEMBER_0_FILL"/>
</g>

<g transform="matrix( 9, 0, 0, 9, -3137.5,-532.65) ">
<use xlink:href="#Layer0_0_MEMBER_1_MEMBER_11_MEMBER_2_MEMBER_0_FILL"/>
</g>

<g transform="matrix( 9, 0, 0, 9, -3137.5,-532.65) ">
<use xlink:href="#Layer0_0_MEMBER_1_MEMBER_11_MEMBER_3_MEMBER_0_MEMBER_0_FILL"/>
</g>

<g transform="matrix( 9, 0, 0, 9, 377.45,189.15) ">
<use xlink:href="#Layer0_0_MEMBER_1_MEMBER_11_MEMBER_4_FILL"/>
</g>

<g transform="matrix( 9, 0, 0, 9, 377.45,189.15) ">
<use xlink:href="#Layer0_0_MEMBER_1_MEMBER_11_MEMBER_5_MEMBER_0_FILL"/>
</g>

<g transform="matrix( 9, 0, 0, 9, 377.45,189.15) ">
<use xlink:href="#Layer0_0_MEMBER_1_MEMBER_11_MEMBER_6_MEMBER_0_FILL"/>
</g>

<g transform="matrix( 9, 0, 0, 9, 377.45,189.15) ">
<use xlink:href="#Layer0_0_MEMBER_1_MEMBER_11_MEMBER_7_MEMBER_0_FILL"/>
</g>

<g transform="matrix( 9, 0, 0, 9, -3137.5,-532.65) ">
<use xlink:href="#Layer0_0_MEMBER_1_MEMBER_11_MEMBER_8_MEMBER_0_MEMBER_0_FILL"/>
</g>

<g transform="matrix( 9, 0, 0, 9, 533.15,433.05) ">
<use xlink:href="#Layer0_0_MEMBER_1_MEMBER_12_MEMBER_0_FILL"/>
</g>

<g transform="matrix( 9, 0, 0, 9, 533.15,429.9) ">
<use xlink:href="#Layer0_0_MEMBER_1_MEMBER_12_MEMBER_1_MEMBER_0_FILL"/>
</g>

<g transform="matrix( 9, 0, 0, 9, -2983.15,-431.85) ">
<use xlink:href="#Layer0_0_MEMBER_1_MEMBER_12_MEMBER_2_MEMBER_0_FILL"/>
</g>

<g transform="matrix( 9, 0, 0, 9, -2983.15,-431.85) ">
<use xlink:href="#Layer0_0_MEMBER_1_MEMBER_12_MEMBER_3_MEMBER_0_MEMBER_0_FILL"/>
</g>

<g transform="matrix( 9, 0, 0, 9, 531.8,289.95) ">
<use xlink:href="#Layer0_0_MEMBER_1_MEMBER_12_MEMBER_4_FILL"/>
</g>

<g transform="matrix( 9, 0, 0, 9, 531.8,289.95) ">
<use xlink:href="#Layer0_0_MEMBER_1_MEMBER_12_MEMBER_5_MEMBER_0_FILL"/>
</g>

<g transform="matrix( 9, 0, 0, 9, 531.8,289.95) ">
<use xlink:href="#Layer0_0_MEMBER_1_MEMBER_12_MEMBER_6_MEMBER_0_FILL"/>
</g>

<g transform="matrix( 9, 0, 0, 9, 531.8,289.95) ">
<use xlink:href="#Layer0_0_MEMBER_1_MEMBER_12_MEMBER_7_MEMBER_0_FILL"/>
</g>

<g transform="matrix( 9, 0, 0, 9, -2983.15,-431.85) ">
<use xlink:href="#Layer0_0_MEMBER_1_MEMBER_12_MEMBER_8_MEMBER_0_MEMBER_0_FILL"/>
</g>

<g transform="matrix( 9, 0, 0, 9, 587.8,351.8) ">
<use xlink:href="#Layer0_0_MEMBER_1_MEMBER_13_MEMBER_0_FILL"/>
</g>

<g transform="matrix( 9, 0, 0, 9, 587.8,348.65) ">
<use xlink:href="#Layer0_0_MEMBER_1_MEMBER_13_MEMBER_1_MEMBER_0_FILL"/>
</g>

<g transform="matrix( 9, 0, 0, 9, -2928.5,-513.1) ">
<use xlink:href="#Layer0_0_MEMBER_1_MEMBER_13_MEMBER_2_MEMBER_0_FILL"/>
</g>

<g transform="matrix( 9, 0, 0, 9, -2928.5,-513.1) ">
<use xlink:href="#Layer0_0_MEMBER_1_MEMBER_13_MEMBER_3_MEMBER_0_MEMBER_0_FILL"/>
</g>

<g transform="matrix( 9, 0, 0, 9, 586.45,208.7) ">
<use xlink:href="#Layer0_0_MEMBER_1_MEMBER_13_MEMBER_4_FILL"/>
</g>

<g transform="matrix( 9, 0, 0, 9, 586.45,208.7) ">
<use xlink:href="#Layer0_0_MEMBER_1_MEMBER_13_MEMBER_5_MEMBER_0_FILL"/>
</g>

<g transform="matrix( 9, 0, 0, 9, 586.45,208.7) ">
<use xlink:href="#Layer0_0_MEMBER_1_MEMBER_13_MEMBER_6_MEMBER_0_FILL"/>
</g>

<g transform="matrix( 9, 0, 0, 9, 586.45,208.7) ">
<use xlink:href="#Layer0_0_MEMBER_1_MEMBER_13_MEMBER_7_MEMBER_0_FILL"/>
</g>

<g transform="matrix( 9, 0, 0, 9, -2928.5,-513.1) ">
<use xlink:href="#Layer0_0_MEMBER_1_MEMBER_13_MEMBER_8_MEMBER_0_MEMBER_0_FILL"/>
</g>

<g transform="matrix( 9, 0, 0, 9, 651,407.7) ">
<use xlink:href="#Layer0_0_MEMBER_1_MEMBER_14_MEMBER_0_FILL"/>
</g>

<g transform="matrix( 9, 0, 0, 9, 651,404.55) ">
<use xlink:href="#Layer0_0_MEMBER_1_MEMBER_14_MEMBER_1_MEMBER_0_FILL"/>
</g>

<g transform="matrix( 9, 0, 0, 9, -2865.3,-457.2) ">
<use xlink:href="#Layer0_0_MEMBER_1_MEMBER_14_MEMBER_2_MEMBER_0_FILL"/>
</g>

<g transform="matrix( 9, 0, 0, 9, -2865.3,-457.2) ">
<use xlink:href="#Layer0_0_MEMBER_1_MEMBER_14_MEMBER_3_MEMBER_0_MEMBER_0_FILL"/>
</g>

<g transform="matrix( 9, 0, 0, 9, 649.65,264.6) ">
<use xlink:href="#Layer0_0_MEMBER_1_MEMBER_14_MEMBER_4_FILL"/>
</g>

<g transform="matrix( 9, 0, 0, 9, 649.65,264.6) ">
<use xlink:href="#Layer0_0_MEMBER_1_MEMBER_14_MEMBER_5_MEMBER_0_FILL"/>
</g>

<g transform="matrix( 9, 0, 0, 9, 649.65,264.6) ">
<use xlink:href="#Layer0_0_MEMBER_1_MEMBER_14_MEMBER_6_MEMBER_0_FILL"/>
</g>

<g transform="matrix( 9, 0, 0, 9, 649.65,264.6) ">
<use xlink:href="#Layer0_0_MEMBER_1_MEMBER_14_MEMBER_7_MEMBER_0_FILL"/>
</g>

<g transform="matrix( 9, 0, 0, 9, -2865.3,-457.2) ">
<use xlink:href="#Layer0_0_MEMBER_1_MEMBER_14_MEMBER_8_MEMBER_0_MEMBER_0_FILL"/>
</g>

<g transform="matrix( 9, 0, 0, 9, 701.85,295.8) ">
<use xlink:href="#Layer0_0_MEMBER_1_MEMBER_15_MEMBER_0_FILL"/>
</g>

<g transform="matrix( 9, 0, 0, 9, 701.85,292.65) ">
<use xlink:href="#Layer0_0_MEMBER_1_MEMBER_15_MEMBER_1_MEMBER_0_FILL"/>
</g>

<g transform="matrix( 9, 0, 0, 9, -2814.45,-569.1) ">
<use xlink:href="#Layer0_0_MEMBER_1_MEMBER_15_MEMBER_2_MEMBER_0_FILL"/>
</g>

<g transform="matrix( 9, 0, 0, 9, -2814.45,-569.1) ">
<use xlink:href="#Layer0_0_MEMBER_1_MEMBER_15_MEMBER_3_MEMBER_0_MEMBER_0_FILL"/>
</g>

<g transform="matrix( 9, 0, 0, 9, 700.5,152.7) ">
<use xlink:href="#Layer0_0_MEMBER_1_MEMBER_15_MEMBER_4_FILL"/>
</g>

<g transform="matrix( 9, 0, 0, 9, 700.5,152.7) ">
<use xlink:href="#Layer0_0_MEMBER_1_MEMBER_15_MEMBER_5_MEMBER_0_FILL"/>
</g>

<g transform="matrix( 9, 0, 0, 9, 700.5,152.7) ">
<use xlink:href="#Layer0_0_MEMBER_1_MEMBER_15_MEMBER_6_MEMBER_0_FILL"/>
</g>

<g transform="matrix( 9, 0, 0, 9, 700.5,152.7) ">
<use xlink:href="#Layer0_0_MEMBER_1_MEMBER_15_MEMBER_7_MEMBER_0_FILL"/>
</g>

<g transform="matrix( 9, 0, 0, 9, -2814.45,-569.1) ">
<use xlink:href="#Layer0_0_MEMBER_1_MEMBER_15_MEMBER_8_MEMBER_0_MEMBER_0_FILL"/>
</g>

<g transform="matrix( 9, 0, 0, 9, -3385,-238.8) ">
<use xlink:href="#Layer0_0_MEMBER_2_MEMBER_0_MEMBER_0_MEMBER_0_FILL"/>
</g>

<g transform="matrix( 9, 0, 0, 9, -3385,-238.8) ">
<use xlink:href="#Layer0_0_MEMBER_2_MEMBER_0_MEMBER_0_MEMBER_1_FILL"/>
</g>

<g transform="matrix( 9, 0, 0, 9, -3385,-238.8) ">
<use xlink:href="#Layer0_0_MEMBER_2_MEMBER_0_MEMBER_0_MEMBER_2_FILL"/>
</g>

<g transform="matrix( 9, 0, 0, 9, -3385,-238.8) ">
<use xlink:href="#Layer0_0_MEMBER_2_MEMBER_0_MEMBER_1_FILL"/>
</g>

<g transform="matrix( 9, 0, 0, 9, -3385,-238.8) ">
<use xlink:href="#Layer0_0_MEMBER_2_MEMBER_0_MEMBER_2_FILL"/>
</g>

<g transform="matrix( 9, 0, 0, 9, 616.85,616.65) ">
<use xlink:href="#Layer0_0_MEMBER_2_MEMBER_1_FILL"/>
</g>

<g transform="matrix( 9, 0, 0, 9, -3385,-238.8) ">
<use xlink:href="#Layer0_0_MEMBER_2_MEMBER_2_FILL"/>
</g>

<g transform="matrix( 9, 0, 0, 9, -3385,-238.8) ">
<use xlink:href="#Layer0_0_MEMBER_2_MEMBER_3_FILL"/>
</g>

<g transform="matrix( 9, 0, 0, 9, -3385,-238.8) ">
<use xlink:href="#Layer0_0_MEMBER_2_MEMBER_4_FILL"/>
</g>

<g transform="matrix( 9, 0, 0, 9, -3385,-238.8) ">
<use xlink:href="#Layer0_0_MEMBER_2_MEMBER_5_FILL"/>
</g>

<g transform="matrix( 9, 0, 0, 9, -3385,-238.8) ">
<use xlink:href="#Layer0_0_MEMBER_2_MEMBER_6_FILL"/>
</g>

<g transform="matrix( 9, 0, 0, 9, -3385,-238.8) ">
<use xlink:href="#Layer0_0_MEMBER_2_MEMBER_7_FILL"/>
</g>

<g transform="matrix( 9, 0, 0, 9, -3385,-238.8) ">
<use xlink:href="#Layer0_0_MEMBER_2_MEMBER_8_FILL"/>
</g>

<g transform="matrix( 9, 0, 0, 9, -3385,-238.8) ">
<use xlink:href="#Layer0_0_MEMBER_2_MEMBER_9_FILL"/>
</g>

<g transform="matrix( 9, 0, 0, 9, -3385,-238.8) ">
<use xlink:href="#Layer0_0_MEMBER_2_MEMBER_10_FILL"/>
</g>

<g transform="matrix( 9, 0, 0, 9, -3385,-238.8) ">
<use xlink:href="#Layer0_0_MEMBER_2_MEMBER_11_FILL"/>
</g>

<g transform="matrix( 9, 0, 0, 9, -3385,-238.8) ">
<use xlink:href="#Layer0_0_MEMBER_2_MEMBER_12_FILL"/>
</g>

<g transform="matrix( 9, 0, 0, 9, -3385,-238.8) ">
<use xlink:href="#Layer0_0_MEMBER_2_MEMBER_13_FILL"/>
</g>

<g transform="matrix( 9, 0, 0, 9, -3385,-238.8) ">
<use xlink:href="#Layer0_0_MEMBER_2_MEMBER_14_FILL"/>
</g>

<g transform="matrix( 9, 0, 0, 9, -3385,-238.8) ">
<use xlink:href="#Layer0_0_MEMBER_2_MEMBER_15_FILL"/>
</g>

<g transform="matrix( 9, 0, 0, 9, -3385,-238.8) ">
<use xlink:href="#Layer0_0_MEMBER_2_MEMBER_16_FILL"/>
</g>

<g transform="matrix( 9, 0, 0, 9, -3385,-238.8) ">
<use xlink:href="#Layer0_0_MEMBER_2_MEMBER_17_FILL"/>
</g>

<g transform="matrix( 9, 0, 0, 9, -3385,-238.8) ">
<use xlink:href="#Layer0_0_MEMBER_2_MEMBER_18_FILL"/>
</g>

<g transform="matrix( 9, 0, 0, 9, -3385,-238.8) ">
<use xlink:href="#Layer0_0_MEMBER_2_MEMBER_19_FILL"/>
</g>

<g transform="matrix( 9, 0, 0, 9, -3385,-238.8) ">
<use xlink:href="#Layer0_0_MEMBER_3_MEMBER_0_FILL"/>
</g>

<g transform="matrix( 9, 0, 0, 9, -3385,-238.8) ">
<use xlink:href="#Layer0_0_MEMBER_3_MEMBER_1_FILL"/>
</g>

<g transform="matrix( 9, 0, 0, 9, -3385,-238.8) ">
<use xlink:href="#Layer0_0_MEMBER_3_MEMBER_2_FILL"/>
</g>

<g transform="matrix( 9, 0, 0, 9, -3385,-238.8) ">
<use xlink:href="#Layer0_0_MEMBER_3_MEMBER_3_FILL"/>
</g>

<g transform="matrix( 9, 0, 0, 9, -3385,-238.8) ">
<use xlink:href="#Layer0_0_MEMBER_3_MEMBER_4_FILL"/>
</g>

<g transform="matrix( 9, 0, 0, 9, -3385,-238.8) ">
<use xlink:href="#Layer0_0_MEMBER_3_MEMBER_5_FILL"/>
</g>

<g transform="matrix( 9, 0, 0, 9, -3385,-238.8) ">
<use xlink:href="#Layer0_0_MEMBER_3_MEMBER_6_FILL"/>
</g>

<g transform="matrix( 9, 0, 0, 9, -3385,-238.8) ">
<use xlink:href="#Layer0_0_MEMBER_4_MEMBER_0_FILL"/>
</g>

<g transform="matrix( 9, 0, 0, 9, -3385,-238.8) ">
<use xlink:href="#Layer0_0_MEMBER_4_MEMBER_1_FILL"/>
</g>

<g transform="matrix( 9, 0, 0, 9, -3385,-238.8) ">
<use xlink:href="#Layer0_0_MEMBER_4_MEMBER_2_FILL"/>
</g>

<g transform="matrix( 9, 0, 0, 9, -3385,-238.8) ">
<use xlink:href="#Layer0_0_MEMBER_4_MEMBER_3_MEMBER_0_FILL"/>
</g>

<g transform="matrix( 9, 0, 0, 9, -3385,-238.8) ">
<use xlink:href="#Layer0_0_MEMBER_4_MEMBER_4_MEMBER_0_FILL"/>
</g>

<g transform="matrix( 9, 0, 0, 9, -3385,-238.8) ">
<use xlink:href="#Layer0_0_MEMBER_4_MEMBER_5_MEMBER_0_FILL"/>
</g>

<g transform="matrix( 9, 0, 0, 9, -3385,-238.8) ">
<use xlink:href="#Layer0_0_MEMBER_4_MEMBER_6_FILL"/>
</g>

<g transform="matrix( 9, 0, 0, 9, -3385,-238.8) ">
<use xlink:href="#Layer0_0_MEMBER_4_MEMBER_7_MEMBER_0_FILL"/>
</g>

<g transform="matrix( 9, 0, 0, 9, -3385,-238.8) ">
<use xlink:href="#Layer0_0_MEMBER_4_MEMBER_8_MEMBER_0_FILL"/>
</g>

<g transform="matrix( 9, 0, 0, 9, -3385,-238.8) ">
<use xlink:href="#Layer0_0_MEMBER_4_MEMBER_9_MEMBER_0_FILL"/>
</g>

<g transform="matrix( 9, 0, 0, 9, -3385,-238.8) ">
<use xlink:href="#Layer0_0_MEMBER_5_MEMBER_0_FILL"/>
</g>

<g transform="matrix( 9, 0, 0, 9, -3385,-238.8) ">
<use xlink:href="#Layer0_0_MEMBER_5_MEMBER_1_FILL"/>
</g>

<g transform="matrix( 9, 0, 0, 9, -3385,-238.8) ">
<use xlink:href="#Layer0_0_MEMBER_5_MEMBER_2_FILL"/>
</g>

<g transform="matrix( 9, 0, 0, 9, -3385,-238.8) ">
<use xlink:href="#Layer0_0_MEMBER_5_MEMBER_3_MEMBER_0_FILL"/>
</g>

<g transform="matrix( 9, 0, 0, 9, -3385,-238.8) ">
<use xlink:href="#Layer0_0_MEMBER_5_MEMBER_4_MEMBER_0_FILL"/>
</g>

<g transform="matrix( 9, 0, 0, 9, -3385,-238.8) ">
<use xlink:href="#Layer0_0_MEMBER_5_MEMBER_5_MEMBER_0_FILL"/>
</g>

<g transform="matrix( 9, 0, 0, 9, -3385,-238.8) ">
<use xlink:href="#Layer0_0_MEMBER_5_MEMBER_6_FILL"/>
</g>

<g transform="matrix( 9, 0, 0, 9, -3385,-238.8) ">
<use xlink:href="#Layer0_0_MEMBER_5_MEMBER_7_MEMBER_0_FILL"/>
</g>

<g transform="matrix( 9, 0, 0, 9, -3385,-238.8) ">
<use xlink:href="#Layer0_0_MEMBER_5_MEMBER_8_MEMBER_0_FILL"/>
</g>

<g transform="matrix( 9, 0, 0, 9, -3385,-238.8) ">
<use xlink:href="#Layer0_0_MEMBER_5_MEMBER_9_MEMBER_0_FILL"/>
</g>
</svg>
