<?xml version="1.0" standalone="no"?><!DOCTYPE svg PUBLIC "-//W3C//DTD SVG 1.1//EN" "http://www.w3.org/Graphics/SVG/1.1/DTD/svg11.dtd"><svg height="1024" node-id="1" sillyvg="true" template-height="1024" template-width="1024" version="1.1" viewBox="0 0 1024 1024" width="1024" xmlns="http://www.w3.org/2000/svg" xmlns:xlink="http://www.w3.org/1999/xlink"><defs node-id="384"></defs><g node-id="1428"><g node-id="1523"><g node-id="1618"><path d="M 273.10 511.50 L 27.70 654.10 L 518.90 927.90 L 756.60 791.00 L 273.10 511.50 Z" fill="#000000" fill-opacity="0.09803922" fill-rule="nonzero" group-id="1,96,191" node-id="392" stroke="none" target-height="416.40002" target-width="728.89996" target-x="27.7" target-y="511.5"></path></g></g></g><g node-id="1429"><g node-id="1524"><g node-id="1619"><path d="M 513.20 375.10 L 267.80 517.70 L 759.10 791.00 L 996.40 654.10 L 513.20 375.10 Z" fill="#000000" fill-opacity="0.09803922" fill-rule="nonzero" group-id="2,97,192" node-id="403" stroke="none" target-height="415.9" target-width="728.60004" target-x="267.8" target-y="375.1"></path></g></g></g><g node-id="1430"><g node-id="1525"><g node-id="1620"><path d="M 508.00 397.90 L 331.10 500.70 L 756.30 746.20 L 933.30 643.30 L 508.00 397.90 Z" fill="#dbb956" fill-rule="nonzero" group-id="3,98,193" node-id="414" stroke="none" target-height="348.30002" target-width="602.19995" target-x="331.1" target-y="397.9"></path></g></g></g><g node-id="1431"><g node-id="1526"><g node-id="1621"><path d="M 526.70 308.00 L 364.30 402.30 L 754.30 627.50 L 916.30 533.10 L 526.70 308.00 Z" fill="#fee882" fill-rule="nonzero" group-id="4,99,194" node-id="425" stroke="none" target-height="319.5" target-width="552" target-x="364.3" target-y="308"></path></g></g></g><g node-id="1432"><g node-id="1527"><g node-id="1622"><path d="M 526.70 308.00 L 384.50 402.30 L 754.30 627.50 L 916.30 533.10 L 526.70 308.00 Z" fill="#fee882" fill-rule="nonzero" group-id="5,100,195" node-id="436" stroke="none" target-height="319.5" target-width="531.8" target-x="384.5" target-y="308"></path></g></g></g><g node-id="1433"><g node-id="1528"><g node-id="1623"><path d="M 526.70 308.00 L 384.50 402.30 L 756.70 629.10 L 902.90 533.10 L 526.70 308.00 Z" fill="#fed831" fill-rule="nonzero" group-id="6,101,196" node-id="447" stroke="none" target-height="321.09998" target-width="518.4" target-x="384.5" target-y="308"></path></g></g></g><g node-id="1434"><g node-id="1529"><g node-id="1624"><path d="M 754.30 627.50 L 756.30 746.20 L 933.30 643.30 L 916.30 533.10 L 754.30 627.50 Z" fill="#fdbb2c" fill-rule="nonzero" group-id="7,102,197" node-id="458" stroke="none" target-height="213.10004" target-width="179" target-x="754.3" target-y="533.1"></path></g></g></g><g node-id="1435"><g node-id="1530"><g node-id="1625"><path d="M 364.30 402.30 L 331.10 500.70 L 756.30 746.20 L 754.30 627.50 L 364.30 402.30 Z" fill="#fd9d28" fill-rule="nonzero" group-id="8,103,198" node-id="469" stroke="none" target-height="343.90002" target-width="425.19998" target-x="331.1" target-y="402.3"></path></g></g></g><g node-id="1436"><g node-id="1531"><g node-id="1626"><path d="M 518.60 491.40 L 470.40 463.50 L 377.20 527.10 L 426.60 555.80 L 518.60 491.40 Z" fill="#fdbb2c" fill-rule="nonzero" group-id="9,104,199" node-id="480" stroke="none" target-height="92.29999" target-width="141.39996" target-x="377.2" target-y="463.5"></path></g></g></g><g node-id="1437"><g node-id="1532"><g node-id="1627"><path d="M 464.30 576.90 L 513.70 605.60 L 606.00 541.20 L 557.40 513.30 L 464.30 576.90 Z" fill="#fdbb2c" fill-rule="nonzero" group-id="10,105,200" node-id="491" stroke="none" target-height="92.29999" target-width="141.70001" target-x="464.3" target-y="513.3"></path></g></g></g><g node-id="1438"><g node-id="1533"><g node-id="1628"><path d="M 636.40 676.50 L 665.60 693.50 L 754.30 627.50 L 727.10 611.70 L 636.40 676.50 Z" fill="#fdbb2c" fill-rule="nonzero" group-id="11,106,201" node-id="502" stroke="none" target-height="81.79999" target-width="117.89996" target-x="636.4" target-y="611.7"></path></g></g></g><g node-id="1439"><g node-id="1534"><g node-id="1629"><path d="M 535.20 332.70 L 423.00 402.30 L 736.90 592.70 L 862.40 521.00 L 535.20 332.70 Z" fill="#fdc12d" fill-rule="nonzero" group-id="12,107,202" node-id="513" stroke="none" target-height="260" target-width="439.40002" target-x="423" target-y="332.7"></path></g></g></g><g node-id="1440"><g node-id="1535"><g node-id="1630"><path d="M 661.90 443.50 L 661.90 440.60 L 661.40 437.70 L 660.30 434.90 L 658.50 432.00 L 656.00 429.20 L 652.60 426.30 L 648.10 423.30 L 642.10 420.30 L 635.60 418.00 L 628.60 416.40 L 621.10 415.40 L 612.90 415.20 L 604.70 415.90 L 596.80 417.40 L 589.20 419.50 L 581.90 422.50 L 574.80 426.10 L 569.10 429.90 L 564.70 433.50 L 561.40 437.00 L 559.20 440.40 L 557.70 443.80 L 557.00 447.20 L 557.10 450.70 L 558.00 454.00 L 559.70 457.30 L 562.20 460.50 L 565.90 463.80 L 570.80 467.00 L 576.80 470.00 L 583.20 472.40 L 590.10 474.10 L 597.40 475.20 L 605.20 475.50 L 612.00 475.10 L 618.70 474.10 L 625.20 472.50 L 631.60 470.40 L 637.90 467.60 L 644.10 464.20 L 649.80 460.60 L 654.20 457.10 L 657.40 453.60 L 659.70 450.30 L 661.20 446.90 L 661.90 443.50 M 639.60 427.80 L 643.40 430.30 L 645.90 432.80 L 647.60 435.30 L 648.50 437.90 L 648.70 440.60 L 648.10 443.50 L 646.90 446.40 L 645.00 449.40 L 642.30 452.50 L 638.50 455.60 L 633.50 458.90 L 628.20 461.80 L 622.90 464.10 L 617.40 465.90 L 611.80 467.10 L 606.00 467.80 L 599.60 468.00 L 593.70 467.60 L 588.40 466.60 L 583.60 465.10 L 579.30 463.00 L 575.70 460.50 L 573.10 458.00 L 571.50 455.50 L 570.60 453.00 L 570.30 450.40 L 570.80 447.60 L 571.80 444.60 L 573.70 441.50 L 576.40 438.40 L 580.20 435.10 L 585.30 431.80 L 592.00 428.50 L 598.70 425.90 L 605.50 424.10 L 612.50 422.90 L 618.90 422.60 L 624.80 422.90 L 630.10 423.90 L 635.10 425.50 L 639.60 427.80 Z" fill="#fed831" fill-rule="nonzero" group-id="13,108,203" node-id="524" stroke="none" target-height="60.299988" target-width="104.900024" target-x="557" target-y="415.2"></path></g></g></g><g node-id="1441"><g node-id="1536"><g node-id="1631"><path d="M 636.40 494.20 L 702.40 456.10 L 692.70 450.40 L 619.00 493.40 L 660.30 517.30 L 668.40 512.80 L 636.40 494.20 Z" fill="#fed831" fill-rule="nonzero" group-id="14,109,204" node-id="535" stroke="none" target-height="66.899994" target-width="83.400024" target-x="619" target-y="450.4"></path></g></g></g><g node-id="1442"><g node-id="1537"><g node-id="1632"><path d="M 770.80 536.30 L 775.80 533.00 L 779.70 529.90 L 782.50 526.80 L 784.50 523.80 L 785.90 520.80 L 786.50 517.90 L 786.60 514.80 L 786.20 512.30 L 785.20 509.60 L 783.50 506.70 L 780.90 503.60 L 777.20 500.10 L 772.20 496.30 L 759.00 488.30 L 751.70 484.70 L 743.70 481.20 L 671.20 523.30 L 680.10 529.40 L 687.80 533.90 L 695.20 538.00 L 702.50 541.20 L 709.80 543.70 L 716.90 545.40 L 724.00 546.50 L 731.10 546.80 L 738.10 546.50 L 744.90 545.70 L 751.60 544.20 L 758.10 542.20 L 764.50 539.50 L 770.80 536.30 M 746.50 490.90 L 749.70 492.00 L 753.70 493.80 L 764.00 499.90 L 767.80 503.10 L 770.60 506.10 L 772.30 508.90 L 773.30 511.70 L 773.70 514.40 L 773.40 516.90 L 772.50 519.40 L 770.90 522.00 L 768.40 524.80 L 765.00 527.60 L 760.30 530.60 L 754.10 533.90 L 748.00 536.40 L 741.80 538.10 L 735.50 539.20 L 729.10 539.50 L 722.60 539.20 L 716.10 538.10 L 709.80 536.40 L 703.50 533.90 L 697.10 530.60 L 692.70 527.90 L 688.20 524.50 L 746.50 490.90 Z" fill="#fed831" fill-rule="nonzero" group-id="15,110,205" node-id="546" stroke="none" target-height="65.599976" target-width="115.39996" target-x="671.2" target-y="481.2"></path></g></g></g><g node-id="1443"><g node-id="1538"><g node-id="1633"><path d="M 500.30 407.60 L 500.70 405.00 L 501.60 402.30 L 503.30 399.60 L 505.90 396.80 L 509.50 393.80 L 514.50 390.60 L 520.00 387.70 L 525.60 385.40 L 531.60 383.80 L 537.90 382.80 L 544.50 382.50 L 550.70 382.80 L 556.80 383.80 L 562.70 385.40 L 568.40 387.60 L 574.10 390.60 L 578.70 393.50 L 582.30 396.30 L 585.10 398.90 L 587.00 401.50 L 597.10 398.70 L 595.40 396.20 L 592.50 393.20 L 588.20 389.80 L 582.20 385.70 L 576.00 382.50 L 569.60 379.90 L 563.10 377.80 L 556.40 376.40 L 549.30 375.50 L 542.10 375.20 L 534.80 375.50 L 528.00 376.30 L 521.50 377.70 L 515.40 379.60 L 509.60 382.00 L 504.00 384.90 L 498.70 388.20 L 494.70 391.30 L 491.60 394.50 L 489.30 397.50 L 487.80 400.60 L 486.90 403.60 L 486.60 406.80 L 487.00 409.60 L 487.90 412.50 L 489.50 415.50 L 491.90 418.50 L 495.10 421.70 L 499.30 425.10 L 504.80 428.60 L 510.00 431.40 L 516.20 434.10 L 523.30 436.70 L 531.50 439.20 L 567.20 418.50 L 542.50 404.30 L 534.80 408.80 L 550.20 417.70 L 527.90 430.70 L 523.70 429.30 L 518.80 427.20 L 513.30 424.20 L 508.70 421.20 L 505.30 418.30 L 502.90 415.50 L 501.40 412.90 L 500.50 410.20 L 500.30 407.60 Z" fill="#fed831" fill-rule="nonzero" group-id="16,111,206" node-id="557" stroke="none" target-height="64" target-width="110.49997" target-x="486.6" target-y="375.2"></path></g></g></g><g node-id="1444"><g node-id="1539"><g node-id="1634"><path d="M 291.80 541.60 L 114.80 644.50 L 540.00 889.90 L 717.00 787.10 L 291.80 541.60 Z" fill="#dbb956" fill-rule="nonzero" group-id="17,112,207" node-id="568" stroke="none" target-height="348.30005" target-width="602.2" target-x="114.8" target-y="541.6"></path></g></g></g><g node-id="1445"><g node-id="1540"><g node-id="1635"><path d="M 148.00 546.10 L 538.00 771.30 L 700.00 676.90 L 310.40 452.10 L 148.00 546.10 Z" fill="#fee882" fill-rule="nonzero" group-id="18,113,208" node-id="579" stroke="none" target-height="319.19998" target-width="552" target-x="148" target-y="452.1"></path></g></g></g><g node-id="1446"><g node-id="1541"><g node-id="1636"><path d="M 168.20 546.10 L 538.00 771.30 L 700.00 676.90 L 310.40 452.10 L 168.20 546.10 Z" fill="#fee882" fill-rule="nonzero" group-id="19,114,209" node-id="590" stroke="none" target-height="319.19998" target-width="531.8" target-x="168.2" target-y="452.1"></path></g></g></g><g node-id="1447"><g node-id="1542"><g node-id="1637"><path d="M 168.20 546.10 L 540.00 773.30 L 686.20 676.90 L 310.40 452.10 L 168.20 546.10 Z" fill="#fed831" fill-rule="nonzero" group-id="20,115,210" node-id="601" stroke="none" target-height="321.19998" target-width="518" target-x="168.2" target-y="452.1"></path></g></g></g><g node-id="1448"><g node-id="1543"><g node-id="1638"><path d="M 717.00 787.10 L 700.00 676.90 L 538.00 771.30 L 540.00 889.90 L 717.00 787.10 Z" fill="#fdbb2c" fill-rule="nonzero" group-id="21,116,211" node-id="612" stroke="none" target-height="213" target-width="179" target-x="538" target-y="676.9"></path></g></g></g><g node-id="1449"><g node-id="1544"><g node-id="1639"><path d="M 540.00 889.90 L 538.00 771.30 L 148.00 546.10 L 114.80 644.50 L 540.00 889.90 Z" fill="#fd9d28" fill-rule="nonzero" group-id="22,117,212" node-id="623" stroke="none" target-height="343.80005" target-width="425.2" target-x="114.8" target-y="546.1"></path></g></g></g><g node-id="1450"><g node-id="1545"><g node-id="1640"><path d="M 302.30 635.20 L 254.10 607.20 L 161.00 671.20 L 210.40 699.60 L 302.30 635.20 Z" fill="#fdbb2c" fill-rule="nonzero" group-id="23,118,213" node-id="634" stroke="none" target-height="92.39996" target-width="141.29999" target-x="161" target-y="607.2"></path></g></g></g><g node-id="1451"><g node-id="1546"><g node-id="1641"><path d="M 248.00 721.00 L 297.40 749.40 L 389.40 685.00 L 341.20 657.10 L 248.00 721.00 Z" fill="#fdbb2c" fill-rule="nonzero" group-id="24,119,214" node-id="645" stroke="none" target-height="92.30005" target-width="141.4" target-x="248" target-y="657.1"></path></g></g></g><g node-id="1452"><g node-id="1547"><g node-id="1642"><path d="M 420.20 820.70 L 449.30 837.70 L 538.00 771.30 L 510.90 755.50 L 420.20 820.70 Z" fill="#fdbb2c" fill-rule="nonzero" group-id="25,120,215" node-id="656" stroke="none" target-height="82.20001" target-width="117.79999" target-x="420.2" target-y="755.5"></path></g></g></g><g node-id="1453"><g node-id="1548"><g node-id="1643"><path d="M 206.30 546.10 L 520.20 736.40 L 645.70 664.80 L 318.90 476.40 L 206.30 546.10 Z" fill="#fdc12d" fill-rule="nonzero" group-id="26,121,216" node-id="667" stroke="none" target-height="260.00003" target-width="439.40002" target-x="206.3" target-y="476.4"></path></g></g></g><g node-id="1454"><g node-id="1549"><g node-id="1644"><path d="M 445.60 587.30 L 445.60 584.40 L 445.10 581.70 L 444.00 578.90 L 442.20 576.10 L 439.70 573.30 L 436.30 570.40 L 431.80 567.40 L 426.80 564.80 L 421.50 562.60 L 415.90 561.00 L 409.90 559.80 L 403.40 559.10 L 396.60 558.90 L 389.60 559.50 L 382.80 560.60 L 376.40 562.10 L 370.20 564.20 L 364.30 566.80 L 358.50 569.90 L 352.60 573.70 L 348.10 577.30 L 344.90 580.80 L 342.70 584.20 L 341.30 587.60 L 340.70 590.90 L 340.70 593.90 L 341.20 596.80 L 342.30 599.60 L 344.10 602.40 L 346.60 605.10 L 350.00 607.90 L 354.50 610.80 L 360.50 613.80 L 366.90 616.20 L 373.80 617.90 L 381.10 618.90 L 388.90 619.30 L 395.60 618.90 L 402.10 617.90 L 408.60 616.40 L 415.00 614.30 L 421.40 611.60 L 427.80 608.40 L 433.50 604.60 L 437.90 601.00 L 441.20 597.50 L 443.40 594.00 L 444.90 590.70 L 445.60 587.30 M 423.30 571.50 L 427.10 574.00 L 429.60 576.50 L 431.30 579.00 L 432.20 581.60 L 432.40 584.30 L 431.80 587.30 L 430.60 590.40 L 428.70 593.40 L 425.90 596.50 L 422.20 599.50 L 417.20 602.70 L 411.80 605.50 L 406.30 607.80 L 400.70 609.60 L 395.00 610.90 L 389.30 611.60 L 382.90 611.90 L 377.00 611.50 L 371.80 610.50 L 367.00 608.90 L 362.60 606.70 L 359.00 604.40 L 356.50 602.00 L 354.90 599.60 L 354.10 597.00 L 353.90 594.30 L 354.50 591.30 L 355.50 588.30 L 357.40 585.20 L 360.10 582.10 L 363.90 578.90 L 369.00 575.50 L 375.70 572.20 L 382.40 569.70 L 389.20 567.80 L 396.20 566.60 L 402.60 566.30 L 408.50 566.70 L 413.80 567.70 L 418.80 569.30 L 423.30 571.50 Z" fill="#fed831" fill-rule="nonzero" group-id="27,122,217" node-id="678" stroke="none" target-height="60.399963" target-width="104.899994" target-x="340.7" target-y="558.9"></path></g></g></g><g node-id="1455"><g node-id="1550"><g node-id="1645"><path d="M 420.10 638.30 L 486.10 599.80 L 476.40 594.60 L 402.70 637.50 L 444.00 661.40 L 451.70 656.50 L 420.10 638.30 Z" fill="#fed831" fill-rule="nonzero" group-id="28,123,218" node-id="689" stroke="none" target-height="66.80005" target-width="83.399994" target-x="402.7" target-y="594.6"></path></g></g></g><g node-id="1456"><g node-id="1551"><g node-id="1646"><path d="M 554.10 680.00 L 559.30 676.80 L 563.20 673.60 L 566.10 670.50 L 568.20 667.50 L 569.50 664.60 L 570.20 661.60 L 570.30 658.60 L 569.60 655.40 L 568.10 652.10 L 565.50 648.60 L 561.70 644.70 L 556.40 640.50 L 549.30 635.90 L 537.90 629.80 L 527.40 625.00 L 454.90 667.50 L 471.50 678.00 L 479.10 682.00 L 486.50 685.20 L 493.70 687.60 L 500.80 689.20 L 507.90 690.20 L 514.80 690.60 L 522.30 690.30 L 529.40 689.30 L 536.10 687.90 L 542.40 685.80 L 548.40 683.20 L 554.10 680.00 M 530.20 634.70 L 542.40 640.80 L 547.70 644.10 L 551.60 647.20 L 554.30 650.20 L 556.10 652.90 L 557.10 655.60 L 557.40 658.20 L 557.10 660.80 L 556.10 663.40 L 554.50 666.10 L 552.10 668.70 L 548.60 671.50 L 544.00 674.40 L 537.40 677.80 L 530.90 680.50 L 524.50 682.30 L 518.30 683.30 L 512.10 683.70 L 506.00 683.30 L 499.80 682.20 L 493.60 680.40 L 487.30 677.80 L 480.80 674.40 L 471.90 668.70 L 530.20 634.70 Z" fill="#fed831" fill-rule="nonzero" group-id="29,124,219" node-id="700" stroke="none" target-height="65.599976" target-width="115.399994" target-x="454.9" target-y="625"></path></g></g></g><g node-id="1457"><g node-id="1552"><g node-id="1647"><path d="M 365.90 529.90 L 359.70 526.70 L 353.40 524.00 L 346.80 521.90 L 339.90 520.40 L 332.80 519.40 L 325.40 519.00 L 318.30 519.20 L 311.60 520.10 L 305.20 521.40 L 299.00 523.30 L 293.00 525.70 L 287.30 528.70 L 281.80 532.40 L 277.60 535.80 L 274.60 539.10 L 272.40 542.10 L 271.10 545.00 L 270.40 547.80 L 270.30 550.50 L 270.70 553.50 L 271.70 556.50 L 273.30 559.50 L 275.70 562.60 L 278.90 565.70 L 283.10 569.00 L 288.50 572.40 L 294.70 575.60 L 301.20 578.50 L 308.00 581.10 L 315.30 583.40 L 350.90 562.70 L 326.20 548.50 L 318.50 553.00 L 333.90 561.50 L 311.60 574.40 L 306.60 572.90 L 301.70 570.80 L 297.00 568.40 L 292.40 565.40 L 289.00 562.50 L 286.60 559.70 L 285.10 557.00 L 284.30 554.40 L 284.10 551.80 L 284.40 549.00 L 285.40 546.20 L 287.10 543.40 L 289.70 540.50 L 293.30 537.50 L 298.20 534.30 L 303.90 531.60 L 309.60 529.40 L 315.50 527.90 L 321.50 527.00 L 327.80 526.70 L 334.30 527.00 L 340.40 527.90 L 346.30 529.40 L 351.90 531.60 L 357.40 534.30 L 362.30 537.50 L 366.00 540.40 L 368.80 543.10 L 370.70 545.70 L 380.90 542.40 L 379.10 539.80 L 376.20 536.80 L 371.90 533.50 L 365.90 529.90 Z" fill="#fed831" fill-rule="nonzero" group-id="30,125,220" node-id="711" stroke="none" target-height="64.400024" target-width="110.600006" target-x="270.3" target-y="519"></path></g></g></g><g node-id="1458"><g node-id="1553"><g node-id="1648"><path d="M 597.90 736.30 L 808.50 619.30 L 416.10 388.50 L 208.70 509.10 L 597.90 736.30 Z" fill="#000000" fill-opacity="0.09803922" fill-rule="nonzero" group-id="31,126,221" node-id="722" stroke="none" target-height="347.8" target-width="599.8" target-x="208.7" target-y="388.5"></path></g></g></g><g node-id="1459"><g node-id="1554"><g node-id="1649"><path d="M 860.00 489.00 L 855.10 494.40 L 851.00 500.10 L 847.70 506.00 L 845.10 512.30 L 843.30 518.80 L 842.10 525.80 L 841.80 533.10 L 842.10 540.50 L 843.30 547.40 L 845.10 554.00 L 847.70 560.20 L 851.00 566.20 L 855.10 571.80 L 860.00 577.30 L 865.40 582.20 L 871.10 586.30 L 877.00 589.60 L 883.30 592.10 L 889.80 594.00 L 896.80 595.10 L 904.10 595.50 L 911.50 595.10 L 918.40 594.00 L 925.00 592.10 L 931.20 589.60 L 937.10 586.30 L 942.80 582.20 L 948.30 577.30 L 953.20 571.80 L 957.20 566.20 L 960.60 560.20 L 963.10 554.00 L 965.00 547.40 L 966.10 540.50 L 966.50 533.10 L 966.10 525.80 L 965.00 518.80 L 963.10 512.30 L 960.60 506.00 L 957.20 500.10 L 953.20 494.40 L 948.30 489.00 L 942.80 484.10 L 937.10 480.00 L 931.20 476.70 L 925.00 474.10 L 918.40 472.30 L 911.50 471.10 L 904.10 470.80 L 896.80 471.10 L 889.80 472.30 L 883.30 474.10 L 877.00 476.70 L 871.10 480.00 L 865.40 484.10 L 860.00 489.00 Z" fill="#dff4fe" fill-opacity="0" fill-rule="nonzero" group-id="32,127,222" node-id="733" stroke="none" target-height="124.70001" target-width="124.70001" target-x="841.8" target-y="470.8"></path></g></g></g><g node-id="1460"><g node-id="1555"><g node-id="1650"><path d="M 866.90 496.30 L 862.70 501.00 L 859.20 505.90 L 856.50 511.00 L 854.30 516.20 L 852.70 521.70 L 851.80 527.50 L 851.50 533.50 L 851.80 539.70 L 852.70 545.60 L 854.30 551.20 L 856.50 556.50 L 859.30 561.60 L 862.70 566.50 L 866.90 571.20 L 871.50 575.30 L 876.30 578.80 L 881.30 581.60 L 886.50 583.70 L 892.10 585.30 L 897.90 586.30 L 904.10 586.60 L 910.30 586.30 L 916.20 585.30 L 921.70 583.70 L 927.00 581.60 L 932.00 578.80 L 936.80 575.30 L 941.40 571.20 L 945.50 566.50 L 949.00 561.60 L 951.80 556.50 L 953.90 551.20 L 955.50 545.60 L 956.40 539.70 L 956.80 533.50 L 956.50 527.50 L 955.50 521.70 L 954.00 516.20 L 951.80 511.00 L 949.00 505.90 L 945.50 501.00 L 941.40 496.30 L 936.80 492.10 L 932.00 488.70 L 927.00 485.90 L 921.70 483.70 L 916.20 482.20 L 910.30 481.20 L 904.10 480.90 L 897.90 481.20 L 892.10 482.20 L 886.50 483.70 L 881.30 485.90 L 876.30 488.70 L 871.50 492.10 L 866.90 496.30 Z" fill="#dff4fe" fill-opacity="0.03137255" fill-rule="nonzero" group-id="33,128,223" node-id="744" stroke="none" target-height="105.69998" target-width="105.29999" target-x="851.5" target-y="480.9"></path></g></g></g><g node-id="1461"><g node-id="1556"><g node-id="1651"><path d="M 873.70 504.00 L 869.90 508.40 L 866.70 513.00 L 864.30 517.80 L 862.60 523.00 L 861.60 528.50 L 861.20 534.30 L 861.60 540.20 L 862.60 545.70 L 864.30 550.90 L 866.70 555.70 L 869.90 560.30 L 873.70 564.70 L 878.10 568.60 L 882.80 571.70 L 887.60 574.10 L 892.80 575.90 L 898.20 576.90 L 904.10 577.30 L 910.00 576.90 L 915.50 575.90 L 920.60 574.10 L 925.50 571.70 L 930.10 568.60 L 934.50 564.70 L 938.40 560.30 L 941.50 555.70 L 943.90 550.90 L 945.60 545.70 L 946.70 540.20 L 947.10 534.30 L 946.70 528.50 L 945.60 523.00 L 943.90 517.80 L 941.50 513.00 L 938.40 508.40 L 934.50 504.00 L 930.10 500.10 L 925.50 497.00 L 920.60 494.60 L 915.50 492.80 L 910.00 491.80 L 904.10 491.40 L 898.20 491.80 L 892.80 492.80 L 887.60 494.60 L 882.80 497.00 L 878.10 500.10 L 873.70 504.00 Z" fill="#dff4fe" fill-opacity="0.06666667" fill-rule="nonzero" group-id="34,129,224" node-id="755" stroke="none" target-height="85.899994" target-width="85.89996" target-x="861.2" target-y="491.4"></path></g></g></g><g node-id="1462"><g node-id="1557"><g node-id="1652"><path d="M 880.60 511.70 L 877.60 515.10 L 875.20 518.60 L 873.30 522.40 L 872.00 526.40 L 871.20 530.60 L 870.90 535.20 L 871.20 539.70 L 872.00 543.90 L 873.30 547.90 L 875.20 551.70 L 877.60 555.20 L 880.60 558.60 L 884.00 561.70 L 887.60 564.10 L 891.40 565.90 L 895.30 567.30 L 899.60 568.10 L 904.10 568.40 L 908.70 568.10 L 912.90 567.30 L 916.90 565.90 L 920.60 564.10 L 924.20 561.70 L 927.60 558.60 L 930.60 555.20 L 933.00 551.70 L 934.90 547.90 L 936.20 543.90 L 937.10 539.70 L 937.30 535.20 L 937.10 530.60 L 936.20 526.40 L 934.90 522.40 L 933.00 518.60 L 930.60 515.10 L 927.60 511.70 L 924.20 508.70 L 920.60 506.20 L 916.90 504.40 L 912.90 503.00 L 908.70 502.20 L 904.10 501.90 L 899.60 502.20 L 895.30 503.00 L 891.40 504.40 L 887.60 506.20 L 884.00 508.70 L 880.60 511.70 Z" fill="#dff4fe" fill-opacity="0.09803922" fill-rule="nonzero" group-id="35,130,225" node-id="766" stroke="none" target-height="66.50003" target-width="66.39996" target-x="870.9" target-y="501.9"></path></g></g></g><g node-id="1463"><g node-id="1558"><g node-id="1653"><path d="M 887.50 519.00 L 885.00 521.90 L 883.10 524.90 L 881.70 528.20 L 880.90 531.70 L 880.60 535.60 L 880.90 539.40 L 881.70 542.90 L 883.10 546.20 L 885.00 549.30 L 887.50 552.20 L 890.40 554.70 L 893.50 556.60 L 896.80 557.90 L 900.30 558.80 L 904.10 559.10 L 907.90 558.80 L 911.50 557.90 L 914.70 556.60 L 917.80 554.70 L 920.70 552.20 L 923.20 549.30 L 925.10 546.20 L 926.50 542.90 L 927.30 539.40 L 927.60 535.60 L 927.30 531.70 L 926.50 528.20 L 925.10 524.90 L 923.20 521.90 L 920.70 519.00 L 917.80 516.50 L 914.70 514.50 L 911.50 513.20 L 907.90 512.40 L 904.10 512.10 L 900.30 512.40 L 896.80 513.20 L 893.50 514.50 L 890.40 516.50 L 887.50 519.00 Z" fill="#dff4fe" fill-opacity="0.12941177" fill-rule="nonzero" group-id="36,131,226" node-id="777" stroke="none" target-height="47" target-width="47" target-x="880.6" target-y="512.1"></path></g></g></g><g node-id="1464"><g node-id="1559"><g node-id="1654"><path d="M 894.40 526.70 L 892.60 528.80 L 891.40 531.10 L 890.60 533.60 L 890.40 536.40 L 890.60 539.10 L 891.40 541.60 L 892.60 543.90 L 894.40 546.10 L 896.60 547.90 L 898.90 549.10 L 901.40 549.90 L 904.10 550.10 L 906.90 549.90 L 909.40 549.10 L 911.70 547.90 L 913.80 546.10 L 915.60 543.90 L 916.90 541.60 L 917.60 539.10 L 917.90 536.40 L 917.60 533.60 L 916.90 531.10 L 915.60 528.80 L 913.80 526.70 L 911.70 524.90 L 909.40 523.60 L 906.90 522.90 L 904.10 522.60 L 901.40 522.90 L 898.90 523.60 L 896.60 524.90 L 894.40 526.70 Z" fill="#dff4fe" fill-opacity="0.16470589" fill-rule="nonzero" group-id="37,132,227" node-id="788" stroke="none" target-height="27.5" target-width="27.5" target-x="890.4" target-y="522.6"></path></g></g></g><g node-id="1465"><g node-id="1560"><g node-id="1655"><path d="M 900.10 537.20 L 900.30 538.80 L 901.00 539.90 L 902.20 540.60 L 904.10 540.80 L 906.00 540.60 L 907.20 539.90 L 907.90 538.80 L 908.20 537.20 L 907.90 535.30 L 907.20 534.10 L 906.00 533.40 L 904.10 533.10 L 902.30 533.40 L 901.10 534.10 L 900.30 535.30 L 900.10 537.20 Z" fill="#dff4fe" fill-opacity="0.2" fill-rule="nonzero" group-id="38,133,228" node-id="799" stroke="none" target-height="7.700012" target-width="8.100037" target-x="900.1" target-y="533.1"></path></g></g></g><g node-id="1466"><g node-id="1561"><g node-id="1656"><path d="M 598.80 769.20 L 598.40 761.90 L 597.20 754.90 L 595.40 748.40 L 592.80 742.20 L 589.50 736.20 L 585.40 730.50 L 580.50 725.10 L 575.10 720.20 L 569.40 716.10 L 563.50 712.80 L 557.20 710.20 L 550.70 708.40 L 543.80 707.30 L 536.40 706.90 L 529.00 707.30 L 522.10 708.40 L 515.50 710.20 L 509.30 712.80 L 503.40 716.10 L 497.70 720.20 L 492.20 725.10 L 487.80 729.90 L 484.00 734.80 L 480.80 739.90 L 478.30 745.30 L 476.20 750.80 L 474.80 756.70 L 473.90 762.80 L 473.60 769.20 L 473.90 775.70 L 474.80 781.80 L 476.20 787.70 L 478.30 793.20 L 480.80 798.60 L 484.00 803.70 L 487.80 808.60 L 492.20 813.40 L 497.70 818.30 L 503.40 822.40 L 509.30 825.70 L 515.50 828.20 L 522.10 830.10 L 529.00 831.20 L 536.40 831.60 L 543.80 831.20 L 550.70 830.10 L 557.20 828.20 L 563.50 825.70 L 569.40 822.40 L 575.10 818.30 L 580.50 813.40 L 585.40 807.90 L 589.50 802.30 L 592.80 796.30 L 595.40 790.10 L 597.20 783.50 L 598.40 776.60 L 598.80 769.20 Z" fill="#dff4fe" fill-opacity="0" fill-rule="nonzero" group-id="39,134,229" node-id="810" stroke="none" target-height="124.69995" target-width="125.19998" target-x="473.6" target-y="706.9"></path></g></g></g><g node-id="1467"><g node-id="1562"><g node-id="1657"><path d="M 589.00 770.10 L 588.70 763.80 L 587.80 758.00 L 586.20 752.50 L 584.00 747.20 L 581.20 742.20 L 577.80 737.40 L 573.60 732.80 L 568.90 728.60 L 564.00 725.20 L 559.00 722.40 L 553.70 720.20 L 548.20 718.70 L 542.50 717.70 L 536.40 717.40 L 530.20 717.70 L 524.30 718.70 L 518.80 720.20 L 513.50 722.40 L 508.50 725.20 L 503.70 728.70 L 499.10 732.80 L 494.90 737.40 L 491.30 742.20 L 488.50 747.20 L 486.20 752.50 L 484.60 758.00 L 483.70 763.80 L 483.30 770.10 L 483.70 776.10 L 484.60 781.90 L 486.20 787.30 L 488.40 792.60 L 491.30 797.70 L 494.80 802.60 L 499.10 807.30 L 503.70 811.50 L 508.50 814.90 L 513.50 817.70 L 518.80 819.90 L 524.30 821.40 L 530.20 822.40 L 536.40 822.70 L 542.50 822.40 L 548.20 821.40 L 553.70 819.90 L 559.00 817.70 L 564.00 814.90 L 568.90 811.50 L 573.60 807.30 L 577.80 802.60 L 581.30 797.70 L 584.10 792.60 L 586.20 787.40 L 587.80 781.90 L 588.70 776.10 L 589.00 770.10 Z" fill="#dff4fe" fill-opacity="0.03137255" fill-rule="nonzero" group-id="40,135,230" node-id="821" stroke="none" target-height="105.29999" target-width="105.70001" target-x="483.3" target-y="717.4"></path></g></g></g><g node-id="1468"><g node-id="1563"><g node-id="1658"><path d="M 566.80 740.10 L 562.40 736.20 L 557.80 733.10 L 552.90 730.70 L 547.70 728.90 L 542.30 727.90 L 536.40 727.50 L 530.50 727.90 L 525.00 728.90 L 519.90 730.70 L 515.00 733.10 L 510.40 736.20 L 506.00 740.10 L 502.10 744.50 L 499.00 749.10 L 496.60 753.90 L 494.90 759.10 L 493.80 764.60 L 493.50 770.50 L 493.80 776.30 L 494.90 781.80 L 496.60 787.00 L 499.00 791.80 L 502.10 796.40 L 506.00 800.80 L 510.40 804.70 L 515.00 807.80 L 519.90 810.20 L 525.00 812.00 L 530.50 813.00 L 536.40 813.40 L 542.30 813.00 L 547.70 812.00 L 552.90 810.20 L 557.80 807.80 L 562.40 804.70 L 566.80 800.80 L 570.60 796.40 L 573.80 791.80 L 576.20 787.00 L 577.90 781.80 L 579.00 776.30 L 579.30 770.50 L 579.00 764.70 L 577.90 759.30 L 576.20 754.20 L 573.80 749.30 L 570.70 744.60 L 566.80 740.10 Z" fill="#dff4fe" fill-opacity="0.06666667" fill-rule="nonzero" group-id="41,136,231" node-id="832" stroke="none" target-height="85.900024" target-width="85.79999" target-x="493.5" target-y="727.5"></path></g></g></g><g node-id="1469"><g node-id="1564"><g node-id="1659"><path d="M 559.90 747.80 L 556.50 744.80 L 552.90 742.40 L 549.10 740.50 L 545.20 739.20 L 540.90 738.30 L 536.40 738.10 L 531.80 738.30 L 527.60 739.20 L 523.60 740.50 L 519.90 742.40 L 516.30 744.80 L 512.90 747.80 L 509.90 751.20 L 507.50 754.70 L 505.60 758.50 L 504.30 762.50 L 503.50 766.70 L 503.20 771.30 L 503.50 775.80 L 504.30 780.00 L 505.60 784.00 L 507.50 787.80 L 509.90 791.40 L 512.90 794.80 L 516.30 797.80 L 519.90 800.20 L 523.60 802.00 L 527.60 803.40 L 531.80 804.20 L 536.40 804.50 L 540.90 804.20 L 545.20 803.40 L 549.10 802.00 L 552.90 800.20 L 556.50 797.80 L 559.90 794.80 L 562.90 791.40 L 565.30 787.80 L 567.20 784.00 L 568.50 780.00 L 569.30 775.80 L 569.60 771.30 L 569.30 766.70 L 568.50 762.50 L 567.20 758.50 L 565.30 754.70 L 562.90 751.20 L 559.90 747.80 Z" fill="#dff4fe" fill-opacity="0.09803922" fill-rule="nonzero" group-id="42,137,232" node-id="843" stroke="none" target-height="66.400024" target-width="66.39996" target-x="503.2" target-y="738.1"></path></g></g></g><g node-id="1470"><g node-id="1565"><g node-id="1660"><path d="M 559.50 771.70 L 559.20 767.80 L 558.40 764.30 L 557.10 761.10 L 555.30 758.20 L 553.00 755.50 L 550.10 753.00 L 547.00 751.10 L 543.70 749.70 L 540.20 748.90 L 536.40 748.60 L 532.60 748.90 L 529.00 749.70 L 525.80 751.10 L 522.70 753.00 L 519.80 755.50 L 517.30 758.20 L 515.40 761.20 L 514.00 764.40 L 513.20 767.80 L 512.90 771.70 L 513.20 775.50 L 514.00 779.00 L 515.40 782.30 L 517.30 785.40 L 519.80 788.30 L 522.70 790.80 L 525.80 792.70 L 529.00 794.10 L 532.60 794.90 L 536.40 795.20 L 540.20 794.90 L 543.70 794.10 L 547.00 792.70 L 550.10 790.80 L 553.00 788.30 L 555.30 785.40 L 557.10 782.30 L 558.40 779.00 L 559.20 775.50 L 559.50 771.70 Z" fill="#dff4fe" fill-opacity="0.12941177" fill-rule="nonzero" group-id="43,138,233" node-id="854" stroke="none" target-height="46.600037" target-width="46.599976" target-x="512.9" target-y="748.6"></path></g></g></g><g node-id="1471"><g node-id="1566"><g node-id="1661"><path d="M 549.80 772.50 L 549.50 769.70 L 548.70 767.20 L 547.50 764.90 L 545.70 762.80 L 543.70 761.00 L 541.60 759.70 L 539.10 759.00 L 536.40 758.70 L 533.60 759.00 L 531.10 759.70 L 528.80 761.00 L 526.70 762.80 L 524.90 764.90 L 523.60 767.20 L 522.90 769.70 L 522.60 772.50 L 522.90 775.20 L 523.60 777.70 L 524.90 780.10 L 526.70 782.20 L 528.80 784.00 L 531.10 785.20 L 533.60 786.00 L 536.40 786.30 L 539.10 786.00 L 541.60 785.20 L 543.70 784.00 L 545.70 782.20 L 547.50 780.10 L 548.70 777.70 L 549.50 775.20 L 549.80 772.50 Z" fill="#dff4fe" fill-opacity="0.16470589" fill-rule="nonzero" group-id="44,139,234" node-id="865" stroke="none" target-height="27.599976" target-width="27.200012" target-x="522.6" target-y="758.7"></path></g></g></g><g node-id="1472"><g node-id="1567"><g node-id="1662"><path d="M 540.00 773.30 L 539.80 771.40 L 539.10 770.20 L 538.00 769.50 L 536.40 769.20 L 534.50 769.50 L 533.30 770.30 L 532.60 771.50 L 532.30 773.30 L 532.60 775.10 L 533.30 776.30 L 534.50 777.10 L 536.40 777.30 L 538.00 777.10 L 539.10 776.40 L 539.80 775.20 L 540.00 773.30 Z" fill="#dff4fe" fill-opacity="0.2" fill-rule="nonzero" group-id="45,140,235" node-id="876" stroke="none" target-height="8.099976" target-width="7.700012" target-x="532.3" target-y="769.2"></path></g></g></g><g node-id="1473"><g node-id="1568"><g node-id="1663"><path d="M 489.80 281.60 L 489.40 274.30 L 488.30 267.30 L 486.40 260.80 L 483.90 254.50 L 480.60 248.60 L 476.50 242.90 L 471.60 237.50 L 466.10 232.60 L 460.50 228.50 L 454.50 225.20 L 448.30 222.60 L 441.70 220.80 L 434.80 219.60 L 427.40 219.30 L 420.10 219.60 L 413.10 220.80 L 406.60 222.60 L 400.40 225.20 L 394.40 228.50 L 388.70 232.60 L 383.30 237.50 L 378.40 242.90 L 374.30 248.60 L 371.00 254.50 L 368.40 260.80 L 366.60 267.30 L 365.50 274.30 L 365.10 281.60 L 365.50 289.00 L 366.60 295.90 L 368.40 302.50 L 371.00 308.70 L 374.30 314.70 L 378.40 320.30 L 383.30 325.80 L 388.70 330.70 L 394.40 334.80 L 400.40 338.10 L 406.60 340.60 L 413.10 342.50 L 420.10 343.60 L 427.40 344.00 L 434.80 343.60 L 441.70 342.50 L 448.30 340.60 L 454.50 338.10 L 460.50 334.80 L 466.10 330.70 L 471.60 325.80 L 476.50 320.30 L 480.60 314.70 L 483.90 308.70 L 486.40 302.50 L 488.30 295.90 L 489.40 289.00 L 489.80 281.60 Z" fill="#dff4fe" fill-opacity="0" fill-rule="nonzero" group-id="46,141,236" node-id="887" stroke="none" target-height="124.7" target-width="124.69998" target-x="365.1" target-y="219.3"></path></g></g></g><g node-id="1474"><g node-id="1569"><g node-id="1664"><path d="M 480.10 282.40 L 479.80 276.20 L 478.80 270.40 L 477.20 264.80 L 475.10 259.60 L 472.30 254.60 L 468.80 249.80 L 464.70 245.20 L 460.10 241.00 L 455.30 237.60 L 450.30 234.80 L 445.00 232.60 L 439.50 231.10 L 433.70 230.10 L 427.40 229.80 L 421.20 230.10 L 415.40 231.10 L 409.80 232.60 L 404.60 234.80 L 399.60 237.60 L 394.80 241.00 L 390.20 245.20 L 386.00 249.80 L 382.60 254.60 L 379.80 259.60 L 377.60 264.80 L 376.10 270.40 L 375.10 276.20 L 374.80 282.40 L 375.10 288.70 L 376.10 294.50 L 377.60 300.00 L 379.80 305.30 L 382.60 310.30 L 386.00 315.10 L 390.20 319.70 L 394.80 323.80 L 399.60 327.30 L 404.60 330.10 L 409.80 332.20 L 415.40 333.80 L 421.20 334.80 L 427.40 335.10 L 433.70 334.80 L 439.50 333.80 L 445.00 332.20 L 450.30 330.10 L 455.30 327.30 L 460.10 323.80 L 464.70 319.70 L 468.80 315.10 L 472.30 310.30 L 475.10 305.30 L 477.20 300.00 L 478.80 294.50 L 479.80 288.70 L 480.10 282.40 Z" fill="#dff4fe" fill-opacity="0.03137255" fill-rule="nonzero" group-id="47,142,237" node-id="898" stroke="none" target-height="105.3" target-width="105.30002" target-x="374.8" target-y="229.8"></path></g></g></g><g node-id="1475"><g node-id="1570"><g node-id="1665"><path d="M 470.40 283.30 L 470.00 277.40 L 469.00 271.90 L 467.20 266.70 L 464.80 261.90 L 461.70 257.30 L 457.80 252.90 L 453.40 249.00 L 448.80 245.90 L 444.00 243.50 L 438.80 241.70 L 433.30 240.70 L 427.40 240.30 L 421.60 240.70 L 416.10 241.70 L 410.90 243.50 L 406.10 245.90 L 401.50 249.00 L 397.10 252.90 L 393.20 257.30 L 390.10 261.90 L 387.70 266.70 L 385.90 271.90 L 384.90 277.40 L 384.50 283.30 L 384.90 289.10 L 385.90 294.60 L 387.70 299.80 L 390.10 304.60 L 393.20 309.20 L 397.10 313.60 L 401.50 317.50 L 406.10 320.60 L 410.90 323.00 L 416.10 324.80 L 421.60 325.80 L 427.40 326.20 L 433.30 325.80 L 438.80 324.80 L 444.00 323.00 L 448.80 320.60 L 453.40 317.50 L 457.80 313.60 L 461.70 309.20 L 464.80 304.60 L 467.20 299.80 L 469.00 294.60 L 470.00 289.10 L 470.40 283.30 Z" fill="#dff4fe" fill-opacity="0.06666667" fill-rule="nonzero" group-id="48,143,238" node-id="909" stroke="none" target-height="85.90001" target-width="85.899994" target-x="384.5" target-y="240.3"></path></g></g></g><g node-id="1476"><g node-id="1571"><g node-id="1666"><path d="M 460.70 283.70 L 460.40 279.10 L 459.60 274.90 L 458.20 270.90 L 456.40 267.10 L 453.90 263.60 L 450.90 260.20 L 447.50 257.20 L 444.00 254.70 L 440.20 252.90 L 436.20 251.50 L 432.00 250.70 L 427.40 250.40 L 422.90 250.70 L 418.70 251.50 L 414.70 252.90 L 410.90 254.70 L 407.40 257.20 L 404.00 260.20 L 400.90 263.60 L 398.50 267.10 L 396.70 270.90 L 395.30 274.90 L 394.50 279.10 L 394.20 283.70 L 394.50 288.20 L 395.30 292.40 L 396.70 296.40 L 398.50 300.20 L 400.90 303.70 L 404.00 307.10 L 407.40 310.20 L 410.90 312.60 L 414.70 314.40 L 418.70 315.80 L 422.90 316.60 L 427.40 316.90 L 432.00 316.60 L 436.20 315.80 L 440.20 314.40 L 444.00 312.60 L 447.50 310.20 L 450.90 307.10 L 453.90 303.70 L 456.40 300.20 L 458.20 296.40 L 459.60 292.40 L 460.40 288.20 L 460.70 283.70 Z" fill="#dff4fe" fill-opacity="0.09803922" fill-rule="nonzero" group-id="49,144,239" node-id="920" stroke="none" target-height="66.5" target-width="66.5" target-x="394.2" target-y="250.4"></path></g></g></g><g node-id="1477"><g node-id="1572"><g node-id="1667"><path d="M 450.90 284.50 L 450.70 280.60 L 449.80 277.10 L 448.50 273.80 L 446.60 270.80 L 444.00 267.90 L 441.10 265.40 L 438.10 263.40 L 434.80 262.10 L 431.30 261.30 L 427.40 261.00 L 423.60 261.30 L 420.10 262.10 L 416.80 263.40 L 413.70 265.40 L 410.80 267.90 L 408.30 270.80 L 406.40 273.80 L 405.10 277.10 L 404.20 280.60 L 404.00 284.50 L 404.20 288.30 L 405.10 291.80 L 406.40 295.10 L 408.30 298.20 L 410.80 301.10 L 413.70 303.60 L 416.80 305.50 L 420.10 306.80 L 423.60 307.70 L 427.40 308.00 L 431.30 307.70 L 434.80 306.80 L 438.10 305.50 L 441.10 303.60 L 444.00 301.10 L 446.60 298.20 L 448.50 295.10 L 449.80 291.80 L 450.70 288.30 L 450.90 284.50 Z" fill="#dff4fe" fill-opacity="0.12941177" fill-rule="nonzero" group-id="50,145,240" node-id="931" stroke="none" target-height="47" target-width="46.899994" target-x="404" target-y="261"></path></g></g></g><g node-id="1478"><g node-id="1573"><g node-id="1668"><path d="M 441.20 285.30 L 441.00 282.50 L 440.20 280.00 L 439.00 277.70 L 437.20 275.60 L 435.00 273.80 L 432.70 272.50 L 430.20 271.80 L 427.40 271.50 L 424.70 271.80 L 422.20 272.50 L 419.90 273.80 L 417.70 275.60 L 415.90 277.70 L 414.70 280.00 L 413.90 282.50 L 413.70 285.30 L 413.90 288.00 L 414.70 290.50 L 415.90 292.60 L 419.90 296.40 L 422.20 297.60 L 424.70 298.40 L 427.40 298.60 L 430.20 298.40 L 432.70 297.60 L 435.00 296.40 L 437.20 294.60 L 439.00 292.40 L 440.20 290.20 L 441.00 287.80 L 441.20 285.30 Z" fill="#dff4fe" fill-opacity="0.16470589" fill-rule="nonzero" group-id="51,146,241" node-id="942" stroke="none" target-height="27.100006" target-width="27.5" target-x="413.7" target-y="271.5"></path></g></g></g><g node-id="1479"><g node-id="1574"><g node-id="1669"><path d="M 431.50 285.70 L 431.20 283.80 L 430.50 282.60 L 429.30 281.90 L 427.40 281.60 L 425.60 281.90 L 424.40 282.60 L 423.70 283.80 L 423.40 285.70 L 423.70 287.50 L 424.40 288.70 L 425.60 289.50 L 427.40 289.70 L 429.30 289.50 L 430.50 288.70 L 431.20 287.50 L 431.50 285.70 Z" fill="#dff4fe" fill-opacity="0.2" fill-rule="nonzero" group-id="52,147,242" node-id="953" stroke="none" target-height="8.100006" target-width="8.100006" target-x="423.4" target-y="281.6"></path></g></g></g><g node-id="1480"><g node-id="1575"><g node-id="1670"><path d="M 409.60 371.50 L 232.60 474.40 L 657.90 719.80 L 834.90 617.00 L 409.60 371.50 Z" fill="#dbb956" fill-rule="nonzero" group-id="53,148,243" node-id="964" stroke="none" target-height="348.3" target-width="602.30005" target-x="232.6" target-y="371.5"></path></g></g></g><g node-id="1481"><g node-id="1576"><g node-id="1671"><path d="M 428.30 281.60 L 265.80 376.00 L 655.90 601.20 L 817.90 506.80 L 428.30 281.60 Z" fill="#fee882" fill-rule="nonzero" group-id="54,149,244" node-id="975" stroke="none" target-height="319.6" target-width="552.10004" target-x="265.8" target-y="281.6"></path></g></g></g><g node-id="1482"><g node-id="1577"><g node-id="1672"><path d="M 428.30 281.60 L 286.10 376.00 L 655.90 601.20 L 817.90 506.80 L 428.30 281.60 Z" fill="#fee882" fill-rule="nonzero" group-id="55,150,245" node-id="986" stroke="none" target-height="319.6" target-width="531.80005" target-x="286.1" target-y="281.6"></path></g></g></g><g node-id="1483"><g node-id="1578"><g node-id="1673"><path d="M 428.30 281.60 L 286.10 376.00 L 658.30 603.20 L 804.50 506.80 L 428.30 281.60 Z" fill="#fed831" fill-rule="nonzero" group-id="56,151,246" node-id="997" stroke="none" target-height="321.6" target-width="518.4" target-x="286.1" target-y="281.6"></path></g></g></g><g node-id="1484"><g node-id="1579"><g node-id="1674"><path d="M 657.90 719.80 L 834.90 617.00 L 817.90 506.80 L 655.90 601.20 L 657.90 719.80 Z" fill="#fdb12c" fill-rule="nonzero" group-id="57,152,247" node-id="1008" stroke="none" target-height="213" target-width="179" target-x="655.9" target-y="506.8"></path></g></g></g><g node-id="1485"><g node-id="1580"><g node-id="1675"><path d="M 265.80 376.00 L 232.60 474.40 L 657.90 719.80 L 655.90 601.20 L 265.80 376.00 Z" fill="#fd9d28" fill-rule="nonzero" group-id="58,153,248" node-id="1019" stroke="none" target-height="343.8" target-width="425.30002" target-x="232.6" target-y="376"></path></g></g></g><g node-id="1486"><g node-id="1581"><g node-id="1676"><path d="M 278.80 500.70 L 328.20 529.50 L 420.20 465.10 L 372.00 437.10 L 278.80 500.70 Z" fill="#fdbb2c" fill-rule="nonzero" group-id="59,154,249" node-id="1030" stroke="none" target-height="92.399994" target-width="141.40002" target-x="278.8" target-y="437.1"></path></g></g></g><g node-id="1487"><g node-id="1582"><g node-id="1677"><path d="M 507.60 514.90 L 459.00 487.00 L 365.90 550.50 L 415.30 579.30 L 507.60 514.90 Z" fill="#fdbb2c" fill-rule="nonzero" group-id="60,155,250" node-id="1041" stroke="none" target-height="92.29999" target-width="141.70001" target-x="365.9" target-y="487"></path></g></g></g><g node-id="1488"><g node-id="1583"><g node-id="1678"><path d="M 655.90 601.20 L 628.70 585.40 L 538.00 650.20 L 567.20 667.60 L 655.90 601.20 Z" fill="#fdbb2c" fill-rule="nonzero" group-id="61,156,251" node-id="1052" stroke="none" target-height="82.19995" target-width="117.900024" target-x="538" target-y="585.4"></path></g></g></g><g node-id="1489"><g node-id="1584"><g node-id="1679"><path d="M 436.80 306.30 L 324.60 376.00 L 638.40 566.30 L 764.00 494.70 L 436.80 306.30 Z" fill="#fdc12d" fill-rule="nonzero" group-id="62,157,252" node-id="1063" stroke="none" target-height="260" target-width="439.4" target-x="324.6" target-y="306.3"></path></g></g></g><g node-id="1490"><g node-id="1585"><g node-id="1680"><path d="M 563.40 417.20 L 563.50 414.20 L 562.90 411.30 L 561.80 408.50 L 560.00 405.70 L 557.50 402.80 L 554.10 399.90 L 549.70 396.90 L 543.60 394.00 L 537.20 391.70 L 530.20 390.00 L 522.60 389.10 L 514.40 388.90 L 506.20 389.60 L 498.40 391.00 L 490.80 393.20 L 483.50 396.10 L 476.40 399.80 L 470.60 403.50 L 466.20 407.20 L 463.00 410.70 L 460.70 414.10 L 459.30 417.50 L 458.60 420.80 L 458.70 424.30 L 459.50 427.70 L 461.20 430.90 L 463.80 434.20 L 467.40 437.40 L 472.30 440.70 L 478.40 443.70 L 484.80 446.10 L 491.60 447.80 L 498.90 448.80 L 506.70 449.20 L 513.60 448.80 L 520.20 447.80 L 526.70 446.20 L 533.10 444.00 L 539.40 441.20 L 545.60 437.90 L 551.40 434.20 L 555.80 430.70 L 559.00 427.30 L 561.30 423.90 L 562.70 420.60 L 563.40 417.20 M 541.20 401.40 L 544.90 403.90 L 547.50 406.40 L 549.10 408.90 L 550.00 411.50 L 550.20 414.20 L 549.70 417.20 L 548.50 420.30 L 546.50 423.30 L 543.80 426.40 L 540.00 429.50 L 535.10 432.60 L 529.80 435.40 L 524.40 437.70 L 518.90 439.50 L 513.30 440.80 L 507.60 441.50 L 501.10 441.80 L 495.30 441.50 L 490.00 440.40 L 485.20 438.80 L 480.80 436.60 L 477.20 434.10 L 474.70 431.70 L 473.00 429.20 L 472.10 426.70 L 471.90 424.10 L 472.30 421.20 L 473.40 418.20 L 475.20 415.10 L 478.00 412.00 L 481.80 408.80 L 486.90 405.50 L 493.50 402.10 L 500.20 399.60 L 507.10 397.70 L 514.00 396.50 L 520.50 396.20 L 526.30 396.60 L 531.70 397.60 L 536.60 399.20 L 541.20 401.40 Z" fill="#fed831" fill-rule="nonzero" group-id="63,158,253" node-id="1074" stroke="none" target-height="60.30002" target-width="104.899994" target-x="458.6" target-y="388.9"></path></g></g></g><g node-id="1491"><g node-id="1586"><g node-id="1681"><path d="M 537.90 468.20 L 603.90 429.80 L 594.20 424.50 L 520.50 467.00 L 561.80 490.90 L 569.90 486.50 L 537.90 468.20 Z" fill="#fed831" fill-rule="nonzero" group-id="64,159,254" node-id="1085" stroke="none" target-height="66.399994" target-width="83.400024" target-x="520.5" target-y="424.5"></path></g></g></g><g node-id="1492"><g node-id="1587"><g node-id="1682"><path d="M 672.40 509.90 L 677.40 506.70 L 681.20 503.50 L 684.10 500.50 L 686.10 497.50 L 687.40 494.50 L 688.10 491.50 L 688.20 488.50 L 687.80 485.90 L 686.80 483.30 L 685.10 480.40 L 682.40 477.20 L 678.70 473.80 L 673.70 470.00 L 660.50 462.00 L 653.30 458.30 L 645.30 454.90 L 572.80 497.00 L 581.60 503.00 L 589.40 507.50 L 596.80 511.60 L 604.10 514.90 L 611.30 517.30 L 618.50 519.10 L 625.60 520.10 L 632.70 520.50 L 639.70 520.20 L 646.50 519.30 L 653.10 517.90 L 659.60 515.80 L 666.10 513.20 L 672.40 509.90 M 648.10 464.60 L 655.90 468.20 L 665.60 474.00 L 669.40 477.20 L 672.10 480.10 L 673.90 482.80 L 674.90 485.50 L 675.20 488.10 L 674.90 490.70 L 674.00 493.30 L 672.40 496.00 L 669.90 498.60 L 666.50 501.40 L 661.90 504.30 L 655.70 507.50 L 649.50 510.00 L 643.30 511.80 L 637.00 512.80 L 630.70 513.20 L 624.10 512.80 L 617.70 511.80 L 611.30 510.00 L 605.00 507.50 L 598.70 504.30 L 589.80 498.60 L 648.10 464.60 Z" fill="#fed831" fill-rule="nonzero" group-id="65,160,255" node-id="1096" stroke="none" target-height="65.600006" target-width="115.400024" target-x="572.8" target-y="454.9"></path></g></g></g><g node-id="1493"><g node-id="1588"><g node-id="1683"><path d="M 488.60 375.60 L 498.70 372.30 L 496.90 369.70 L 494.00 366.70 L 489.70 363.50 L 477.60 356.50 L 471.20 353.70 L 464.70 351.60 L 457.90 350.10 L 450.90 349.20 L 443.60 348.90 L 436.40 349.10 L 429.60 350.00 L 423.10 351.40 L 417.00 353.20 L 411.10 355.70 L 405.60 358.60 L 400.30 361.80 L 396.20 365.00 L 393.10 368.10 L 390.90 371.20 L 389.40 374.30 L 388.50 377.30 L 388.20 380.40 L 388.50 383.40 L 389.50 386.40 L 391.20 389.40 L 393.50 392.50 L 396.70 395.60 L 401.00 398.90 L 406.40 402.30 L 413.50 406.00 L 420.20 408.90 L 426.80 411.20 L 433.10 412.80 L 468.80 392.60 L 444.00 378.40 L 436.40 382.90 L 451.70 391.40 L 429.50 404.30 L 425.20 403.00 L 420.40 400.90 L 410.30 395.00 L 406.90 392.20 L 404.50 389.50 L 403.00 386.90 L 402.10 384.30 L 401.90 381.70 L 402.20 378.90 L 403.20 376.20 L 404.90 373.30 L 407.50 370.40 L 411.20 367.40 L 416.10 364.20 L 421.50 361.30 L 427.20 359.10 L 433.20 357.50 L 439.40 356.50 L 446.10 356.10 L 452.30 356.50 L 458.40 357.40 L 464.30 359.10 L 470.00 361.30 L 475.60 364.20 L 480.30 367.40 L 483.90 370.30 L 486.70 373.00 L 488.60 375.60 Z" fill="#fed831" fill-rule="nonzero" group-id="66,161,256" node-id="1107" stroke="none" target-height="63.899994" target-width="110.5" target-x="388.2" target-y="348.9"></path></g></g></g><g node-id="1494"><g node-id="1589"><g node-id="1684"><path d="M 796.40 678.10 L 795.30 681.20 L 794.90 684.00 L 795.10 686.60 L 796.00 689.10 L 797.20 690.90 L 798.60 692.30 L 800.20 693.30 L 804.80 695.00 L 808.30 697.20 L 813.00 701.00 L 822.20 709.60 L 825.40 711.70 L 828.70 713.30 L 832.30 714.40 L 836.10 715.00 L 840.30 715.00 L 843.20 714.50 L 845.10 713.70 L 846.30 712.50 L 847.00 710.90 L 847.00 709.70 L 846.40 708.10 L 844.80 705.70 L 841.80 702.50 L 821.50 684.60 L 819.90 682.00 L 818.40 678.50 L 815.80 667.60 L 813.50 670.00 L 810.50 672.30 L 806.80 674.40 L 802.10 676.30 L 796.40 678.10 Z" fill="#000000" fill-rule="nonzero" group-id="67,162,257" node-id="1118" stroke="none" target-height="47.400024" target-width="52.099976" target-x="794.9" target-y="667.6"></path></g></g></g><g node-id="1495"><g node-id="1590"><g node-id="1685"><path d="M 787.10 688.20 L 784.90 690.90 L 782.00 693.60 L 778.20 696.10 L 773.50 698.50 L 767.60 700.80 L 766.60 704.30 L 766.30 707.40 L 766.80 710.10 L 768.00 712.50 L 769.90 714.70 L 772.00 716.10 L 777.20 717.90 L 781.00 720.00 L 786.20 723.70 L 796.60 732.20 L 800.10 734.20 L 803.80 735.70 L 807.70 736.60 L 811.80 736.80 L 816.10 736.50 L 819.00 735.80 L 821.00 734.70 L 822.10 733.30 L 822.70 731.60 L 822.70 730.40 L 822.00 728.80 L 820.10 726.50 L 816.70 723.20 L 794.40 705.70 L 792.30 703.00 L 790.30 699.50 L 788.70 694.70 L 787.10 688.20 Z" fill="#000000" fill-rule="nonzero" group-id="68,163,258" node-id="1129" stroke="none" target-height="48.599976" target-width="56.400024" target-x="766.3" target-y="688.2"></path></g></g></g><g node-id="1496"><g node-id="1591"><g node-id="1686"><path d="M 728.40 520.60 L 713.00 536.00 L 709.40 540.90 L 707.10 545.20 L 705.70 548.80 L 705.10 551.90 L 705.20 554.70 L 705.80 557.10 L 707.10 559.40 L 708.90 561.50 L 712.80 564.60 L 718.40 568.30 L 726.10 572.60 L 736.50 577.60 L 750.10 583.50 L 767.40 590.20 L 789.10 597.90 L 788.50 602.30 L 788.30 610.90 L 789.10 625.90 L 790.40 630.80 L 791.40 637.60 L 792.30 646.90 L 793.20 670.90 L 793.80 676.80 L 794.30 679.10 L 794.80 679.70 L 798.60 681.30 L 802.20 681.90 L 805.70 681.90 L 809.20 681.10 L 812.70 679.40 L 816.20 676.90 L 816.20 664.80 L 818.00 635.80 L 818.70 619.40 L 818.70 611.30 L 818.30 602.80 L 817.40 594.70 L 815.90 587.20 L 813.80 580.10 L 812.70 577.90 L 810.20 574.80 L 805.50 570.30 L 797.80 564.20 L 786.10 555.90 L 769.30 544.90 L 728.40 520.60 Z" fill="#231d21" fill-rule="nonzero" group-id="69,164,259" node-id="1140" stroke="none" target-height="161.30005" target-width="113.60004" target-x="705.1" target-y="520.6"></path></g></g></g><g node-id="1497"><g node-id="1592"><g node-id="1687"><path d="M 728.40 520.60 L 659.90 534.80 L 657.90 551.40 L 658.70 555.90 L 660.00 560.10 L 661.90 564.10 L 664.30 567.90 L 667.40 571.50 L 671.10 575.00 L 675.60 578.20 L 730.00 608.00 L 755.50 622.60 L 755.50 636.00 L 756.60 653.70 L 757.50 659.50 L 766.80 702.40 L 771.70 704.10 L 776.00 705.00 L 779.70 705.20 L 783.00 704.80 L 786.00 703.90 L 788.70 702.40 L 791.10 700.40 L 791.10 671.30 L 790.40 648.90 L 789.30 632.20 L 787.80 620.10 L 786.30 611.60 L 784.60 606.00 L 783.00 602.40 L 781.40 600.40 L 776.50 595.90 L 765.70 587.10 L 718.20 550.10 L 728.40 520.60 Z" fill="#31282e" fill-rule="nonzero" group-id="70,165,260" node-id="1151" stroke="none" target-height="184.60004" target-width="133.19995" target-x="657.9" target-y="520.6"></path></g></g></g><g node-id="1498"><g node-id="1593"><g node-id="1688"><path d="M 666.40 533.50 L 659.90 534.80 L 657.90 551.40 L 658.70 555.90 L 660.00 560.10 L 661.90 564.10 L 664.30 567.90 L 667.40 571.50 L 671.10 575.00 L 675.60 578.20 L 681.00 581.30 L 705.10 594.20 L 730.00 608.00 L 755.50 622.60 L 755.50 636.00 L 756.60 653.70 L 759.90 671.90 L 762.10 685.90 L 764.00 701.60 L 773.70 703.60 L 771.90 694.10 L 769.70 678.40 L 764.10 622.90 L 763.20 616.20 L 762.40 614.20 L 760.80 611.80 L 758.00 609.10 L 753.60 605.80 L 747.10 601.80 L 738.10 597.10 L 710.60 584.40 L 694.70 576.50 L 689.40 573.20 L 684.70 569.50 L 680.40 565.40 L 676.60 560.70 L 673.30 555.50 L 670.40 549.70 L 666.40 533.50 Z" fill="#231d21" fill-rule="nonzero" group-id="71,166,261" node-id="1162" stroke="none" target-height="170.09998" target-width="115.79999" target-x="657.9" target-y="533.5"></path></g></g></g><g node-id="1499"><g node-id="1594"><g node-id="1689"><path d="M 728.40 520.60 L 719.00 529.10 L 741.20 540.50 L 758.80 550.30 L 772.60 558.80 L 783.10 566.00 L 790.90 572.10 L 796.40 577.30 L 800.10 581.70 L 802.50 585.40 L 804.20 589.20 L 805.70 594.30 L 806.90 601.00 L 807.90 609.80 L 808.30 620.90 L 808.10 634.80 L 806.50 681.40 L 809.70 680.90 L 813.60 679.80 L 818.30 678.10 L 820.40 638.50 L 820.70 621.40 L 820.30 610.10 L 819.50 603.10 L 818.10 595.80 L 816.30 588.10 L 813.80 580.10 L 812.70 577.90 L 810.20 574.80 L 805.50 570.30 L 797.80 564.20 L 786.10 555.90 L 769.30 544.90 L 728.40 520.60 Z" fill="#31282e" fill-rule="nonzero" group-id="72,167,262" node-id="1173" stroke="none" target-height="160.80005" target-width="101.70001" target-x="719" target-y="520.6"></path></g></g></g><g node-id="1500"><g node-id="1595"><g node-id="1690"><path d="M 764.40 503.20 L 762.80 504.30 L 761.70 505.60 L 761.20 507.10 L 761.20 508.80 L 761.60 510.90 L 762.30 512.00 L 763.20 512.50 L 770.00 514.40 L 776.40 518.00 L 780.50 519.70 L 784.20 520.70 L 789.30 521.00 L 790.60 520.60 L 791.50 519.80 L 792.20 518.40 L 792.30 516.80 L 791.50 514.90 L 790.50 513.20 L 789.10 511.50 L 780.60 505.20 L 779.10 504.20 L 777.10 503.50 L 774.40 503.00 L 770.90 502.80 L 764.40 503.20 Z" fill="#eeb188" fill-rule="nonzero" group-id="73,168,263" node-id="1184" stroke="none" target-height="18.200012" target-width="31.099976" target-x="761.2" target-y="502.8"></path></g></g></g><g node-id="1501"><g node-id="1596"><g node-id="1691"><path d="M 724.30 418.50 L 722.20 417.00 L 719.90 416.00 L 717.60 415.60 L 715.00 415.70 L 712.40 416.30 L 710.10 417.50 L 708.00 419.40 L 706.20 422.10 L 704.50 425.90 L 703.20 430.90 L 702.20 437.40 L 701.80 445.90 L 702.00 456.60 L 703.10 470.20 L 704.50 481.00 L 706.10 489.30 L 707.90 495.60 L 709.80 500.20 L 711.70 503.60 L 713.60 505.40 L 716.20 507.20 L 719.90 508.80 L 724.80 510.30 L 731.30 511.60 L 739.70 512.50 L 750.30 513.00 L 763.60 512.90 L 763.30 510.50 L 763.50 508.30 L 764.30 506.30 L 765.60 504.40 L 769.30 501.50 L 727.10 488.20 L 729.20 432.70 L 729.10 428.70 L 728.50 425.40 L 727.50 422.70 L 726.10 420.40 L 724.30 418.50 Z" fill="#d12876" fill-rule="nonzero" group-id="74,169,264" node-id="1195" stroke="none" target-height="97.399994" target-width="67.5" target-x="701.8" target-y="415.6"></path></g></g></g><g node-id="1502"><g node-id="1597"><g node-id="1692"><path d="M 720.30 416.10 L 716.20 414.50 L 704.80 416.50 L 694.70 419.00 L 685.60 421.90 L 677.50 425.10 L 670.30 428.80 L 664.00 432.70 L 659.00 436.30 L 655.40 439.40 L 652.80 442.30 L 651.00 444.80 L 650.50 447.00 L 650.50 449.20 L 651.10 451.50 L 652.30 454.00 L 657.80 461.00 L 660.70 465.80 L 663.00 471.10 L 664.80 476.80 L 666.10 482.80 L 666.90 489.00 L 667.20 495.50 L 666.90 502.40 L 666.00 509.60 L 664.50 517.90 L 660.30 534.80 L 659.50 538.90 L 659.60 542.10 L 660.20 544.60 L 661.40 546.50 L 663.10 548.00 L 665.50 549.10 L 668.80 549.70 L 676.30 550.10 L 683.50 550.00 L 690.60 549.20 L 697.50 547.90 L 704.30 546.10 L 710.90 543.70 L 716.50 541.10 L 720.60 538.60 L 723.40 536.30 L 725.30 534.00 L 726.40 531.80 L 726.90 529.60 L 726.70 527.40 L 724.30 521.20 L 723.10 516.80 L 722.30 511.80 L 722.00 506.10 L 722.30 499.50 L 724.70 485.30 L 728.60 480.80 L 731.40 476.40 L 733.20 472.20 L 734.20 468.00 L 734.40 463.90 L 734.20 460.50 L 733.40 457.40 L 732.10 454.70 L 727.10 447.70 L 725.10 444.00 L 724.10 440.80 L 723.80 430.60 L 723.30 425.10 L 722.50 421.00 L 721.50 418.10 L 720.30 416.10 Z" fill="#e4317c" fill-rule="nonzero" group-id="75,170,265" node-id="1206" stroke="none" target-height="135.59998" target-width="83.900024" target-x="650.5" target-y="414.5"></path></g></g></g><g node-id="1503"><g node-id="1598"><g node-id="1693"><path d="M 666.00 431.10 L 660.20 435.10 L 656.00 438.70 L 653.00 441.90 L 651.00 444.80 L 650.50 447.00 L 650.50 449.20 L 651.10 451.50 L 652.30 454.00 L 657.80 461.00 L 660.70 465.80 L 663.00 471.10 L 664.80 476.80 L 666.10 482.80 L 666.90 489.00 L 667.20 495.50 L 666.90 502.40 L 666.00 509.60 L 664.50 517.90 L 660.30 534.80 L 659.50 538.90 L 659.60 542.10 L 660.20 544.60 L 661.40 546.50 L 663.10 548.00 L 665.50 549.10 L 668.80 549.70 L 683.40 550.10 L 681.90 545.90 L 680.70 540.70 L 679.90 534.40 L 679.60 526.90 L 679.90 517.90 L 681.00 507.20 L 684.60 485.70 L 686.40 472.20 L 687.00 464.30 L 686.90 459.30 L 686.00 454.70 L 684.60 450.40 L 682.60 446.40 L 679.90 442.50 L 676.50 438.80 L 666.00 431.10 Z" fill="#d12876" fill-rule="nonzero" group-id="76,171,266" node-id="1217" stroke="none" target-height="118.99997" target-width="36.5" target-x="650.5" target-y="431.1"></path></g></g></g><g node-id="1504"><g node-id="1599"><g node-id="1694"><path d="M 673.30 364.20 L 706.90 372.80 L 702.00 425.40 L 702.10 427.50 L 702.90 429.50 L 704.50 431.50 L 706.20 433.00 L 708.10 433.90 L 710.20 434.20 L 712.60 433.90 L 715.50 428.60 L 718.00 422.30 L 720.30 414.90 L 721.60 408.30 L 722.30 401.90 L 722.30 395.80 L 721.70 389.90 L 720.50 384.20 L 718.70 378.60 L 716.20 373.20 L 714.00 369.70 L 711.40 366.60 L 708.30 364.00 L 704.70 361.70 L 700.40 359.80 L 696.00 358.60 L 691.60 358.10 L 687.20 358.40 L 682.70 359.50 L 678.10 361.40 L 673.30 364.20 Z" fill="#1e1b21" fill-rule="nonzero" group-id="77,172,267" node-id="1228" stroke="none" target-height="76.100006" target-width="49" target-x="673.3" target-y="358.1"></path></g></g></g><g node-id="1505"><g node-id="1600"><g node-id="1695"><path d="M 712.60 408.00 L 678.90 393.00 L 680.80 400.50 L 681.80 406.50 L 682.10 411.40 L 681.80 415.30 L 680.90 418.60 L 679.30 421.90 L 675.80 426.50 L 675.40 428.10 L 675.80 429.80 L 677.00 431.90 L 679.70 434.40 L 684.30 437.60 L 691.50 441.60 L 696.20 442.70 L 699.80 443.00 L 702.50 442.80 L 704.60 442.10 L 706.10 441.00 L 707.30 439.60 L 708.00 437.80 L 708.30 435.70 L 708.10 433.40 L 706.50 427.10 L 706.40 423.30 L 707.00 419.20 L 708.50 414.90 L 712.60 408.00 Z" fill="#e6a47a" fill-rule="nonzero" group-id="78,173,268" node-id="1239" stroke="none" target-height="50" target-width="37.19995" target-x="675.4" target-y="393"></path></g></g></g><g node-id="1506"><g node-id="1601"><g node-id="1696"><path d="M 680.20 397.50 L 681.50 404.10 L 682.00 409.80 L 681.70 414.60 L 680.70 418.60 L 679.10 422.00 L 676.00 425.90 L 675.70 427.00 L 680.50 427.70 L 685.30 427.60 L 689.90 426.90 L 694.50 425.50 L 699.20 423.40 L 705.80 419.30 L 708.10 417.30 L 683.40 395.00 L 680.20 397.50 Z" fill="#d9966d" fill-rule="nonzero" group-id="79,174,269" node-id="1250" stroke="none" target-height="32.700012" target-width="32.399963" target-x="675.7" target-y="395"></path></g></g></g><g node-id="1507"><g node-id="1602"><g node-id="1697"><path d="M 712.20 372.80 L 709.30 369.90 L 705.00 368.00 L 701.10 366.80 L 697.50 366.40 L 694.20 366.50 L 691.10 367.20 L 688.20 368.60 L 685.40 370.50 L 682.60 373.20 L 679.90 376.60 L 678.00 380.00 L 676.70 383.50 L 675.90 387.10 L 675.80 390.90 L 676.20 394.80 L 677.30 399.10 L 679.40 403.70 L 682.00 407.80 L 685.20 411.30 L 688.80 414.40 L 693.10 416.90 L 698.00 419.10 L 702.30 420.30 L 706.20 420.80 L 709.70 420.50 L 712.00 419.80 L 713.90 418.40 L 715.60 416.30 L 717.10 413.30 L 718.20 409.20 L 718.80 404.60 L 718.80 400.30 L 718.20 396.20 L 717.60 393.80 L 714.60 387.70 L 714.40 382.40 L 713.90 378.30 L 713.10 375.10 L 712.20 372.80 Z" fill="#f0b28a" fill-rule="nonzero" group-id="80,175,270" node-id="1261" stroke="none" target-height="54.399994" target-width="43" target-x="675.8" target-y="366.4"></path></g></g></g><g node-id="1508"><g node-id="1603"><g node-id="1698"><path d="M 708.10 376.40 L 707.50 374.00 L 706.40 371.70 L 704.70 369.30 L 702.20 366.80 L 698.80 364.20 L 690.30 359.80 L 686.00 359.30 L 682.20 359.50 L 678.60 360.40 L 675.30 361.90 L 672.20 364.00 L 669.20 367.00 L 666.40 370.70 L 663.70 375.40 L 661.70 380.20 L 660.30 384.90 L 658.70 412.80 L 659.00 420.50 L 659.70 426.40 L 660.70 430.70 L 661.90 433.90 L 664.30 438.00 L 667.20 441.50 L 670.40 444.60 L 674.20 447.10 L 678.50 449.30 L 683.40 450.90 L 688.30 452.00 L 692.70 452.40 L 696.80 452.10 L 692.30 443.80 L 688.90 436.20 L 686.50 429.20 L 684.90 422.80 L 684.00 416.80 L 683.90 411.30 L 684.40 406.10 L 685.50 401.20 L 687.20 396.60 L 689.50 392.20 L 708.10 376.40 Z" fill="#1e1b21" fill-rule="nonzero" group-id="81,176,271" node-id="1272" stroke="none" target-height="93.100006" target-width="49.399963" target-x="658.7" target-y="359.3"></path></g></g></g><g node-id="1509"><g node-id="1604"><g node-id="1699"><path d="M 691.90 362.60 L 696.30 364.40 L 699.90 366.40 L 702.80 368.60 L 705.10 371.00 L 706.80 373.60 L 708.10 376.40 L 712.60 377.60 L 714.80 379.20 L 716.90 381.60 L 718.70 384.90 L 720.30 389.40 L 719.70 384.20 L 718.60 379.20 L 716.90 374.50 L 714.60 369.90 L 712.10 366.40 L 709.30 363.50 L 706.30 361.30 L 702.90 359.60 L 699.20 358.50 L 695.10 357.90 L 690.50 357.90 L 685.30 358.70 L 679.30 360.20 L 691.90 362.60 Z" fill="#1e1b21" fill-rule="nonzero" group-id="82,177,272" node-id="1283" stroke="none" target-height="31.5" target-width="41" target-x="679.3" target-y="357.9"></path></g></g></g><g node-id="1510"><g node-id="1605"><g node-id="1700"><path d="M 689.50 411.20 L 686.60 401.90 L 684.60 397.90 L 683.00 396.30 L 681.60 395.50 L 680.10 395.40 L 678.50 395.80 L 677.20 397.00 L 676.50 398.50 L 676.60 400.40 L 677.70 403.10 L 679.20 405.40 L 683.00 409.20 L 685.50 410.60 L 687.60 411.20 L 689.50 411.20 Z" fill="#f0b28a" fill-rule="nonzero" group-id="83,178,273" node-id="1294" stroke="none" target-height="15.800018" target-width="13" target-x="676.5" target-y="395.4"></path></g></g></g><g node-id="1511"><g node-id="1606"><g node-id="1701"><path d="M 704.80 550.00 L 704.80 552.40 L 740.00 577.60 L 740.00 575.10 L 704.80 550.00 Z" fill="#b4b9bc" fill-rule="nonzero" group-id="84,179,274" node-id="1305" stroke="none" target-height="27.599976" target-width="35.200012" target-x="704.8" target-y="550"></path></g></g></g><g node-id="1512"><g node-id="1607"><g node-id="1702"><path d="M 740.00 575.10 L 740.00 577.60 L 805.60 547.20 L 805.60 544.80 L 740.00 575.10 Z" fill="#7d8183" fill-rule="nonzero" group-id="85,180,275" node-id="1316" stroke="none" target-height="32.799988" target-width="65.599976" target-x="740" target-y="544.8"></path></g></g></g><g node-id="1513"><g node-id="1608"><g node-id="1703"><path d="M 704.80 550.00 L 740.00 575.10 L 805.60 544.80 L 770.40 520.10 L 704.80 550.00 Z" fill="#e3e5e5" fill-rule="nonzero" group-id="86,181,276" node-id="1327" stroke="none" target-height="55" target-width="100.79999" target-x="704.8" target-y="520.1"></path></g></g></g><g node-id="1514"><g node-id="1609"><g node-id="1704"><path d="M 750.60 533.40 L 748.10 531.00 L 737.20 575.10 L 739.60 577.60 L 750.60 533.40 Z" fill="#bdbbbb" fill-rule="nonzero" group-id="87,182,277" node-id="1338" stroke="none" target-height="46.599976" target-width="13.399963" target-x="737.2" target-y="531"></path></g></g></g><g node-id="1515"><g node-id="1610"><g node-id="1705"><path d="M 819.40 501.80 L 816.60 499.40 L 748.10 531.00 L 750.60 533.40 L 819.40 501.80 Z" fill="#d2d0d0" fill-rule="nonzero" group-id="88,183,278" node-id="1349" stroke="none" target-height="34.00003" target-width="71.30005" target-x="748.1" target-y="499.4"></path></g></g></g><g node-id="1516"><g node-id="1611"><g node-id="1706"><path d="M 750.60 533.40 L 739.60 577.60 L 808.50 546.00 L 819.40 501.80 L 750.60 533.40 Z" fill="#d5dfe6" fill-rule="nonzero" group-id="89,184,279" node-id="1360" stroke="none" target-height="75.79999" target-width="79.80005" target-x="739.6" target-y="501.8"></path></g></g></g><g node-id="1517"><g node-id="1612"><g node-id="1707"><path d="M 750.60 533.40 L 808.50 546.00 L 819.40 501.80 L 750.60 533.40 Z" fill="#e9f0f4" fill-rule="nonzero" group-id="90,185,280" node-id="1371" stroke="none" target-height="44.200012" target-width="68.80005" target-x="750.6" target-y="501.8"></path></g></g></g><g node-id="1518"><g node-id="1613"><g node-id="1708"><path d="M 710.50 524.60 L 708.60 525.40 L 707.20 526.40 L 706.30 527.60 L 705.70 529.10 L 705.50 531.10 L 705.90 532.40 L 710.40 535.40 L 713.80 538.40 L 717.40 542.40 L 722.70 546.90 L 726.40 549.80 L 730.80 552.20 L 732.40 552.50 L 733.50 552.20 L 734.20 551.40 L 734.70 549.90 L 734.80 547.30 L 733.20 543.00 L 725.50 531.50 L 723.70 529.70 L 720.80 527.90 L 716.60 526.20 L 710.50 524.60 Z" fill="#eeb188" fill-rule="nonzero" group-id="91,186,281" node-id="1382" stroke="none" target-height="27.900024" target-width="29.299988" target-x="705.5" target-y="524.6"></path></g></g></g><g node-id="1519"><g node-id="1614"><g node-id="1709"><path d="M 705.70 529.10 L 705.50 531.10 L 705.90 532.40 L 710.40 535.40 L 713.80 538.40 L 717.40 542.40 L 722.70 546.90 L 726.40 549.80 L 730.80 552.20 L 732.00 552.60 L 721.50 538.80 L 718.60 535.70 L 715.10 533.10 L 710.80 530.90 L 705.70 529.10 Z" fill="#d9966d" fill-rule="nonzero" group-id="92,187,282" node-id="1393" stroke="none" target-height="23.5" target-width="26.5" target-x="705.5" target-y="529.1"></path></g></g></g><g node-id="1520"><g node-id="1615"><g node-id="1710"><path d="M 654.60 526.70 L 656.50 528.50 L 659.10 530.20 L 662.70 531.70 L 667.70 533.00 L 674.20 534.00 L 682.70 534.60 L 693.40 534.60 L 706.90 533.90 L 706.60 531.50 L 706.80 529.40 L 707.60 527.60 L 708.90 525.80 L 712.20 523.80 L 670.00 511.30 L 670.30 451.80 L 669.80 448.50 L 668.80 445.70 L 667.40 443.50 L 665.60 441.60 L 663.40 440.00 L 661.20 439.10 L 658.80 438.60 L 656.30 438.80 L 653.70 439.40 L 651.40 440.70 L 649.40 442.70 L 647.60 445.50 L 646.00 449.20 L 644.80 454.30 L 643.90 460.90 L 643.70 469.40 L 644.10 480.10 L 645.40 493.90 L 646.90 504.80 L 648.70 513.00 L 650.60 519.10 L 652.60 523.60 L 654.60 526.70 Z" fill="#e4317c" fill-rule="nonzero" group-id="93,188,283" node-id="1404" stroke="none" target-height="95.99997" target-width="68.5" target-x="643.7" target-y="438.6"></path></g></g></g><g node-id="1521"><g node-id="1616"><g node-id="1711"><path d="M 670.40 455.80 L 670.30 451.80 L 669.80 448.50 L 668.80 445.70 L 667.40 443.50 L 665.60 441.60 L 663.40 440.00 L 661.20 439.10 L 658.80 438.60 L 656.30 438.80 L 652.20 440.40 L 651.80 440.80 L 657.90 447.70 L 659.90 451.90 L 661.60 456.60 L 662.80 461.90 L 663.40 468.00 L 663.60 474.80 L 663.00 483.70 L 661.80 494.00 L 659.90 506.00 L 660.00 509.20 L 660.60 511.90 L 661.80 514.30 L 663.50 516.30 L 665.80 518.00 L 668.90 519.50 L 672.90 520.60 L 707.30 527.90 L 710.50 524.60 L 712.20 523.80 L 670.00 511.30 L 670.40 455.80 Z" fill="#e4317c" fill-rule="nonzero" group-id="94,189,284" node-id="1415" stroke="none" target-height="89.30002" target-width="60.400024" target-x="651.8" target-y="438.6"></path></g></g></g><path d="M 349.30 433.90 L 395.00 491.00 L 427.40 410.80 L 476.90 431.90 L 508.40 224.50 L 591.90 362.20 L 625.90 301.10 L 687.40 324.20 L 722.30 282.40 L 765.60 282.40 L 828.00 120.00 L 851.50 206.30 L 940.60 152.40 L 936.50 146.40 L 855.90 195.00 L 829.20 96.10 L 760.80 274.70 L 718.60 274.70 L 685.00 315.70 L 622.60 292.20 L 591.50 347.60 L 504.00 203.50 L 470.80 421.40 L 423.40 401.10 L 393.00 476.40 L 346.40 418.90 L 303.50 540.00 L 310.40 542.40 L 349.30 433.90 Z" fill="#dff4fe" fill-rule="nonzero" group-id="95,190,285" node-id="1426" stroke="none" target-height="446.30002" target-width="637.1" target-x="303.5" target-y="96.1"></path></svg>