<?xml version="1.0" encoding="UTF-8"?>
<!DOCTYPE svg PUBLIC "-//W3C//DTD SVG 1.1//EN" "http://www.w3.org/Graphics/SVG/1.1/DTD/svg11.dtd">
<svg xmlns="http://www.w3.org/2000/svg" version="1.1" width="57px" height="80px" style="shape-rendering:geometricPrecision; text-rendering:geometricPrecision; image-rendering:optimizeQuality; fill-rule:evenodd; clip-rule:evenodd" xmlns:xlink="http://www.w3.org/1999/xlink">
<g><path style="opacity:0.589" fill="#4b9fdd" d="M 47.5,34.5 C 46.8333,34.5 46.1667,34.5 45.5,34.5C 45.5,34.1667 45.5,33.8333 45.5,33.5C 45.3404,31.847 44.6737,30.5137 43.5,29.5C 41.7607,26.7573 39.4274,24.7573 36.5,23.5C 35.4863,22.3263 34.153,21.6596 32.5,21.5C 29.1858,20.2926 25.8525,20.2926 22.5,21.5C 21.1667,22.1667 19.8333,22.8333 18.5,23.5C 16.5,24.8333 14.8333,26.5 13.5,28.5C 13.1667,28.5 12.8333,28.5 12.5,28.5C 11.8333,28.5 11.1667,28.5 10.5,28.5C 18.2156,18.3237 27.8823,16.157 39.5,22C 44.0377,25.0247 46.7044,29.1914 47.5,34.5 Z M 32.5,21.5 C 31.8333,23.1667 31.1667,24.8333 30.5,26.5C 28.2589,26.9539 26.2589,26.9539 24.5,26.5C 24.1075,24.7162 23.4408,23.0495 22.5,21.5C 25.8525,20.2926 29.1858,20.2926 32.5,21.5 Z"/></g>
<g><path style="opacity:0.558" fill="#1c54a9" d="M 22.5,21.5 C 23.4408,23.0495 24.1075,24.7162 24.5,26.5C 23.1667,27.1667 21.8333,27.8333 20.5,28.5C 19.0582,27.1805 18.3915,25.5138 18.5,23.5C 19.8333,22.8333 21.1667,22.1667 22.5,21.5 Z"/></g>
<g><path style="opacity:0.532" fill="#1954a9" d="M 32.5,21.5 C 34.153,21.6596 35.4863,22.3263 36.5,23.5C 36.2132,26.4841 34.5465,27.8174 31.5,27.5C 30.8333,27.5 30.5,27.1667 30.5,26.5C 31.1667,24.8333 31.8333,23.1667 32.5,21.5 Z"/></g>
<g><path style="opacity:0.25" fill="#636262" d="M 24.5,26.5 C 26.2589,26.9539 28.2589,26.9539 30.5,26.5C 30.5,27.1667 30.8333,27.5 31.5,27.5C 32.9516,28.3019 34.6183,28.8019 36.5,29C 37.0848,30.3024 37.7515,31.469 38.5,32.5C 39.9063,32.9731 40.573,33.9731 40.5,35.5C 40.5,35.8333 40.5,36.1667 40.5,36.5C 40.5,36.8333 40.5,37.1667 40.5,37.5C 40.5569,38.609 40.8902,39.609 41.5,40.5C 41.1667,40.5 40.8333,40.5 40.5,40.5C 39.8333,40.5 39.5,40.8333 39.5,41.5C 39.1667,41.5 38.8333,41.5 38.5,41.5C 38.1667,40.1667 37.8333,40.1667 37.5,41.5C 36.794,42.5573 36.4607,42.2239 36.5,40.5C 36.7373,39.209 36.404,38.209 35.5,37.5C 34.8902,36.609 34.5569,35.609 34.5,34.5C 34.1416,32.2988 32.8083,30.9655 30.5,30.5C 28.6293,31.767 26.7959,31.767 25,30.5C 24.2828,31.0442 23.7828,31.7109 23.5,32.5C 23.5,33.1667 23.1667,33.5 22.5,33.5C 21.8333,33.5 21.5,33.8333 21.5,34.5C 21.5,34.8333 21.5,35.1667 21.5,35.5C 20.8333,35.5 20.5,35.8333 20.5,36.5C 19.8333,36.5 19.5,36.8333 19.5,37.5C 18.2848,38.779 18.6182,39.779 20.5,40.5C 20.5,41.1667 20.5,41.8333 20.5,42.5C 18.8869,41.3077 17.2202,40.3077 15.5,39.5C 16.1098,38.609 16.4431,37.609 16.5,36.5C 16.5,36.1667 16.5,35.8333 16.5,35.5C 16.5,34.8333 16.5,34.1667 16.5,33.5C 16.8333,32.8333 17.1667,32.1667 17.5,31.5C 19.1898,31.1436 20.1898,30.1436 20.5,28.5C 21.8333,27.8333 23.1667,27.1667 24.5,26.5 Z M 26.5,29.5 C 27.6009,28.4017 28.9343,28.235 30.5,29C 29.1221,30.3342 27.7887,30.5009 26.5,29.5 Z M 34.5,34.5 C 33.5,34.5 32.5,34.5 31.5,34.5C 31.2089,33.3509 30.3756,32.6842 29,32.5C 27.0961,33.6302 25.2627,33.6302 23.5,32.5C 23.7828,31.7109 24.2828,31.0442 25,30.5C 26.7959,31.767 28.6293,31.767 30.5,30.5C 32.8083,30.9655 34.1416,32.2988 34.5,34.5 Z M 36.5,34.5 C 38.337,34.6395 38.6704,35.3061 37.5,36.5C 36.7025,36.0431 36.3691,35.3764 36.5,34.5 Z M 19.5,37.5 C 20.404,38.209 20.7373,39.209 20.5,40.5C 18.6182,39.779 18.2848,38.779 19.5,37.5 Z"/></g>
<g><path style="opacity:0.5" fill="#1b54ab" d="M 43.5,29.5 C 44.6737,30.5137 45.3404,31.847 45.5,33.5C 43.8333,34.1667 42.1667,34.8333 40.5,35.5C 40.573,33.9731 39.9063,32.9731 38.5,32.5C 39.0483,29.9162 40.715,28.9162 43.5,29.5 Z"/></g>
<g><path style="opacity:0.418" fill="#3375c0" d="M 10.5,28.5 C 11.1667,28.5 11.8333,28.5 12.5,28.5C 12.8333,29.8333 13.1667,29.8333 13.5,28.5C 14.6366,29.7888 15.9699,30.7888 17.5,31.5C 17.1667,32.1667 16.8333,32.8333 16.5,33.5C 15.6618,33.8417 15.3284,34.5084 15.5,35.5C 14.8333,35.5 14.1667,35.5 13.5,35.5C 12.9181,34.0689 12.0848,32.7356 11,31.5C 9.34831,35.926 9.18165,40.2593 10.5,44.5C 10.5569,45.609 10.8902,46.609 11.5,47.5C 10.6618,47.8417 10.3284,48.5084 10.5,49.5C 8.07951,46.7074 7.07951,43.3741 7.5,39.5C 7.13271,35.3467 8.13271,31.68 10.5,28.5 Z"/></g>
<g><path style="opacity:0.167" fill="#579cd8" d="M 31.5,34.5 C 32.5,34.5 33.5,34.5 34.5,34.5C 34.5569,35.609 34.8902,36.609 35.5,37.5C 35.5,37.8333 35.5,38.1667 35.5,38.5C 34.8333,39.5 34.1667,40.5 33.5,41.5C 33.1667,41.5 32.8333,41.5 32.5,41.5C 31.7109,41.2172 31.0442,40.7172 30.5,40C 33.8114,38.4501 34.1447,36.6167 31.5,34.5 Z"/></g>
<g><path style="opacity:0.307" fill="#2454a7" d="M 31.5,34.5 C 34.1447,36.6167 33.8114,38.4501 30.5,40C 31.0442,40.7172 31.7109,41.2172 32.5,41.5C 32.8333,42.8333 33.1667,42.8333 33.5,41.5C 34.1667,40.5 34.8333,39.5 35.5,38.5C 35.5,39.1667 35.5,39.8333 35.5,40.5C 35.631,41.2389 35.4643,41.9056 35,42.5C 33.6976,43.0848 32.531,43.7515 31.5,44.5C 28.9407,44.8016 26.6074,44.4682 24.5,43.5C 24.5,43.1667 24.5,42.8333 24.5,42.5C 25.1667,42.5 25.5,42.1667 25.5,41.5C 26.4232,42.3029 27.4232,42.4696 28.5,42C 28.1667,41.6667 27.8333,41.3333 27.5,41C 28.3805,40.2917 29.0472,39.4584 29.5,38.5C 29.5,38.1667 29.5,37.8333 29.5,37.5C 29.5,37.1667 29.5,36.8333 29.5,36.5C 29.5,36.1667 29.5,35.8333 29.5,35.5C 29.8417,34.6618 30.5084,34.3284 31.5,34.5 Z"/></g>
<g><path style="opacity:0.255" fill="#5e89c9" d="M 23.5,32.5 C 25.2627,33.6302 27.0961,33.6302 29,32.5C 30.3756,32.6842 31.2089,33.3509 31.5,34.5C 30.5084,34.3284 29.8417,34.6618 29.5,35.5C 28.1667,35.8333 28.1667,36.1667 29.5,36.5C 29.5,36.8333 29.5,37.1667 29.5,37.5C 28.1667,37.8333 28.1667,38.1667 29.5,38.5C 29.0472,39.4584 28.3805,40.2917 27.5,41C 27.8333,41.3333 28.1667,41.6667 28.5,42C 27.4232,42.4696 26.4232,42.3029 25.5,41.5C 24.8333,41.5 24.5,41.8333 24.5,42.5C 24.5,42.8333 24.5,43.1667 24.5,43.5C 23.0413,43.5674 21.7079,43.2341 20.5,42.5C 20.5,41.8333 20.5,41.1667 20.5,40.5C 20.7373,39.209 20.404,38.209 19.5,37.5C 19.5,36.8333 19.8333,36.5 20.5,36.5C 21.1667,36.5 21.5,36.1667 21.5,35.5C 21.5,35.1667 21.5,34.8333 21.5,34.5C 22.1667,34.5 22.5,34.1667 22.5,33.5C 23.1667,33.5 23.5,33.1667 23.5,32.5 Z"/></g>
<g><path style="opacity:0.292" fill="#595959" d="M 37.5,43.5 C 38.4916,43.3284 39.1583,43.6618 39.5,44.5C 38.8902,45.391 38.5569,46.391 38.5,47.5C 36.7839,47.3713 35.1172,47.038 33.5,46.5C 33.5,46.1667 33.5,45.8333 33.5,45.5C 34.1667,45.5 34.5,45.1667 34.5,44.5C 34.8333,44.5 35.1667,44.5 35.5,44.5C 35.8333,45.8333 36.1667,45.8333 36.5,44.5C 37.1667,44.5 37.5,44.1667 37.5,43.5 Z"/></g>
<g><path style="opacity:0.459" fill="#983d5e" d="M 13.5,35.5 C 14.1667,35.5 14.8333,35.5 15.5,35.5C 15.8333,35.5 16.1667,35.5 16.5,35.5C 16.5,35.8333 16.5,36.1667 16.5,36.5C 11.8108,36.6314 11.4775,37.6314 15.5,39.5C 17.2202,40.3077 18.8869,41.3077 20.5,42.5C 21.7079,43.2341 23.0413,43.5674 24.5,43.5C 26.6074,44.4682 28.9407,44.8016 31.5,44.5C 32.1667,44.5 32.8333,44.5 33.5,44.5C 33.5,44.8333 33.5,45.1667 33.5,45.5C 32.5084,45.3284 31.8417,45.6618 31.5,46.5C 30.5084,46.3284 29.8417,46.6618 29.5,47.5C 28.5,47.5 27.5,47.5 26.5,47.5C 25.791,46.596 24.791,46.2627 23.5,46.5C 22.2921,47.2341 20.9587,47.5674 19.5,47.5C 16.8333,47.5 14.1667,47.5 11.5,47.5C 10.8902,46.609 10.5569,45.609 10.5,44.5C 11.7653,43.5207 13.0986,42.5207 14.5,41.5C 11.9285,40.2723 10.5952,38.2723 10.5,35.5C 11.5,35.5 12.5,35.5 13.5,35.5 Z M 13.5,43.5 C 15.3464,43.2222 16.6798,43.8888 17.5,45.5C 16.277,46.6139 14.9437,46.7805 13.5,46C 12.4019,45.2303 12.4019,44.397 13.5,43.5 Z"/></g>
<g><path style="opacity:0.278" fill="#5f5f5f" d="M 23.5,46.5 C 24.209,47.404 25.209,47.7373 26.5,47.5C 27.5,47.5 28.5,47.5 29.5,47.5C 29.8333,48.8333 30.1667,48.8333 30.5,47.5C 32.099,47.2322 33.4324,47.5655 34.5,48.5C 34.8333,49.8333 35.1667,49.8333 35.5,48.5C 35.8333,48.5 36.1667,48.5 36.5,48.5C 36.5,49.1667 36.5,49.8333 36.5,50.5C 35.8333,50.5 35.5,50.8333 35.5,51.5C 35.1667,51.5 34.8333,51.5 34.5,51.5C 30.8293,50.8275 27.1626,51.1609 23.5,52.5C 23.1667,52.5 22.8333,52.5 22.5,52.5C 21.2485,50.9991 20.2485,49.3325 19.5,47.5C 20.9587,47.5674 22.2921,47.2341 23.5,46.5 Z M 22.5,48.5 C 23.2891,48.7828 23.9558,49.2828 24.5,50C 23.184,50.5281 22.5173,50.0281 22.5,48.5 Z M 27.5,48.5 C 28.2891,48.7828 28.9558,49.2828 29.5,50C 28.184,50.5281 27.5173,50.0281 27.5,48.5 Z"/></g>
<g><path style="opacity:0.235" fill="#aa2a4d" d="M 40.5,37.5 C 40.5,37.1667 40.5,36.8333 40.5,36.5C 42.6208,36.3253 44.6208,36.6586 46.5,37.5C 46.5,38.1667 46.5,38.8333 46.5,39.5C 40.8515,41.3401 40.5181,43.3401 45.5,45.5C 45.2624,47.4044 44.2624,48.7377 42.5,49.5C 41.5,49.5 40.5,49.5 39.5,49.5C 38.791,48.596 37.791,48.2627 36.5,48.5C 36.1667,48.5 35.8333,48.5 35.5,48.5C 35.1667,48.5 34.8333,48.5 34.5,48.5C 33.4324,47.5655 32.099,47.2322 30.5,47.5C 30.1667,47.5 29.8333,47.5 29.5,47.5C 29.8417,46.6618 30.5084,46.3284 31.5,46.5C 32.1667,46.5 32.8333,46.5 33.5,46.5C 35.1172,47.038 36.7839,47.3713 38.5,47.5C 44.6992,47.8882 45.0325,46.8882 39.5,44.5C 39.1583,43.6618 38.4916,43.3284 37.5,43.5C 36.8333,43.5 36.5,43.8333 36.5,44.5C 36.1667,44.5 35.8333,44.5 35.5,44.5C 35.1667,44.5 34.8333,44.5 34.5,44.5C 34.1667,44.5 33.8333,44.5 33.5,44.5C 32.8333,44.5 32.1667,44.5 31.5,44.5C 32.531,43.7515 33.6976,43.0848 35,42.5C 35.4643,41.9056 35.631,41.2389 35.5,40.5C 35.8333,40.5 36.1667,40.5 36.5,40.5C 36.4607,42.2239 36.794,42.5573 37.5,41.5C 37.8333,41.5 38.1667,41.5 38.5,41.5C 38.8333,41.5 39.1667,41.5 39.5,41.5C 40.1667,41.5 40.5,41.1667 40.5,40.5C 40.8333,40.5 41.1667,40.5 41.5,40.5C 45.5225,38.6314 45.1892,37.6314 40.5,37.5 Z"/></g>
<g><path style="opacity:0.197" fill="#1c55ab" d="M 18.5,54.5 C 17.5244,53.1851 16.5244,51.8518 15.5,50.5C 15.8076,49.6919 16.3076,49.0253 17,48.5C 18.353,49.6853 19.5197,51.0186 20.5,52.5C 20.1445,53.5223 19.4778,54.189 18.5,54.5 Z"/></g>
<g><path style="opacity:0.276" fill="#1e52ae" d="M 39.5,49.5 C 39.6085,51.5138 38.9418,53.1805 37.5,54.5C 36.5084,54.3284 35.8417,54.6618 35.5,55.5C 33.1582,54.7893 32.8249,53.456 34.5,51.5C 34.8333,51.5 35.1667,51.5 35.5,51.5C 36.1667,51.5 36.5,51.1667 36.5,50.5C 37.391,49.8902 38.391,49.5569 39.5,49.5 Z"/></g>
<g><path style="opacity:0.259" fill="#1f50ae" d="M 22.5,52.5 C 22.8333,52.5 23.1667,52.5 23.5,52.5C 24.3984,53.1577 25.3984,53.8243 26.5,54.5C 24.9991,56.9572 23.3324,56.9572 21.5,54.5C 21.8627,53.8165 22.1961,53.1499 22.5,52.5 Z"/></g>
<g><path style="opacity:0.221" fill="#1b56a7" d="M 27.5,53.5 C 29.1667,53.5 30.8333,53.5 32.5,53.5C 32.5,54.5 32.5,55.5 32.5,56.5C 30.8333,56.5 29.1667,56.5 27.5,56.5C 27.5,55.5 27.5,54.5 27.5,53.5 Z"/></g>
<g><path style="opacity:0.689" fill="#2862b6" d="M 45.5,34.5 C 46.1667,34.5 46.8333,34.5 47.5,34.5C 50.0432,45.0817 46.3766,52.7484 36.5,57.5C 35.5084,57.6716 34.8417,57.3382 34.5,56.5C 35.1667,56.5 35.5,56.1667 35.5,55.5C 36.4916,55.6716 37.1583,55.3382 37.5,54.5C 40.1667,53.8333 41.8333,52.1667 42.5,49.5C 44.2624,48.7377 45.2624,47.4044 45.5,45.5C 46.1495,43.5648 46.4828,41.5648 46.5,39.5C 46.5,38.8333 46.5,38.1667 46.5,37.5C 46.4431,36.391 46.1098,35.391 45.5,34.5 Z"/></g>
<g><path style="opacity:0.547" fill="#1f55b0" d="M 11.5,47.5 C 12.8552,50.8553 15.1886,53.1886 18.5,54.5C 23.4246,57.6176 28.758,58.2843 34.5,56.5C 34.8417,57.3382 35.5084,57.6716 36.5,57.5C 29.3979,60.4547 22.3979,59.9547 15.5,56C 13.2101,54.2228 11.5434,52.0562 10.5,49.5C 10.3284,48.5084 10.6618,47.8417 11.5,47.5 Z"/></g>
</svg>
