<?xml version="1.0" encoding="UTF-8"?>
<svg xmlns="http://www.w3.org/2000/svg" xmlns:xlink="http://www.w3.org/1999/xlink" width="500px" height="288px" viewBox="0 0 499 288" version="1.1">
<defs>
<filter id="alpha" filterUnits="objectBoundingBox" x="0%" y="0%" width="100%" height="100%">
  <feColorMatrix type="matrix" in="SourceGraphic" values="0 0 0 0 1 0 0 0 0 1 0 0 0 0 1 0 0 0 1 0"/>
</filter>
<mask id="mask0">
  <g filter="url(#alpha)">
<rect x="0" y="0" width="499" height="288" style="fill:rgb(0%,0%,0%);fill-opacity:0.501961;stroke:none;"/>
  </g>
</mask>
<clipPath id="clip1">
  <rect x="0" y="0" width="499" height="288"/>
</clipPath>
<g id="surface5" clip-path="url(#clip1)">
<path style=" stroke:none;fill-rule:nonzero;fill:rgb(42.352942%,38.82353%,100%);fill-opacity:1;" d="M 123.828125 188.566406 C 93.660156 178.128906 59.164062 169.296875 30.976562 184.292969 C 27.402344 186.195312 23.882812 188.585938 21.957031 192.148438 C 16.875 201.515625 24.957031 213.664062 21.015625 223.566406 C 17.078125 233.46875 2.253906 238.453125 3.46875 249.03125 C 3.785156 251.796875 5.28125 254.296875 7.046875 256.457031 C 18.085938 269.960938 38.328125 271.328125 55.4375 267.976562 C 72.546875 264.625 89.28125 257.675781 106.699219 258.550781 C 123.4375 259.414062 138.835938 267.453125 154.171875 274.21875 C 180.027344 285.652344 210.222656 293.859375 236.058594 282.367188 C 247.894531 277.097656 257.679688 268.128906 269.011719 261.867188 C 284.277344 253.503906 301.828125 250.28125 319.066406 252.671875 C 330.574219 254.292969 341.558594 258.378906 352.820312 261.195312 C 378.398438 267.589844 405.09375 267.378906 431.453125 267.128906 C 436.359375 267.082031 441.34375 267.023438 446.046875 265.621094 C 453.007812 263.523438 458.75 258.703125 464.277344 253.984375 C 471.542969 247.789062 479.195312 240.984375 481.539062 231.71875 C 484.308594 220.722656 478.578125 209.035156 470.085938 201.5625 C 461.589844 194.089844 450.730469 190.007812 440.132812 186.070312 C 437.519531 185.105469 434.726562 184.125 432.046875 184.855469 C 430.289062 185.335938 428.808594 186.507812 427.496094 187.769531 C 419.976562 195.019531 413.621094 207.277344 403.363281 205.308594 C 399.703125 204.605469 396.703125 202.054688 393.808594 199.699219 C 378.335938 187.132812 357.523438 177.429688 338.847656 184.371094 C 325.191406 189.453125 315.550781 202.496094 301.710938 207.097656 C 291.867188 210.375 281.171875 208.957031 270.816406 209.597656 C 255.75 210.515625 241.089844 215.847656 226.003906 215.523438 C 187.539062 214.695312 155.492188 177.875 117.179688 181.382812 C 114.179688 181.65625 110.90625 182.347656 109.0625 184.722656 "/>
</g>
<mask id="mask1">
  <g filter="url(#alpha)">
<rect x="0" y="0" width="499" height="288" style="fill:rgb(0%,0%,0%);fill-opacity:0.101961;stroke:none;"/>
  </g>
</mask>
<clipPath id="clip2">
  <rect x="0" y="0" width="499" height="288"/>
</clipPath>
<g id="surface8" clip-path="url(#clip2)">
<path style=" stroke:none;fill-rule:nonzero;fill:rgb(0%,0%,0%);fill-opacity:1;" d="M 479.726562 137.449219 C 486.199219 161.15625 458.578125 228.6875 458.578125 228.6875 C 458.578125 228.6875 400.457031 184.632812 393.976562 160.929688 C 389.359375 145.457031 393.476562 128.695312 404.734375 117.132812 C 415.988281 105.566406 432.617188 101.011719 448.1875 105.230469 C 463.757812 109.449219 475.824219 121.773438 479.71875 137.445312 Z M 479.726562 137.449219 "/>
</g>
<linearGradient id="linear0" gradientUnits="userSpaceOnUse" x1="569.109985" y1="596.369995" x2="569.109985" y2="230.619995" gradientTransform="matrix(0.523061,0,0,0.523636,-64.336478,-91.673022)">
<stop offset="0" style="stop-color:rgb(50.196078%,50.196078%,50.196078%);stop-opacity:0.25098;"/>
<stop offset="0.54" style="stop-color:rgb(50.196078%,50.196078%,50.196078%);stop-opacity:0.121569;"/>
<stop offset="1" style="stop-color:rgb(50.196078%,50.196078%,50.196078%);stop-opacity:0.101961;"/>
</linearGradient>
<mask id="mask2">
  <g filter="url(#alpha)">
<rect x="0" y="0" width="499" height="288" style="fill:rgb(0%,0%,0%);fill-opacity:0.501961;stroke:none;"/>
  </g>
</mask>
<clipPath id="clip3">
  <rect x="0" y="0" width="499" height="288"/>
</clipPath>
<g id="surface11" clip-path="url(#clip3)">
<path style=" stroke:none;fill-rule:nonzero;fill:rgb(42.352942%,38.82353%,100%);fill-opacity:1;" d="M 152.796875 148.285156 L 173.148438 148.285156 L 173.148438 179.722656 L 152.796875 179.722656 Z M 152.796875 148.285156 "/>
</g>
<mask id="mask3">
  <g filter="url(#alpha)">
<rect x="0" y="0" width="499" height="288" style="fill:rgb(0%,0%,0%);fill-opacity:0.698039;stroke:none;"/>
  </g>
</mask>
<clipPath id="clip4">
  <rect x="0" y="0" width="499" height="288"/>
</clipPath>
<g id="surface14" clip-path="url(#clip4)">
<path style=" stroke:none;fill-rule:nonzero;fill:rgb(42.352942%,38.82353%,100%);fill-opacity:1;" d="M 187.691406 120.335938 L 208.042969 120.335938 L 208.042969 179.722656 L 187.691406 179.722656 Z M 187.691406 120.335938 "/>
</g>
<mask id="mask4">
  <g filter="url(#alpha)">
<rect x="0" y="0" width="499" height="288" style="fill:rgb(0%,0%,0%);fill-opacity:0.501961;stroke:none;"/>
  </g>
</mask>
<clipPath id="clip5">
  <rect x="0" y="0" width="499" height="288"/>
</clipPath>
<g id="surface17" clip-path="url(#clip5)">
<path style=" stroke:none;fill-rule:nonzero;fill:rgb(42.352942%,38.82353%,100%);fill-opacity:1;" d="M 222.582031 137.21875 L 242.9375 137.21875 L 242.9375 179.71875 L 222.582031 179.71875 Z M 222.582031 137.21875 "/>
</g>
<mask id="mask5">
  <g filter="url(#alpha)">
<rect x="0" y="0" width="499" height="288" style="fill:rgb(0%,0%,0%);fill-opacity:0.8;stroke:none;"/>
  </g>
</mask>
<clipPath id="clip6">
  <rect x="0" y="0" width="499" height="288"/>
</clipPath>
<g id="surface20" clip-path="url(#clip6)">
<path style=" stroke:none;fill-rule:nonzero;fill:rgb(42.352942%,38.82353%,100%);fill-opacity:1;" d="M 257.476562 111.019531 L 277.828125 111.019531 L 277.828125 179.722656 L 257.476562 179.722656 Z M 257.476562 111.019531 "/>
</g>
<linearGradient id="linear1" gradientUnits="userSpaceOnUse" x1="878.330017" y1="643.77002" x2="878.330017" y2="175.070007" gradientTransform="matrix(0.523061,0,0,0.523636,-64.336478,-91.673022)">
<stop offset="0" style="stop-color:rgb(50.196078%,50.196078%,50.196078%);stop-opacity:0.25098;"/>
<stop offset="0.54" style="stop-color:rgb(50.196078%,50.196078%,50.196078%);stop-opacity:0.121569;"/>
<stop offset="1" style="stop-color:rgb(50.196078%,50.196078%,50.196078%);stop-opacity:0.101961;"/>
</linearGradient>
<mask id="mask6">
  <g filter="url(#alpha)">
<rect x="0" y="0" width="499" height="288" style="fill:rgb(0%,0%,0%);fill-opacity:0.0509804;stroke:none;"/>
  </g>
</mask>
<clipPath id="clip7">
  <rect x="0" y="0" width="499" height="288"/>
</clipPath>
<g id="surface23" clip-path="url(#clip7)">
<path style=" stroke:none;fill-rule:nonzero;fill:rgb(0%,0%,0%);fill-opacity:1;" d="M 400 114.523438 L 392.15625 115.570312 C 393.230469 124.746094 393.199219 134.015625 392.058594 143.183594 L 392.058594 176.171875 C 392.058594 176.171875 391.910156 179.078125 397.933594 183.304688 C 404.253906 187.703125 410.34375 192.421875 416.179688 197.441406 L 438.011719 216.378906 C 438.011719 216.378906 446.671875 205.777344 445.46875 199.515625 C 445.46875 199.515625 431.035156 194.9375 429.109375 187.472656 C 428.003906 183.199219 422.410156 179.617188 417.828125 177.367188 C 411.890625 174.480469 408.765625 167.84375 410.320312 161.425781 C 410.585938 160.34375 411 159.304688 411.550781 158.332031 C 415.398438 151.585938 420.933594 136.414062 420.933594 136.414062 L 410.347656 116.210938 Z M 400 114.523438 "/>
</g>
<mask id="mask7">
  <g filter="url(#alpha)">
<rect x="0" y="0" width="499" height="288" style="fill:rgb(0%,0%,0%);fill-opacity:0.101961;stroke:none;"/>
  </g>
</mask>
<clipPath id="clip8">
  <rect x="0" y="0" width="499" height="288"/>
</clipPath>
<g id="surface26" clip-path="url(#clip8)">
<path style=" stroke:none;fill-rule:nonzero;fill:rgb(0%,0%,0%);fill-opacity:1;" d="M 413.59375 41.785156 C 411.714844 43.640625 409.265625 44.804688 406.644531 45.089844 C 404.246094 45.273438 401.917969 45.964844 399.8125 47.121094 C 397.339844 48.507812 394.582031 50.527344 393.746094 52.980469 C 392.058594 57.800781 381.472656 65.746094 376.660156 64.0625 L 378.34375 78.515625 C 378.34375 78.515625 392.058594 77.792969 394.464844 72.492188 L 390.382812 124.066406 L 393.992188 124.066406 C 393.992188 124.066406 395.914062 110.09375 397.359375 107.203125 C 398.800781 104.3125 401.691406 88.414062 401.929688 84.5625 C 402.171875 80.707031 405.78125 58.546875 408.90625 54.714844 L 413.617188 43.273438 Z M 413.59375 41.785156 "/>
</g>
<mask id="mask8">
  <g filter="url(#alpha)">
<rect x="0" y="0" width="499" height="288" style="fill:rgb(0%,0%,0%);fill-opacity:0.101961;stroke:none;"/>
  </g>
</mask>
<clipPath id="clip9">
  <rect x="0" y="0" width="499" height="288"/>
</clipPath>
<g id="surface29" clip-path="url(#clip9)">
<path style=" stroke:none;fill-rule:nonzero;fill:rgb(0%,0%,0%);fill-opacity:1;" d="M 413.59375 42.507812 C 411.445312 44.191406 408.875 45.253906 406.160156 45.570312 C 403.769531 45.761719 401.441406 46.457031 399.335938 47.613281 C 396.863281 49 394.105469 51.019531 393.269531 53.472656 C 391.585938 58.292969 380.996094 66.238281 376.183594 64.554688 L 377.871094 79.007812 C 377.871094 79.007812 391.585938 78.285156 393.992188 72.984375 L 389.898438 124.527344 L 393.507812 124.527344 C 393.507812 124.527344 395.433594 110.554688 396.878906 107.664062 C 398.320312 104.773438 401.207031 88.875 401.449219 85.023438 C 401.691406 81.167969 405.300781 59.007812 408.425781 55.175781 L 413.59375 43.949219 Z M 413.59375 42.507812 "/>
</g>
<mask id="mask9">
  <g filter="url(#alpha)">
<rect x="0" y="0" width="499" height="288" style="fill:rgb(0%,0%,0%);fill-opacity:0.101961;stroke:none;"/>
  </g>
</mask>
<clipPath id="clip10">
  <rect x="0" y="0" width="499" height="288"/>
</clipPath>
<g id="surface32" clip-path="url(#clip10)">
<path style=" stroke:none;fill-rule:nonzero;fill:rgb(0%,0%,0%);fill-opacity:1;" d="M 425.867188 32.753906 C 425.550781 30.46875 426.179688 29.046875 426.46875 26.371094 L 412.753906 36.726562 C 412.753906 36.726562 413.082031 38.125 413.332031 40.171875 C 414.023438 40.285156 414.722656 40.339844 415.425781 40.339844 C 420.183594 40.339844 423.609375 36.617188 425.867188 32.753906 Z M 425.867188 32.753906 "/>
</g>
<mask id="mask10">
  <g filter="url(#alpha)">
<rect x="0" y="0" width="499" height="288" style="fill:rgb(0%,0%,0%);fill-opacity:0.101961;stroke:none;"/>
  </g>
</mask>
<clipPath id="clip11">
  <rect x="0" y="0" width="499" height="288"/>
</clipPath>
<g id="surface35" clip-path="url(#clip11)">
<path style=" stroke:none;fill-rule:nonzero;fill:rgb(0%,0%,0%);fill-opacity:1;" d="M 401.21875 13.867188 C 401.136719 11.671875 401.492188 9.484375 402.265625 7.429688 C 401.820312 8.097656 401.9375 8.992188 402.539062 9.523438 C 402.957031 7.285156 404.105469 5.25 405.800781 3.734375 C 404.875 3.886719 404.398438 5.03125 404.628906 5.941406 C 404.941406 6.832031 405.5 7.617188 406.234375 8.207031 C 406.15625 6.828125 407.066406 5.539062 408.21875 4.785156 C 409.417969 4.097656 410.726562 3.621094 412.089844 3.382812 C 411.128906 3.722656 410.519531 4.671875 410.601562 5.6875 C 410.605469 5.855469 410.675781 6.015625 410.796875 6.132812 C 410.925781 6.214844 411.082031 6.253906 411.234375 6.246094 C 412.589844 6.300781 413.949219 6.269531 415.300781 6.15625 C 416.960938 5.972656 418.632812 5.882812 420.304688 5.890625 C 425.535156 6.109375 430.792969 9.6875 431.964844 14.792969 C 432.207031 16.03125 432.335938 17.289062 432.347656 18.550781 L 432.601562 25 C 432.75 26.878906 432.675781 28.769531 432.371094 30.632812 C 431.640625 34.113281 429.394531 37.085938 426.246094 38.738281 C 424.359375 36 424.191406 32.480469 423.539062 29.21875 C 423.433594 28.464844 423.15625 27.75 422.722656 27.125 C 422.261719 26.492188 421.457031 26.21875 420.707031 26.445312 C 420.003906 26.726562 419.699219 27.804688 420.285156 28.285156 C 419.761719 28.90625 418.785156 28.445312 418.191406 27.894531 C 416.542969 26.328125 415.40625 24.292969 414.933594 22.066406 C 414.699219 20.945312 414.464844 19.5625 413.363281 19.179688 C 412.988281 19.078125 412.589844 19.050781 412.203125 19.101562 C 409.914062 19.257812 406.328125 20.207031 404.113281 19.480469 C 402.078125 18.8125 401.21875 15.796875 401.21875 13.867188 Z M 401.21875 13.867188 "/>
</g>
<mask id="mask11">
  <g filter="url(#alpha)">
<rect x="0" y="0" width="499" height="288" style="fill:rgb(0%,0%,0%);fill-opacity:0.101961;stroke:none;"/>
  </g>
</mask>
<clipPath id="clip12">
  <rect x="0" y="0" width="499" height="288"/>
</clipPath>
<g id="surface38" clip-path="url(#clip12)">
<path style=" stroke:none;fill-rule:nonzero;fill:rgb(0%,0%,0%);fill-opacity:1;" d="M 375.558594 64.066406 C 375.558594 64.066406 373.632812 72.96875 377.242188 78.519531 L 379.285156 78.351562 L 378.171875 64.214844 Z M 375.558594 64.066406 "/>
</g>
<mask id="mask12">
  <g filter="url(#alpha)">
<rect x="0" y="0" width="499" height="288" style="fill:rgb(0%,0%,0%);fill-opacity:0.101961;stroke:none;"/>
  </g>
</mask>
<clipPath id="clip13">
  <rect x="0" y="0" width="499" height="288"/>
</clipPath>
<g id="surface41" clip-path="url(#clip13)">
<path style=" stroke:none;fill-rule:nonzero;fill:rgb(0%,0%,0%);fill-opacity:1;" d="M 427.789062 39.757812 L 443.308594 53.128906 C 443.308594 53.128906 452.453125 62.523438 448.601562 77.695312 C 448.601562 77.695312 446.917969 99.859375 444.992188 100.820312 C 444.992188 100.820312 438.257812 114.308594 437.777344 127.074219 C 437.777344 127.074219 428.753906 108.890625 424.664062 119.96875 C 420.570312 131.050781 411.0625 132.617188 411.0625 132.617188 L 416.355469 67.078125 C 416.355469 67.078125 429.714844 43.832031 427.789062 39.757812 Z M 427.789062 39.757812 "/>
</g>
<mask id="mask13">
  <g filter="url(#alpha)">
<rect x="0" y="0" width="499" height="288" style="fill:rgb(0%,0%,0%);fill-opacity:0.101961;stroke:none;"/>
  </g>
</mask>
<clipPath id="clip14">
  <rect x="0" y="0" width="499" height="288"/>
</clipPath>
<g id="surface44" clip-path="url(#clip14)">
<path style=" stroke:none;fill-rule:nonzero;fill:rgb(0%,0%,0%);fill-opacity:1;" d="M 431.640625 97.789062 C 431.640625 97.789062 440.15625 107.359375 443.476562 105.828125 L 446.550781 98.660156 L 435.007812 93.695312 Z M 431.640625 97.789062 "/>
</g>
<mask id="mask14">
  <g filter="url(#alpha)">
<rect x="0" y="0" width="499" height="288" style="fill:rgb(0%,0%,0%);fill-opacity:0.101961;stroke:none;"/>
  </g>
</mask>
<clipPath id="clip15">
  <rect x="0" y="0" width="499" height="288"/>
</clipPath>
<g id="surface47" clip-path="url(#clip15)">
<path style=" stroke:none;fill-rule:nonzero;fill:rgb(0%,0%,0%);fill-opacity:1;" d="M 425.425781 119.097656 C 425.425781 119.097656 429.480469 127.410156 431.640625 127.894531 L 428.5 131.507812 L 423.929688 122.835938 Z M 425.425781 119.097656 "/>
</g>
<mask id="mask15">
  <g filter="url(#alpha)">
<rect x="0" y="0" width="499" height="288" style="fill:rgb(0%,0%,0%);fill-opacity:0.101961;stroke:none;"/>
  </g>
</mask>
<clipPath id="clip16">
  <rect x="0" y="0" width="499" height="288"/>
</clipPath>
<g id="surface50" clip-path="url(#clip16)">
<path style=" stroke:none;fill-rule:nonzero;fill:rgb(0%,0%,0%);fill-opacity:1;" d="M 432.84375 67.921875 C 432.84375 67.921875 433.324219 85.265625 431.398438 91.765625 "/>
</g>
<mask id="mask16">
  <g filter="url(#alpha)">
<rect x="0" y="0" width="499" height="288" style="fill:rgb(0%,0%,0%);fill-opacity:0.101961;stroke:none;"/>
  </g>
</mask>
<clipPath id="clip17">
  <rect x="0" y="0" width="499" height="288"/>
</clipPath>
<g id="surface53" clip-path="url(#clip17)">
<path style=" stroke:none;fill-rule:nonzero;fill:rgb(0%,0%,0%);fill-opacity:1;" d="M 393.863281 71.292969 C 393.863281 71.292969 396.753906 70.328125 396.753906 67.921875 "/>
</g>
</defs>
<g id="surface1">
<use xlink:href="#surface5" mask="url(#mask0)"/>
<path style=" stroke:none;fill-rule:nonzero;fill:rgb(42.352942%,38.82353%,100%);fill-opacity:1;" d="M 75.320312 153.539062 C 75.320312 153.539062 43.355469 172.859375 102.300781 202.609375 C 102.300781 202.609375 115.289062 178.472656 100.929688 158.789062 C 95.164062 150.851562 84.378906 148.484375 75.824219 153.277344 Z M 75.320312 153.539062 "/>
<path style="fill:none;stroke-width:1;stroke-linecap:butt;stroke-linejoin:miter;stroke:rgb(32.549021%,32.941177%,38.039216%);stroke-opacity:1;stroke-miterlimit:10;" d="M 267.731025 467.518602 C 267.731025 467.518602 320.052261 507.518331 318.588521 561.967794 " transform="matrix(0.523061,0,0,0.523636,-64.336478,-91.673022)"/>
<path style=" stroke:none;fill-rule:nonzero;fill:rgb(42.352942%,38.82353%,100%);fill-opacity:1;" d="M 479.726562 137.449219 C 486.199219 161.15625 458.578125 228.6875 458.578125 228.6875 C 458.578125 228.6875 400.457031 184.632812 393.976562 160.929688 C 389.359375 145.457031 393.476562 128.695312 404.734375 117.132812 C 415.988281 105.566406 432.617188 101.011719 448.1875 105.230469 C 463.757812 109.449219 475.824219 121.773438 479.71875 137.445312 Z M 479.726562 137.449219 "/>
<use xlink:href="#surface8" mask="url(#mask1)"/>
<path style="fill:none;stroke-width:1;stroke-linecap:butt;stroke-linejoin:miter;stroke:rgb(32.549021%,32.941177%,38.039216%);stroke-opacity:1;stroke-miterlimit:10;" d="M 936.212112 378.268928 C 936.212112 378.268928 1005.381294 482.691942 1000.213396 612.053243 " transform="matrix(0.523061,0,0,0.523636,-64.336478,-91.673022)"/>
<path style=" stroke:none;fill-rule:nonzero;fill:rgb(42.352942%,38.82353%,100%);fill-opacity:1;" d="M 488.957031 180.773438 C 488.957031 180.773438 456.152344 162.910156 460.304688 228.859375 C 460.304688 228.859375 487.671875 227.882812 497.382812 205.53125 C 501.316406 196.535156 497.902344 186.019531 489.4375 181.050781 Z M 488.957031 180.773438 "/>
<path style="fill:none;stroke-width:1;stroke-linecap:butt;stroke-linejoin:miter;stroke:rgb(32.549021%,32.941177%,38.039216%);stroke-opacity:1;stroke-miterlimit:10;" d="M 1058.830207 520.520854 C 1058.830207 520.520854 1050.727361 585.899 1003.021387 612.127842 " transform="matrix(0.523061,0,0,0.523636,-64.336478,-91.673022)"/>
<path style=" stroke:none;fill-rule:nonzero;fill:rgb(42.352942%,38.82353%,100%);fill-opacity:1;" d="M 8.660156 173.421875 C 8.660156 173.421875 -23.316406 192.734375 35.632812 222.472656 C 35.632812 222.472656 48.617188 198.332031 34.261719 178.648438 C 28.492188 170.710938 17.707031 168.34375 9.152344 173.140625 Z M 8.660156 173.421875 "/>
<path style="fill:none;stroke-width:1;stroke-linecap:butt;stroke-linejoin:miter;stroke:rgb(32.549021%,32.941177%,38.039216%);stroke-opacity:1;stroke-miterlimit:10;" d="M 140.258689 505.489251 C 140.258689 505.489251 192.579925 545.48898 191.123654 599.938443 " transform="matrix(0.523061,0,0,0.523636,-64.336478,-91.673022)"/>
<path style=" stroke:none;fill-rule:nonzero;fill:url(#linear0);" d="M 407.6875 198.5625 L 374.082031 198.5625 C 374.855469 197.007812 375.257812 195.289062 375.253906 193.550781 L 375.253906 40.355469 C 375.253906 34.136719 370.21875 29.09375 364.003906 29.09375 L 103.871094 29.09375 C 97.65625 29.09375 92.617188 34.136719 92.617188 40.355469 L 92.617188 193.558594 C 92.617188 195.296875 93.015625 197.011719 93.789062 198.566406 L 58.996094 198.566406 C 58.203125 198.566406 57.445312 198.882812 56.886719 199.445312 C 56.328125 200.007812 56.015625 200.769531 56.019531 201.5625 L 56.019531 203.96875 C 56.019531 213.167969 63.472656 220.628906 72.664062 220.628906 L 394.023438 220.628906 C 403.214844 220.628906 410.664062 213.167969 410.664062 203.96875 L 410.664062 201.5625 C 410.671875 200.769531 410.359375 200.007812 409.800781 199.441406 C 409.242188 198.878906 408.480469 198.5625 407.6875 198.5625 Z M 200.613281 208.09375 L 197.71875 204.820312 L 269.261719 204.820312 L 266.070312 208.097656 Z M 200.613281 208.09375 "/>
<path style=" stroke:none;fill-rule:nonzero;fill:rgb(32.549021%,32.941177%,38.039216%);fill-opacity:1;" d="M 107.96875 31.261719 L 359.875 31.261719 C 366.59375 31.261719 372.042969 36.714844 372.042969 43.441406 L 372.042969 190.828125 C 372.042969 197.554688 366.59375 203.007812 359.875 203.007812 L 107.96875 203.007812 C 101.25 203.007812 95.804688 197.554688 95.804688 190.828125 L 95.804688 43.441406 C 95.804688 36.714844 101.25 31.261719 107.96875 31.261719 Z M 107.96875 31.261719 "/>
<path style=" stroke:none;fill-rule:nonzero;fill:rgb(100%,100%,100%);fill-opacity:1;" d="M 101.621094 56.296875 L 365.644531 56.296875 L 365.644531 196.605469 L 101.621094 196.605469 Z M 101.621094 56.296875 "/>
<path style=" stroke:none;fill-rule:nonzero;fill:rgb(100%,100%,100%);fill-opacity:1;" d="M 235.964844 44.070312 C 235.964844 42.78125 234.921875 41.738281 233.636719 41.738281 C 232.351562 41.738281 231.308594 42.78125 231.308594 44.070312 C 231.308594 45.355469 232.351562 46.398438 233.636719 46.398438 C 234.921875 46.398438 235.964844 45.355469 235.964844 44.070312 Z M 235.964844 44.070312 "/>
<path style=" stroke:none;fill-rule:nonzero;fill:rgb(32.549021%,32.941177%,38.039216%);fill-opacity:1;" d="M 274.398438 196.890625 L 265.328125 206.207031 L 201.378906 206.207031 L 193.183594 196.890625 L 62.945312 196.890625 C 61.339844 196.890625 60.035156 198.195312 60.035156 199.804688 L 60.035156 202.148438 C 60.035156 211.144531 67.320312 218.433594 76.304688 218.433594 L 390.382812 218.433594 C 399.367188 218.433594 406.648438 211.144531 406.648438 202.148438 L 406.648438 199.804688 C 406.648438 198.195312 405.347656 196.890625 403.738281 196.890625 Z M 274.398438 196.890625 "/>
<path style="fill:none;stroke-width:2;stroke-linecap:butt;stroke-linejoin:miter;stroke:rgb(32.549021%,32.941177%,38.039216%);stroke-opacity:1;stroke-miterlimit:10;" d="M 258.768318 124.191623 L 258.768318 352.112495 L 635.666427 352.112495 " transform="matrix(0.523061,0,0,0.523636,0,0)"/>
<use xlink:href="#surface11" mask="url(#mask2)"/>
<use xlink:href="#surface14" mask="url(#mask3)"/>
<use xlink:href="#surface17" mask="url(#mask4)"/>
<use xlink:href="#surface20" mask="url(#mask5)"/>
<path style=" stroke:none;fill-rule:nonzero;fill:rgb(42.352942%,38.82353%,100%);fill-opacity:1;" d="M 292.371094 86.566406 L 312.722656 86.566406 L 312.722656 179.71875 L 292.371094 179.71875 Z M 292.371094 86.566406 "/>
<path style="fill:none;stroke-width:2;stroke-linecap:butt;stroke-linejoin:miter;stroke:rgb(32.549021%,32.941177%,38.039216%);stroke-opacity:1;stroke-miterlimit:10;" d="M 311.022342 246.488444 L 378.839805 185.340034 L 445.551995 243.14643 L 511.151444 173.113336 L 577.863634 145.310465 " transform="matrix(0.523061,0,0,0.523636,0,0)"/>
<path style=" stroke:none;fill-rule:nonzero;fill:rgb(42.352942%,38.82353%,100%);fill-opacity:1;" d="M 166.75 129.070312 C 166.75 126.820312 164.929688 124.996094 162.683594 124.996094 C 160.433594 124.996094 158.613281 126.820312 158.613281 129.070312 C 158.613281 131.320312 160.433594 133.144531 162.683594 133.144531 C 164.929688 133.144531 166.75 131.320312 166.75 129.070312 Z M 166.75 129.070312 "/>
<path style=" stroke:none;fill-rule:nonzero;fill:rgb(42.352942%,38.82353%,100%);fill-opacity:1;" d="M 236.539062 126.742188 C 236.539062 124.492188 234.714844 122.667969 232.46875 122.667969 C 230.222656 122.667969 228.398438 124.492188 228.398438 126.742188 C 228.398438 128.992188 230.222656 130.816406 232.46875 130.816406 C 234.714844 130.816406 236.539062 128.992188 236.539062 126.742188 Z M 236.539062 126.742188 "/>
<path style=" stroke:none;fill-rule:nonzero;fill:rgb(42.352942%,38.82353%,100%);fill-opacity:1;" d="M 272.011719 90.648438 C 272.011719 88.398438 270.191406 86.574219 267.941406 86.574219 C 265.695312 86.574219 263.875 88.398438 263.875 90.648438 C 263.875 92.898438 265.695312 94.71875 267.941406 94.71875 C 270.191406 94.71875 272.011719 92.898438 272.011719 90.648438 Z M 272.011719 90.648438 "/>
<path style=" stroke:none;fill-rule:nonzero;fill:rgb(42.352942%,38.82353%,100%);fill-opacity:1;" d="M 202.226562 96.464844 C 202.226562 94.214844 200.402344 92.390625 198.15625 92.390625 C 195.910156 92.390625 194.085938 94.214844 194.085938 96.464844 C 194.085938 98.714844 195.910156 100.539062 198.15625 100.539062 C 200.402344 100.539062 202.226562 98.714844 202.226562 96.464844 Z M 202.226562 96.464844 "/>
<path style=" stroke:none;fill-rule:nonzero;fill:rgb(42.352942%,38.82353%,100%);fill-opacity:1;" d="M 306.324219 76.089844 C 306.324219 73.839844 304.503906 72.015625 302.257812 72.015625 C 300.007812 72.015625 298.1875 73.839844 298.1875 76.089844 C 298.1875 78.339844 300.007812 80.164062 302.257812 80.164062 C 304.503906 80.164062 306.324219 78.339844 306.324219 76.089844 Z M 306.324219 76.089844 "/>
<path style=" stroke:none;fill-rule:nonzero;fill:url(#linear1);" d="M 453.65625 201.992188 C 451.511719 201.285156 448.332031 200.46875 445.808594 200.757812 C 443.410156 199.882812 437.765625 197.613281 433.910156 194.199219 C 434.019531 190.84375 433.9375 187.484375 433.652344 184.136719 C 431.683594 161.6875 436.117188 146.890625 436.117188 146.890625 C 436.117188 146.890625 439.601562 135.601562 439.21875 126.234375 C 439.445312 126.65625 439.570312 126.910156 439.570312 126.910156 C 439.875 118.828125 442.625 110.464844 444.683594 105.257812 C 444.765625 105.234375 444.839844 105.207031 444.914062 105.171875 L 447.21875 99.707031 C 447.398438 99.386719 447.546875 99.046875 447.652344 98.695312 L 448.023438 97.832031 L 447.914062 97.785156 C 447.949219 97.640625 447.984375 97.492188 448.023438 97.339844 C 449.492188 91.113281 450.636719 76.347656 450.636719 76.347656 C 454.582031 60.804688 445.21875 51.210938 445.21875 51.210938 L 429.328125 37.523438 C 429.40625 37.703125 429.460938 37.890625 429.484375 38.085938 L 429.355469 37.96875 C 429.128906 37.324219 428.882812 36.554688 428.644531 35.675781 C 429.203125 35.273438 429.730469 34.820312 430.210938 34.328125 C 432.019531 32.621094 433.261719 30.402344 433.773438 27.96875 C 434.082031 26.0625 434.160156 24.128906 434.007812 22.207031 L 433.75 15.605469 C 433.734375 14.3125 433.605469 13.023438 433.355469 11.753906 C 432.15625 6.519531 426.796875 2.855469 421.414062 2.613281 C 419.703125 2.601562 417.992188 2.695312 416.289062 2.886719 C 414.898438 3 413.5 3.03125 412.105469 2.972656 C 411.945312 2.984375 411.789062 2.941406 411.652344 2.855469 C 411.53125 2.734375 411.464844 2.570312 411.460938 2.398438 C 411.40625 1.777344 411.605469 1.164062 412.015625 0.695312 C 412.226562 0.511719 412.472656 0.371094 412.738281 0.28125 L 412.355469 0.371094 C 412.542969 0.222656 412.753906 0.109375 412.984375 0.03125 C 411.585938 0.277344 410.246094 0.765625 409.019531 1.472656 C 408.679688 1.695312 408.367188 1.957031 408.09375 2.25 C 407.359375 2.894531 406.886719 3.777344 406.753906 4.746094 C 406.097656 4.191406 405.609375 3.464844 405.339844 2.648438 C 405.257812 2.316406 405.257812 1.96875 405.339844 1.632812 C 405.246094 1.75 405.15625 1.867188 405.070312 1.988281 C 405.070312 1.953125 405.070312 1.917969 405.070312 1.878906 C 404.058594 3.125 403.34375 4.582031 402.976562 6.140625 C 402.691406 5.800781 402.554688 5.359375 402.601562 4.917969 C 402.519531 5.164062 402.449219 5.410156 402.378906 5.65625 C 402.355469 5.492188 402.355469 5.328125 402.378906 5.164062 C 401.765625 7.050781 401.484375 9.03125 401.558594 11.015625 C 401.558594 12.996094 402.4375 16.082031 404.554688 16.777344 C 404.664062 16.8125 404.777344 16.839844 404.890625 16.867188 C 402.472656 20.628906 402.101562 25.359375 403.90625 29.453125 C 405.714844 33.546875 409.453125 36.460938 413.863281 37.203125 C 413.894531 37.445312 413.929688 37.699219 413.960938 37.964844 L 414.042969 37.964844 C 414.101562 38.488281 414.148438 39.0625 414.179688 39.648438 C 413.644531 40.175781 413.0625 40.644531 412.433594 41.054688 C 410.65625 42.105469 408.671875 42.761719 406.617188 42.980469 C 404.164062 43.171875 401.78125 43.886719 399.625 45.074219 C 397.085938 46.492188 394.289062 48.5625 393.410156 51.074219 C 391.945312 55.265625 383.878906 61.785156 378.472656 62.59375 L 376.546875 62.484375 L 376.40625 62.445312 L 376.40625 62.480469 L 375.933594 62.453125 L 375.78125 62.453125 L 375.78125 62.480469 L 375.296875 62.453125 C 375.296875 62.453125 375.25 62.679688 375.179688 63.078125 C 372.460938 62.140625 366.679688 59.542969 359.160156 52.710938 C 350.789062 45.101562 339.464844 46.597656 335.097656 47.558594 C 334.792969 47.625 334.5625 47.871094 334.519531 48.179688 C 334.476562 48.492188 334.628906 48.792969 334.898438 48.945312 C 336.664062 49.914062 339.394531 51.320312 340.652344 51.480469 C 340.652344 51.480469 338.039062 54.21875 340.820312 55.667969 C 341.5 55.996094 342.308594 55.917969 342.914062 55.464844 C 344.261719 54.472656 348.011719 56.714844 353.449219 57.882812 C 353.449219 57.882812 368.785156 73.769531 376.398438 76.210938 C 376.574219 76.558594 376.769531 76.894531 376.980469 77.21875 L 377.449219 77.183594 L 377.449219 77.21875 L 377.648438 77.21875 L 377.707031 77.746094 C 377.707031 77.746094 389.550781 77.121094 393.398438 72.816406 C 393.671875 72.574219 393.921875 72.304688 394.148438 72.015625 L 390.03125 123.855469 L 390.066406 123.855469 L 390.03125 124.347656 L 393.058594 124.347656 C 393.320312 130.722656 393.042969 137.109375 392.238281 143.441406 L 392.238281 177.234375 C 392.238281 177.234375 392.082031 180.210938 398.253906 184.566406 C 404.722656 189.078125 410.960938 193.914062 416.9375 199.066406 L 417.683594 199.714844 C 416.550781 210.058594 414.175781 229.332031 412.191406 230.050781 L 413.417969 230.265625 C 411.324219 232.917969 405.382812 240.214844 403.574219 240.40625 C 401.355469 240.652344 399.875 244.109375 403.574219 244.847656 C 410.957031 246.125 418.550781 245.378906 425.542969 242.679688 C 426.976562 242.113281 427.839844 240.636719 427.632812 239.109375 L 426.917969 233.664062 C 427.050781 233.738281 427.164062 233.851562 427.230469 233.992188 C 427.722656 235.472656 427.230469 232.019531 427.230469 232.019531 C 429.257812 225.5 430.847656 218.851562 431.996094 212.121094 L 439.320312 218.457031 C 439.320312 218.457031 439.464844 218.273438 439.722656 217.933594 C 441.515625 222.007812 444.714844 230.34375 444 236.449219 C 443.015625 244.828125 452.367188 237.433594 451.390625 232.5 C 450.597656 228.507812 454.152344 211.597656 455.539062 205.269531 C 455.847656 203.855469 455.035156 202.4375 453.65625 201.992188 Z M 453.65625 201.992188 "/>
<path style=" stroke:none;fill-rule:nonzero;fill:rgb(99.607843%,76.47059%,74.509805%);fill-opacity:1;" d="M 377.125 65.152344 C 377.125 65.152344 370.148438 63.945312 359.804688 54.550781 C 351.617188 47.121094 340.574219 48.582031 336.316406 49.519531 C 336.019531 49.585938 335.792969 49.828125 335.75 50.128906 C 335.707031 50.429688 335.855469 50.726562 336.125 50.871094 C 337.84375 51.8125 340.511719 53.191406 341.761719 53.347656 C 341.761719 53.347656 339.183594 56.019531 341.925781 57.449219 C 342.59375 57.777344 343.390625 57.699219 343.984375 57.25 C 345.304688 56.285156 348.964844 58.472656 354.273438 59.609375 C 354.273438 59.609375 374.964844 81.046875 379.777344 77.414062 Z M 377.125 65.152344 "/>
<path style=" stroke:none;fill-rule:nonzero;fill:rgb(99.607843%,76.47059%,74.509805%);fill-opacity:1;" d="M 412.753906 36.003906 C 412.753906 36.003906 414.675781 44.195312 412.753906 49.976562 L 421.414062 51.179688 L 429.113281 47.328125 L 429.113281 42.269531 C 429.113281 42.269531 425.503906 34.558594 426.46875 25.648438 Z M 412.753906 36.003906 "/>
<path style=" stroke:none;fill-rule:nonzero;fill:rgb(54.509807%,25.490198%,43.529412%);fill-opacity:1;" d="M 437.277344 213.519531 C 437.277344 213.519531 443.554688 225.800781 442.570312 233.992188 C 441.589844 242.183594 450.753906 234.957031 449.789062 230.136719 C 449.011719 226.242188 452.484375 209.714844 453.839844 203.570312 C 454.144531 202.191406 453.355469 200.808594 452.019531 200.371094 C 449.125 199.417969 444.28125 198.25 441.851562 200.035156 C 438.257812 202.679688 437.277344 213.519531 437.277344 213.519531 Z M 437.277344 213.519531 "/>
<path style=" stroke:none;fill-rule:nonzero;fill:rgb(54.509807%,25.490198%,43.529412%);fill-opacity:1;" d="M 413.472656 227.007812 C 413.472656 227.007812 405.292969 237.605469 403.128906 237.847656 C 400.960938 238.085938 399.519531 241.460938 403.128906 242.183594 C 410.335938 243.4375 417.746094 242.714844 424.574219 240.085938 C 425.980469 239.539062 426.828125 238.097656 426.628906 236.601562 L 425.25 226.285156 Z M 413.472656 227.007812 "/>
<path style=" stroke:none;fill-rule:nonzero;fill:rgb(30.19608%,28.627452%,50.588238%);fill-opacity:1;" d="M 400 114.523438 L 392.15625 115.570312 C 393.230469 124.746094 393.199219 134.015625 392.058594 143.183594 L 392.058594 176.171875 C 392.058594 176.171875 391.910156 179.078125 397.933594 183.304688 C 404.253906 187.703125 410.34375 192.421875 416.179688 197.441406 L 438.011719 216.378906 C 438.011719 216.378906 446.671875 205.777344 445.46875 199.515625 C 445.46875 199.515625 431.035156 194.9375 429.109375 187.472656 C 428.003906 183.199219 422.410156 179.617188 417.828125 177.367188 C 411.890625 174.480469 408.765625 167.84375 410.320312 161.425781 C 410.585938 160.34375 411 159.304688 411.550781 158.332031 C 415.398438 151.585938 420.933594 136.414062 420.933594 136.414062 L 410.347656 116.210938 Z M 400 114.523438 "/>
<use xlink:href="#surface23" mask="url(#mask6)"/>
<path style=" stroke:none;fill-rule:nonzero;fill:rgb(30.19608%,28.627452%,50.588238%);fill-opacity:1;" d="M 411.550781 227.746094 C 411.550781 227.746094 425.746094 230.152344 426.226562 231.597656 C 426.707031 233.042969 426.226562 229.671875 426.226562 229.671875 C 426.226562 229.671875 434.40625 204.863281 432.503906 182.949219 C 430.597656 161.035156 434.910156 146.578125 434.910156 146.578125 C 434.910156 146.578125 439.960938 130.195312 437.074219 120.804688 C 434.1875 111.410156 403.871094 115.503906 403.871094 115.503906 C 403.871094 115.503906 414.457031 140.3125 414.21875 152.117188 C 414.21875 152.117188 415.421875 187.765625 417.585938 191.859375 C 417.566406 191.839844 414.195312 226.765625 411.550781 227.746094 Z M 411.550781 227.746094 "/>
<path style=" stroke:none;fill-rule:nonzero;fill:rgb(100%,100%,100%);fill-opacity:1;" d="M 413.21875 42.269531 C 413.21875 42.269531 414.660156 51.167969 429.097656 47.328125 L 419.496094 120.546875 C 419.496094 120.546875 391.585938 121.511719 391.824219 118.136719 L 397.578125 73.820312 Z M 413.21875 42.269531 "/>
<use xlink:href="#surface26" mask="url(#mask7)"/>
<use xlink:href="#surface29" mask="url(#mask8)"/>
<path style=" stroke:none;fill-rule:nonzero;fill:rgb(99.215686%,43.529412%,55.29412%);fill-opacity:1;" d="M 413.59375 42.027344 C 411.445312 43.710938 408.875 44.769531 406.160156 45.089844 C 403.765625 45.273438 401.4375 45.964844 399.332031 47.121094 C 396.855469 48.507812 394.101562 50.527344 393.261719 52.980469 C 391.578125 57.800781 380.992188 65.746094 376.179688 64.0625 L 377.863281 78.515625 C 377.863281 78.515625 391.578125 77.792969 393.984375 72.492188 L 389.898438 124.066406 L 393.507812 124.066406 C 393.507812 124.066406 395.433594 110.09375 396.878906 107.203125 C 398.320312 104.3125 401.207031 88.414062 401.449219 84.5625 C 401.691406 80.707031 405.300781 58.546875 408.425781 54.714844 L 413.601562 43.515625 Z M 413.59375 42.027344 "/>
<use xlink:href="#surface32" mask="url(#mask9)"/>
<path style=" stroke:none;fill-rule:nonzero;fill:rgb(99.607843%,76.47059%,74.509805%);fill-opacity:1;" d="M 428.390625 26.617188 C 428.390625 19.433594 422.574219 13.609375 415.398438 13.609375 C 408.222656 13.609375 402.40625 19.433594 402.40625 26.617188 C 402.40625 33.800781 408.222656 39.625 415.398438 39.625 C 422.574219 39.625 428.390625 33.800781 428.390625 26.617188 Z M 428.390625 26.617188 "/>
<use xlink:href="#surface35" mask="url(#mask10)"/>
<path style=" stroke:none;fill-rule:nonzero;fill:rgb(47.058824%,30.980393%,41.176471%);fill-opacity:1;" d="M 401.460938 13.625 C 401.375 11.429688 401.730469 9.242188 402.503906 7.191406 C 402.0625 7.859375 402.175781 8.75 402.777344 9.285156 C 403.195312 7.046875 404.34375 5.007812 406.042969 3.492188 C 405.117188 3.644531 404.640625 4.792969 404.871094 5.703125 C 405.183594 6.59375 405.738281 7.375 406.476562 7.964844 C 406.398438 6.585938 407.308594 5.300781 408.457031 4.546875 C 409.65625 3.855469 410.96875 3.378906 412.328125 3.140625 C 411.367188 3.484375 410.757812 4.429688 410.84375 5.445312 C 410.847656 5.613281 410.917969 5.773438 411.035156 5.890625 C 411.167969 5.976562 411.320312 6.015625 411.476562 6.007812 C 412.832031 6.058594 414.1875 6.027344 415.539062 5.917969 C 417.203125 5.730469 418.875 5.640625 420.546875 5.648438 C 425.777344 5.871094 431.035156 9.445312 432.207031 14.550781 C 432.449219 15.789062 432.574219 17.050781 432.585938 18.3125 L 432.84375 24.757812 C 432.992188 26.636719 432.914062 28.53125 432.613281 30.390625 C 431.878906 33.871094 429.632812 36.84375 426.488281 38.496094 C 424.601562 35.757812 424.433594 32.242188 423.777344 28.976562 C 423.675781 28.226562 423.394531 27.507812 422.960938 26.882812 C 422.503906 26.25 421.695312 25.976562 420.949219 26.203125 C 420.242188 26.484375 419.9375 27.5625 420.523438 28.046875 C 420.003906 28.664062 419.023438 28.203125 418.433594 27.652344 C 416.78125 26.085938 415.644531 24.054688 415.175781 21.824219 C 414.9375 20.703125 414.703125 19.320312 413.605469 18.941406 C 413.226562 18.835938 412.832031 18.808594 412.445312 18.863281 C 410.152344 19.019531 406.570312 19.964844 404.351562 19.238281 C 402.316406 18.566406 401.460938 15.558594 401.460938 13.625 Z M 401.460938 13.625 "/>
<use xlink:href="#surface38" mask="url(#mask11)"/>
<path style=" stroke:none;fill-rule:nonzero;fill:rgb(99.215686%,43.529412%,55.29412%);fill-opacity:1;" d="M 376.082031 64.066406 C 376.082031 64.066406 374.15625 72.96875 377.765625 78.519531 L 379.808594 78.351562 L 378.695312 64.214844 Z M 376.082031 64.066406 "/>
<use xlink:href="#surface41" mask="url(#mask12)"/>
<path style=" stroke:none;fill-rule:nonzero;fill:rgb(99.215686%,43.529412%,55.29412%);fill-opacity:1;" d="M 428.273438 39.757812 L 443.789062 53.128906 C 443.789062 53.128906 452.933594 62.523438 449.085938 77.695312 C 449.085938 77.695312 447.398438 99.859375 445.476562 100.820312 C 445.476562 100.820312 438.738281 114.308594 438.257812 127.074219 C 438.257812 127.074219 428.753906 107.925781 424.65625 119.007812 C 420.5625 130.085938 411.542969 132.621094 411.542969 132.621094 L 416.835938 67.109375 C 416.835938 67.109375 430.195312 43.832031 428.273438 39.757812 Z M 428.273438 39.757812 "/>
<path style=" stroke:none;fill-rule:nonzero;fill:rgb(99.607843%,76.47059%,74.509805%);fill-opacity:1;" d="M 435.371094 96.222656 C 435.371094 96.222656 439.21875 93.574219 445.476562 100.800781 L 430.078125 128.742188 L 424.902344 120.921875 C 424.902344 120.921875 435.851562 99.355469 435.371094 96.222656 Z M 435.371094 96.222656 "/>
<use xlink:href="#surface44" mask="url(#mask13)"/>
<path style=" stroke:none;fill-rule:nonzero;fill:rgb(99.215686%,43.529412%,55.29412%);fill-opacity:1;" d="M 431.640625 97.308594 C 431.640625 97.308594 440.15625 106.878906 443.476562 105.34375 L 446.550781 98.175781 L 435.007812 93.210938 Z M 431.640625 97.308594 "/>
<use xlink:href="#surface47" mask="url(#mask14)"/>
<path style=" stroke:none;fill-rule:nonzero;fill:rgb(30.19608%,28.627452%,50.588238%);fill-opacity:1;" d="M 425.1875 119.351562 C 425.1875 119.351562 429.238281 127.667969 431.398438 128.148438 L 428.261719 131.761719 L 423.679688 123.074219 Z M 425.1875 119.351562 "/>
<use xlink:href="#surface50" mask="url(#mask15)"/>
<use xlink:href="#surface53" mask="url(#mask16)"/>
<path style="fill:none;stroke-width:2;stroke-linecap:butt;stroke-linejoin:miter;stroke:rgb(32.549021%,32.941177%,38.039216%);stroke-opacity:1;stroke-miterlimit:10;" d="M 205.686373 316.762444 C 205.686373 316.762444 179.473478 371.003031 196.687359 435.187602 C 213.908708 499.379632 208.442087 576.186273 191.273015 595.186517 " transform="matrix(0.523061,0,0,0.523636,-64.336478,-91.673022)"/>
<path style=" stroke:none;fill-rule:nonzero;fill:rgb(42.352942%,38.82353%,100%);fill-opacity:1;" d="M 47.035156 74.199219 C 47.035156 72.109375 45.339844 70.414062 43.25 70.414062 C 41.164062 70.414062 39.46875 72.109375 39.46875 74.199219 C 39.46875 76.289062 41.164062 77.984375 43.25 77.984375 C 45.339844 77.984375 47.035156 76.289062 47.035156 74.199219 Z M 47.035156 74.199219 "/>
<path style="fill:none;stroke-width:2;stroke-linecap:butt;stroke-linejoin:miter;stroke:rgb(32.549021%,32.941177%,38.039216%);stroke-opacity:1;stroke-miterlimit:10;" d="M 194.790472 351.652174 C 194.790472 351.652174 221.966746 356.553297 229.203297 346.646613 " transform="matrix(0.523061,0,0,0.523636,-64.336478,-91.673022)"/>
<path style="fill:none;stroke-width:2;stroke-linecap:butt;stroke-linejoin:miter;stroke:rgb(32.549021%,32.941177%,38.039216%);stroke-opacity:1;stroke-miterlimit:10;" d="M 192.206522 367.399923 C 192.206522 367.399923 175.858937 349.309781 176.762572 338.463155 " transform="matrix(0.523061,0,0,0.523636,-64.336478,-91.673022)"/>
<path style="fill:none;stroke-width:2;stroke-linecap:butt;stroke-linejoin:miter;stroke:rgb(32.549021%,32.941177%,38.039216%);stroke-opacity:1;stroke-miterlimit:10;" d="M 190.817463 400.536587 C 190.817463 400.536587 205.686373 404.46047 219.263308 375.538622 " transform="matrix(0.523061,0,0,0.523636,-64.336478,-91.673022)"/>
<path style="fill:none;stroke-width:2;stroke-linecap:butt;stroke-linejoin:miter;stroke:rgb(32.549021%,32.941177%,38.039216%);stroke-opacity:1;stroke-miterlimit:10;" d="M 194.790472 424.63937 C 194.790472 424.63937 157.793697 400.827521 162.296938 385.467685 " transform="matrix(0.523061,0,0,0.523636,-64.336478,-91.673022)"/>
<path style="fill:none;stroke-width:2;stroke-linecap:butt;stroke-linejoin:miter;stroke:rgb(32.549021%,32.941177%,38.039216%);stroke-opacity:1;stroke-miterlimit:10;" d="M 200.570751 451.890211 C 200.570751 451.890211 226.492391 428.891486 223.781485 406.258294 " transform="matrix(0.523061,0,0,0.523636,-64.336478,-91.673022)"/>
<path style="fill:none;stroke-width:2;stroke-linecap:butt;stroke-linejoin:miter;stroke:rgb(32.549021%,32.941177%,38.039216%);stroke-opacity:1;stroke-miterlimit:10;" d="M 203.393678 467.906514 C 203.393678 467.906514 170.392316 458.693597 171.393036 444.228943 " transform="matrix(0.523061,0,0,0.523636,-64.336478,-91.673022)"/>
<path style="fill:none;stroke-width:2;stroke-linecap:butt;stroke-linejoin:miter;stroke:rgb(32.549021%,32.941177%,38.039216%);stroke-opacity:1;stroke-miterlimit:10;" d="M 205.686373 486.996277 C 205.686373 486.996277 226.477455 467.742398 229.188361 456.00059 " transform="matrix(0.523061,0,0,0.523636,-64.336478,-91.673022)"/>
<path style="fill:none;stroke-width:2;stroke-linecap:butt;stroke-linejoin:miter;stroke:rgb(32.549021%,32.941177%,38.039216%);stroke-opacity:1;stroke-miterlimit:10;" d="M 207.142645 519.752489 C 207.142645 519.752489 185.806394 494.851501 184.902759 482.199592 " transform="matrix(0.523061,0,0,0.523636,-64.336478,-91.673022)"/>
<path style="fill:none;stroke-width:2;stroke-linecap:butt;stroke-linejoin:miter;stroke:rgb(32.549021%,32.941177%,38.039216%);stroke-opacity:1;stroke-miterlimit:10;" d="M 207.142645 540.356601 C 207.142645 540.356601 231.010568 513.836826 232.810371 501.192376 " transform="matrix(0.523061,0,0,0.523636,-64.336478,-91.673022)"/>
<path style=" stroke:none;fill-rule:nonzero;fill:rgb(42.352942%,38.82353%,100%);fill-opacity:1;" d="M 31.902344 86.503906 C 31.902344 84.414062 30.207031 82.71875 28.121094 82.71875 C 26.03125 82.71875 24.339844 84.414062 24.339844 86.503906 C 24.339844 88.59375 26.03125 90.289062 28.121094 90.289062 C 30.207031 90.289062 31.902344 88.59375 31.902344 86.503906 Z M 31.902344 86.503906 "/>
<path style=" stroke:none;fill-rule:nonzero;fill:rgb(42.352942%,38.82353%,100%);fill-opacity:1;" d="M 27.648438 140.941406 C 27.648438 138.851562 25.957031 137.15625 23.867188 137.15625 C 21.777344 137.15625 20.085938 138.851562 20.085938 140.941406 C 20.085938 143.03125 21.777344 144.726562 23.867188 144.726562 C 25.957031 144.726562 27.648438 143.03125 27.648438 140.941406 Z M 27.648438 140.941406 "/>
<path style=" stroke:none;fill-rule:nonzero;fill:rgb(42.352942%,38.82353%,100%);fill-opacity:1;" d="M 24.339844 110.171875 C 24.339844 108.082031 22.644531 106.386719 20.554688 106.386719 C 18.46875 106.386719 16.773438 108.082031 16.773438 110.171875 C 16.773438 112.265625 18.46875 113.957031 20.554688 113.957031 C 22.644531 113.957031 24.339844 112.265625 24.339844 110.171875 Z M 24.339844 110.171875 "/>
<path style=" stroke:none;fill-rule:nonzero;fill:rgb(42.352942%,38.82353%,100%);fill-opacity:1;" d="M 59.332031 89.820312 C 59.332031 87.726562 57.636719 86.035156 55.550781 86.035156 C 53.460938 86.035156 51.765625 87.726562 51.765625 89.820312 C 51.765625 91.910156 53.460938 93.605469 55.550781 93.605469 C 57.636719 93.605469 59.332031 91.910156 59.332031 89.820312 Z M 59.332031 89.820312 "/>
<path style=" stroke:none;fill-rule:nonzero;fill:rgb(42.352942%,38.82353%,100%);fill-opacity:1;" d="M 59.332031 148.042969 C 59.332031 145.953125 57.636719 144.257812 55.550781 144.257812 C 53.460938 144.257812 51.765625 145.953125 51.765625 148.042969 C 51.765625 150.132812 53.460938 151.828125 55.550781 151.828125 C 57.636719 151.828125 59.332031 150.132812 59.332031 148.042969 Z M 59.332031 148.042969 "/>
<path style=" stroke:none;fill-rule:nonzero;fill:rgb(42.352942%,38.82353%,100%);fill-opacity:1;" d="M 53.183594 104.96875 C 53.183594 102.878906 51.492188 101.183594 49.402344 101.183594 C 47.316406 101.183594 45.621094 102.878906 45.621094 104.96875 C 45.621094 107.058594 47.316406 108.753906 49.402344 108.753906 C 51.492188 108.753906 53.183594 107.058594 53.183594 104.96875 Z M 53.183594 104.96875 "/>
<path style=" stroke:none;fill-rule:nonzero;fill:rgb(42.352942%,38.82353%,100%);fill-opacity:1;" d="M 60.75 173.136719 C 60.75 171.042969 59.054688 169.347656 56.964844 169.347656 C 54.878906 169.347656 53.183594 171.042969 53.183594 173.136719 C 53.183594 175.226562 54.878906 176.921875 56.964844 176.921875 C 59.054688 176.921875 60.75 175.226562 60.75 173.136719 Z M 60.75 173.136719 "/>
<path style=" stroke:none;fill-rule:nonzero;fill:rgb(42.352942%,38.82353%,100%);fill-opacity:1;" d="M 35.210938 163.191406 C 35.210938 161.101562 33.519531 159.40625 31.429688 159.40625 C 29.34375 159.40625 27.648438 161.101562 27.648438 163.191406 C 27.648438 165.28125 29.34375 166.976562 31.429688 166.976562 C 33.519531 166.976562 35.210938 165.28125 35.210938 163.191406 Z M 35.210938 163.191406 "/>
<path style=" stroke:none;fill-rule:nonzero;fill:rgb(42.352942%,38.82353%,100%);fill-opacity:1;" d="M 56.964844 121.058594 C 56.964844 118.96875 55.273438 117.273438 53.183594 117.273438 C 51.097656 117.273438 49.402344 118.96875 49.402344 121.058594 C 49.402344 123.148438 51.097656 124.84375 53.183594 124.84375 C 55.273438 124.84375 56.964844 123.148438 56.964844 121.058594 Z M 56.964844 121.058594 "/>
</g>
</svg>
